<?xml version="1.0"?>
<svg xmlns="http://www.w3.org/2000/svg" xmlns:xlink="http://www.w3.org/1999/xlink" viewBox="0 0 293.900000 200.000000" width="146.950000mm" height="100.000000mm" version="1.1">
<rect x="1.000000" y="1.000000" width="292.900000" height="199.000000" rx="0" ry="0" style="stroke:none;fill:#cccccc;"/>
<rect x="0.000000" y="0.000000" width="292.900000" height="199.000000" rx="0" ry="0" style="stroke:none;fill:#ffffff;"/>
<text x="10.000000" y="7.000000" font-family="Arial" font-size="7"></text>
<a xlink:href="multinoise-0x600000047780.svg">
<rect x="25.000000" y="85.000000" width="64.500000" height="32.000000" rx="0" ry="0" style="stroke:none;fill:#cccccc;"/>
<rect x="24.000000" y="84.000000" width="64.500000" height="32.000000" rx="0" ry="0" style="stroke:none;fill:#003366;"/>
</a>
<a xlink:href="multinoise-0x600000047780.svg">
<text x="56.250000" y="102.000000" font-family="Arial" font-size="7" text-anchor="middle" fill="#FFFFFF">multinoise(4)</text>
</a>
<circle cx="26.000000" cy="86.000000" r="1"/>
<a xlink:href="pink-0x60000022a680.svg">
<rect x="113.500000" y="29.000000" width="51.600000" height="24.000000" rx="0" ry="0" style="stroke:none;fill:#cccccc;"/>
<rect x="112.500000" y="28.000000" width="51.600000" height="24.000000" rx="0" ry="0" style="stroke:none;fill:#003366;"/>
</a>
<a xlink:href="pink-0x60000022a680.svg">
<text x="138.300000" y="42.000000" font-family="Arial" font-size="7" text-anchor="middle" fill="#FFFFFF">pink_filter</text>
</a>
<circle cx="114.500000" cy="30.000000" r="1"/>
<line x1="109.500000" y1="39.000000" x2="112.500000" y2="40.000000"  transform="rotate(0.000000,112.500000,40.000000)" style="stroke: black; stroke-width:0.25;"/>
<line x1="109.500000" y1="41.000000" x2="112.500000" y2="40.000000"  transform="rotate(0.000000,112.500000,40.000000)" style="stroke: black; stroke-width:0.25;"/>
<rect x="181.100000" y="33.000000" width="25.800000" height="24.000000" rx="0" ry="0" style="stroke:none;fill:#cccccc;"/>
<rect x="180.100000" y="32.000000" width="25.800000" height="24.000000" rx="0" ry="0" style="stroke:none;fill:#f44800;"/>
<text x="193.000000" y="46.000000" font-family="Arial" font-size="7" text-anchor="middle" fill="#FFFFFF">0.5f</text>
<circle cx="182.100000" cy="34.000000" r="1"/>
<rect x="222.900000" y="29.000000" width="24.000000" height="24.000000" rx="0" ry="0" style="stroke:none;fill:#cccccc;"/>
<rect x="221.900000" y="28.000000" width="24.000000" height="24.000000" rx="0" ry="0" style="stroke:none;fill:#4B71A1;"/>
<text x="233.900000" y="42.000000" font-family="Arial" font-size="7" text-anchor="middle" fill="#FFFFFF">*</text>
<circle cx="223.900000" cy="30.000000" r="1"/>
<line x1="218.900000" y1="35.000000" x2="221.900000" y2="36.000000"  transform="rotate(0.000000,221.900000,36.000000)" style="stroke: black; stroke-width:0.25;"/>
<line x1="218.900000" y1="37.000000" x2="221.900000" y2="36.000000"  transform="rotate(0.000000,221.900000,36.000000)" style="stroke: black; stroke-width:0.25;"/>
<line x1="218.900000" y1="43.000000" x2="221.900000" y2="44.000000"  transform="rotate(0.000000,221.900000,44.000000)" style="stroke: black; stroke-width:0.25;"/>
<line x1="218.900000" y1="45.000000" x2="221.900000" y2="44.000000"  transform="rotate(0.000000,221.900000,44.000000)" style="stroke: black; stroke-width:0.25;"/>
<a xlink:href="pink-0x60000022a680.svg">
<rect x="113.500000" y="69.000000" width="51.600000" height="24.000000" rx="0" ry="0" style="stroke:none;fill:#cccccc;"/>
<rect x="112.500000" y="68.000000" width="51.600000" height="24.000000" rx="0" ry="0" style="stroke:none;fill:#003366;"/>
</a>
<a xlink:href="pink-0x60000022a680.svg">
<text x="138.300000" y="82.000000" font-family="Arial" font-size="7" text-anchor="middle" fill="#FFFFFF">pink_filter</text>
</a>
<circle cx="114.500000" cy="70.000000" r="1"/>
<line x1="109.500000" y1="79.000000" x2="112.500000" y2="80.000000"  transform="rotate(0.000000,112.500000,80.000000)" style="stroke: black; stroke-width:0.25;"/>
<line x1="109.500000" y1="81.000000" x2="112.500000" y2="80.000000"  transform="rotate(0.000000,112.500000,80.000000)" style="stroke: black; stroke-width:0.25;"/>
<rect x="181.100000" y="73.000000" width="25.800000" height="24.000000" rx="0" ry="0" style="stroke:none;fill:#cccccc;"/>
<rect x="180.100000" y="72.000000" width="25.800000" height="24.000000" rx="0" ry="0" style="stroke:none;fill:#f44800;"/>
<text x="193.000000" y="86.000000" font-family="Arial" font-size="7" text-anchor="middle" fill="#FFFFFF">0.5f</text>
<circle cx="182.100000" cy="74.000000" r="1"/>
<rect x="222.900000" y="69.000000" width="24.000000" height="24.000000" rx="0" ry="0" style="stroke:none;fill:#cccccc;"/>
<rect x="221.900000" y="68.000000" width="24.000000" height="24.000000" rx="0" ry="0" style="stroke:none;fill:#4B71A1;"/>
<text x="233.900000" y="82.000000" font-family="Arial" font-size="7" text-anchor="middle" fill="#FFFFFF">*</text>
<circle cx="223.900000" cy="70.000000" r="1"/>
<line x1="218.900000" y1="75.000000" x2="221.900000" y2="76.000000"  transform="rotate(0.000000,221.900000,76.000000)" style="stroke: black; stroke-width:0.25;"/>
<line x1="218.900000" y1="77.000000" x2="221.900000" y2="76.000000"  transform="rotate(0.000000,221.900000,76.000000)" style="stroke: black; stroke-width:0.25;"/>
<line x1="218.900000" y1="83.000000" x2="221.900000" y2="84.000000"  transform="rotate(0.000000,221.900000,84.000000)" style="stroke: black; stroke-width:0.25;"/>
<line x1="218.900000" y1="85.000000" x2="221.900000" y2="84.000000"  transform="rotate(0.000000,221.900000,84.000000)" style="stroke: black; stroke-width:0.25;"/>
<a xlink:href="pink-0x60000022a680.svg">
<rect x="113.500000" y="109.000000" width="51.600000" height="24.000000" rx="0" ry="0" style="stroke:none;fill:#cccccc;"/>
<rect x="112.500000" y="108.000000" width="51.600000" height="24.000000" rx="0" ry="0" style="stroke:none;fill:#003366;"/>
</a>
<a xlink:href="pink-0x60000022a680.svg">
<text x="138.300000" y="122.000000" font-family="Arial" font-size="7" text-anchor="middle" fill="#FFFFFF">pink_filter</text>
</a>
<circle cx="114.500000" cy="110.000000" r="1"/>
<line x1="109.500000" y1="119.000000" x2="112.500000" y2="120.000000"  transform="rotate(0.000000,112.500000,120.000000)" style="stroke: black; stroke-width:0.25;"/>
<line x1="109.500000" y1="121.000000" x2="112.500000" y2="120.000000"  transform="rotate(0.000000,112.500000,120.000000)" style="stroke: black; stroke-width:0.25;"/>
<rect x="181.100000" y="113.000000" width="25.800000" height="24.000000" rx="0" ry="0" style="stroke:none;fill:#cccccc;"/>
<rect x="180.100000" y="112.000000" width="25.800000" height="24.000000" rx="0" ry="0" style="stroke:none;fill:#f44800;"/>
<text x="193.000000" y="126.000000" font-family="Arial" font-size="7" text-anchor="middle" fill="#FFFFFF">0.5f</text>
<circle cx="182.100000" cy="114.000000" r="1"/>
<rect x="222.900000" y="109.000000" width="24.000000" height="24.000000" rx="0" ry="0" style="stroke:none;fill:#cccccc;"/>
<rect x="221.900000" y="108.000000" width="24.000000" height="24.000000" rx="0" ry="0" style="stroke:none;fill:#4B71A1;"/>
<text x="233.900000" y="122.000000" font-family="Arial" font-size="7" text-anchor="middle" fill="#FFFFFF">*</text>
<circle cx="223.900000" cy="110.000000" r="1"/>
<line x1="218.900000" y1="115.000000" x2="221.900000" y2="116.000000"  transform="rotate(0.000000,221.900000,116.000000)" style="stroke: black; stroke-width:0.25;"/>
<line x1="218.900000" y1="117.000000" x2="221.900000" y2="116.000000"  transform="rotate(0.000000,221.900000,116.000000)" style="stroke: black; stroke-width:0.25;"/>
<line x1="218.900000" y1="123.000000" x2="221.900000" y2="124.000000"  transform="rotate(0.000000,221.900000,124.000000)" style="stroke: black; stroke-width:0.25;"/>
<line x1="218.900000" y1="125.000000" x2="221.900000" y2="124.000000"  transform="rotate(0.000000,221.900000,124.000000)" style="stroke: black; stroke-width:0.25;"/>
<a xlink:href="pink-0x60000022a680.svg">
<rect x="113.500000" y="149.000000" width="51.600000" height="24.000000" rx="0" ry="0" style="stroke:none;fill:#cccccc;"/>
<rect x="112.500000" y="148.000000" width="51.600000" height="24.000000" rx="0" ry="0" style="stroke:none;fill:#003366;"/>
</a>
<a xlink:href="pink-0x60000022a680.svg">
<text x="138.300000" y="162.000000" font-family="Arial" font-size="7" text-anchor="middle" fill="#FFFFFF">pink_filter</text>
</a>
<circle cx="114.500000" cy="150.000000" r="1"/>
<line x1="109.500000" y1="159.000000" x2="112.500000" y2="160.000000"  transform="rotate(0.000000,112.500000,160.000000)" style="stroke: black; stroke-width:0.25;"/>
<line x1="109.500000" y1="161.000000" x2="112.500000" y2="160.000000"  transform="rotate(0.000000,112.500000,160.000000)" style="stroke: black; stroke-width:0.25;"/>
<rect x="181.100000" y="153.000000" width="25.800000" height="24.000000" rx="0" ry="0" style="stroke:none;fill:#cccccc;"/>
<rect x="180.100000" y="152.000000" width="25.800000" height="24.000000" rx="0" ry="0" style="stroke:none;fill:#f44800;"/>
<text x="193.000000" y="166.000000" font-family="Arial" font-size="7" text-anchor="middle" fill="#FFFFFF">0.5f</text>
<circle cx="182.100000" cy="154.000000" r="1"/>
<rect x="222.900000" y="149.000000" width="24.000000" height="24.000000" rx="0" ry="0" style="stroke:none;fill:#cccccc;"/>
<rect x="221.900000" y="148.000000" width="24.000000" height="24.000000" rx="0" ry="0" style="stroke:none;fill:#4B71A1;"/>
<text x="233.900000" y="162.000000" font-family="Arial" font-size="7" text-anchor="middle" fill="#FFFFFF">*</text>
<circle cx="223.900000" cy="150.000000" r="1"/>
<line x1="218.900000" y1="155.000000" x2="221.900000" y2="156.000000"  transform="rotate(0.000000,221.900000,156.000000)" style="stroke: black; stroke-width:0.25;"/>
<line x1="218.900000" y1="157.000000" x2="221.900000" y2="156.000000"  transform="rotate(0.000000,221.900000,156.000000)" style="stroke: black; stroke-width:0.25;"/>
<line x1="218.900000" y1="163.000000" x2="221.900000" y2="164.000000"  transform="rotate(0.000000,221.900000,164.000000)" style="stroke: black; stroke-width:0.25;"/>
<line x1="218.900000" y1="165.000000" x2="221.900000" y2="164.000000"  transform="rotate(0.000000,221.900000,164.000000)" style="stroke: black; stroke-width:0.25;"/>
<line x1="15.000000" y1="15.000000" x2="15.000000" y2="185.000000"  style="stroke: black; stroke-linecap:round; stroke-width:0.25; stroke-dasharray:3,3;"/>
<line x1="15.000000" y1="185.000000" x2="278.900000" y2="185.000000"  style="stroke: black; stroke-linecap:round; stroke-width:0.25; stroke-dasharray:3,3;"/>
<line x1="278.900000" y1="185.000000" x2="278.900000" y2="15.000000"  style="stroke: black; stroke-linecap:round; stroke-width:0.25; stroke-dasharray:3,3;"/>
<line x1="15.000000" y1="15.000000" x2="20.000000" y2="15.000000"  style="stroke: black; stroke-linecap:round; stroke-width:0.25; stroke-dasharray:3,3;"/>
<line x1="49.025000" y1="15.000000" x2="278.900000" y2="15.000000"  style="stroke: black; stroke-linecap:round; stroke-width:0.25; stroke-dasharray:3,3;"/>
<text x="20.000000" y="17.000000" font-family="Arial" font-size="7">process</text>
<line x1="280.900000" y1="87.000000" x2="283.900000" y2="88.000000"  transform="rotate(0.000000,283.900000,88.000000)" style="stroke: black; stroke-width:0.25;"/>
<line x1="280.900000" y1="89.000000" x2="283.900000" y2="88.000000"  transform="rotate(0.000000,283.900000,88.000000)" style="stroke: black; stroke-width:0.25;"/>
<line x1="280.900000" y1="95.000000" x2="283.900000" y2="96.000000"  transform="rotate(0.000000,283.900000,96.000000)" style="stroke: black; stroke-width:0.25;"/>
<line x1="280.900000" y1="97.000000" x2="283.900000" y2="96.000000"  transform="rotate(0.000000,283.900000,96.000000)" style="stroke: black; stroke-width:0.25;"/>
<line x1="280.900000" y1="103.000000" x2="283.900000" y2="104.000000"  transform="rotate(0.000000,283.900000,104.000000)" style="stroke: black; stroke-width:0.25;"/>
<line x1="280.900000" y1="105.000000" x2="283.900000" y2="104.000000"  transform="rotate(0.000000,283.900000,104.000000)" style="stroke: black; stroke-width:0.25;"/>
<line x1="280.900000" y1="111.000000" x2="283.900000" y2="112.000000"  transform="rotate(0.000000,283.900000,112.000000)" style="stroke: black; stroke-width:0.25;"/>
<line x1="280.900000" y1="113.000000" x2="283.900000" y2="112.000000"  transform="rotate(0.000000,283.900000,112.000000)" style="stroke: black; stroke-width:0.25;"/>
<line x1="88.500000" y1="88.000000" x2="92.500000" y2="88.000000"  style="stroke:black; stroke-linecap:round; stroke-width:0.25;"/>
<line x1="88.500000" y1="96.000000" x2="92.500000" y2="96.000000"  style="stroke:black; stroke-linecap:round; stroke-width:0.25;"/>
<line x1="88.500000" y1="104.000000" x2="92.500000" y2="104.000000"  style="stroke:black; stroke-linecap:round; stroke-width:0.25;"/>
<line x1="88.500000" y1="112.000000" x2="92.500000" y2="112.000000"  style="stroke:black; stroke-linecap:round; stroke-width:0.25;"/>
<line x1="92.500000" y1="40.000000" x2="108.500000" y2="40.000000"  style="stroke:black; stroke-linecap:round; stroke-width:0.25;"/>
<line x1="92.500000" y1="88.000000" x2="92.500000" y2="40.000000"  style="stroke:black; stroke-linecap:round; stroke-width:0.25;"/>
<line x1="92.500000" y1="88.000000" x2="92.500000" y2="88.000000"  style="stroke:black; stroke-linecap:round; stroke-width:0.25;"/>
<line x1="92.500000" y1="96.000000" x2="100.500000" y2="96.000000"  style="stroke:black; stroke-linecap:round; stroke-width:0.25;"/>
<line x1="92.500000" y1="104.000000" x2="108.500000" y2="104.000000"  style="stroke:black; stroke-linecap:round; stroke-width:0.25;"/>
<line x1="92.500000" y1="112.000000" x2="100.500000" y2="112.000000"  style="stroke:black; stroke-linecap:round; stroke-width:0.25;"/>
<line x1="100.500000" y1="80.000000" x2="108.500000" y2="80.000000"  style="stroke:black; stroke-linecap:round; stroke-width:0.25;"/>
<line x1="100.500000" y1="96.000000" x2="100.500000" y2="80.000000"  style="stroke:black; stroke-linecap:round; stroke-width:0.25;"/>
<line x1="100.500000" y1="112.000000" x2="100.500000" y2="160.000000"  style="stroke:black; stroke-linecap:round; stroke-width:0.25;"/>
<line x1="100.500000" y1="160.000000" x2="108.500000" y2="160.000000"  style="stroke:black; stroke-linecap:round; stroke-width:0.25;"/>
<line x1="108.500000" y1="40.000000" x2="112.500000" y2="40.000000"  style="stroke:black; stroke-linecap:round; stroke-width:0.25;"/>
<line x1="108.500000" y1="80.000000" x2="112.500000" y2="80.000000"  style="stroke:black; stroke-linecap:round; stroke-width:0.25;"/>
<line x1="108.500000" y1="104.000000" x2="108.500000" y2="120.000000"  style="stroke:black; stroke-linecap:round; stroke-width:0.25;"/>
<line x1="108.500000" y1="120.000000" x2="108.500000" y2="120.000000"  style="stroke:black; stroke-linecap:round; stroke-width:0.25;"/>
<line x1="108.500000" y1="120.000000" x2="112.500000" y2="120.000000"  style="stroke:black; stroke-linecap:round; stroke-width:0.25;"/>
<line x1="108.500000" y1="160.000000" x2="112.500000" y2="160.000000"  style="stroke:black; stroke-linecap:round; stroke-width:0.25;"/>
<line x1="164.100000" y1="40.000000" x2="168.100000" y2="40.000000"  style="stroke:black; stroke-linecap:round; stroke-width:0.25;"/>
<line x1="164.100000" y1="80.000000" x2="168.100000" y2="80.000000"  style="stroke:black; stroke-linecap:round; stroke-width:0.25;"/>
<line x1="164.100000" y1="120.000000" x2="168.100000" y2="120.000000"  style="stroke:black; stroke-linecap:round; stroke-width:0.25;"/>
<line x1="164.100000" y1="160.000000" x2="168.100000" y2="160.000000"  style="stroke:black; stroke-linecap:round; stroke-width:0.25;"/>
<line x1="168.100000" y1="24.000000" x2="176.100000" y2="24.000000"  style="stroke:black; stroke-linecap:round; stroke-width:0.25;"/>
<line x1="168.100000" y1="40.000000" x2="168.100000" y2="24.000000"  style="stroke:black; stroke-linecap:round; stroke-width:0.25;"/>
<line x1="168.100000" y1="40.000000" x2="168.100000" y2="40.000000"  style="stroke:black; stroke-linecap:round; stroke-width:0.25;"/>
<line x1="168.100000" y1="64.000000" x2="176.100000" y2="64.000000"  style="stroke:black; stroke-linecap:round; stroke-width:0.25;"/>
<line x1="168.100000" y1="80.000000" x2="168.100000" y2="64.000000"  style="stroke:black; stroke-linecap:round; stroke-width:0.25;"/>
<line x1="168.100000" y1="80.000000" x2="168.100000" y2="80.000000"  style="stroke:black; stroke-linecap:round; stroke-width:0.25;"/>
<line x1="168.100000" y1="104.000000" x2="176.100000" y2="104.000000"  style="stroke:black; stroke-linecap:round; stroke-width:0.25;"/>
<line x1="168.100000" y1="120.000000" x2="168.100000" y2="104.000000"  style="stroke:black; stroke-linecap:round; stroke-width:0.25;"/>
<line x1="168.100000" y1="120.000000" x2="168.100000" y2="120.000000"  style="stroke:black; stroke-linecap:round; stroke-width:0.25;"/>
<line x1="168.100000" y1="144.000000" x2="176.100000" y2="144.000000"  style="stroke:black; stroke-linecap:round; stroke-width:0.25;"/>
<line x1="168.100000" y1="160.000000" x2="168.100000" y2="144.000000"  style="stroke:black; stroke-linecap:round; stroke-width:0.25;"/>
<line x1="168.100000" y1="160.000000" x2="168.100000" y2="160.000000"  style="stroke:black; stroke-linecap:round; stroke-width:0.25;"/>
<line x1="176.100000" y1="24.000000" x2="193.000000" y2="24.000000"  style="stroke:black; stroke-linecap:round; stroke-width:0.25;"/>
<line x1="176.100000" y1="64.000000" x2="193.000000" y2="64.000000"  style="stroke:black; stroke-linecap:round; stroke-width:0.25;"/>
<line x1="176.100000" y1="104.000000" x2="193.000000" y2="104.000000"  style="stroke:black; stroke-linecap:round; stroke-width:0.25;"/>
<line x1="176.100000" y1="144.000000" x2="193.000000" y2="144.000000"  style="stroke:black; stroke-linecap:round; stroke-width:0.25;"/>
<line x1="193.000000" y1="24.000000" x2="209.900000" y2="24.000000"  style="stroke:black; stroke-linecap:round; stroke-width:0.25;"/>
<line x1="193.000000" y1="64.000000" x2="209.900000" y2="64.000000"  style="stroke:black; stroke-linecap:round; stroke-width:0.25;"/>
<line x1="193.000000" y1="104.000000" x2="209.900000" y2="104.000000"  style="stroke:black; stroke-linecap:round; stroke-width:0.25;"/>
<line x1="193.000000" y1="144.000000" x2="209.900000" y2="144.000000"  style="stroke:black; stroke-linecap:round; stroke-width:0.25;"/>
<line x1="205.900000" y1="44.000000" x2="209.900000" y2="44.000000"  style="stroke:black; stroke-linecap:round; stroke-width:0.25;"/>
<line x1="205.900000" y1="84.000000" x2="209.900000" y2="84.000000"  style="stroke:black; stroke-linecap:round; stroke-width:0.25;"/>
<line x1="205.900000" y1="124.000000" x2="209.900000" y2="124.000000"  style="stroke:black; stroke-linecap:round; stroke-width:0.25;"/>
<line x1="205.900000" y1="164.000000" x2="209.900000" y2="164.000000"  style="stroke:black; stroke-linecap:round; stroke-width:0.25;"/>
<line x1="209.900000" y1="44.000000" x2="217.900000" y2="44.000000"  style="stroke:black; stroke-linecap:round; stroke-width:0.25;"/>
<line x1="209.900000" y1="84.000000" x2="217.900000" y2="84.000000"  style="stroke:black; stroke-linecap:round; stroke-width:0.25;"/>
<line x1="209.900000" y1="124.000000" x2="217.900000" y2="124.000000"  style="stroke:black; stroke-linecap:round; stroke-width:0.25;"/>
<line x1="209.900000" y1="164.000000" x2="217.900000" y2="164.000000"  style="stroke:black; stroke-linecap:round; stroke-width:0.25;"/>
<line x1="209.900000" y1="24.000000" x2="217.900000" y2="24.000000"  style="stroke:black; stroke-linecap:round; stroke-width:0.25;"/>
<line x1="209.900000" y1="64.000000" x2="217.900000" y2="64.000000"  style="stroke:black; stroke-linecap:round; stroke-width:0.25;"/>
<line x1="209.900000" y1="104.000000" x2="217.900000" y2="104.000000"  style="stroke:black; stroke-linecap:round; stroke-width:0.25;"/>
<line x1="209.900000" y1="144.000000" x2="217.900000" y2="144.000000"  style="stroke:black; stroke-linecap:round; stroke-width:0.25;"/>
<line x1="217.900000" y1="36.000000" x2="221.900000" y2="36.000000"  style="stroke:black; stroke-linecap:round; stroke-width:0.25;"/>
<line x1="217.900000" y1="44.000000" x2="221.900000" y2="44.000000"  style="stroke:black; stroke-linecap:round; stroke-width:0.25;"/>
<line x1="217.900000" y1="76.000000" x2="221.900000" y2="76.000000"  style="stroke:black; stroke-linecap:round; stroke-width:0.25;"/>
<line x1="217.900000" y1="84.000000" x2="221.900000" y2="84.000000"  style="stroke:black; stroke-linecap:round; stroke-width:0.25;"/>
<line x1="217.900000" y1="116.000000" x2="221.900000" y2="116.000000"  style="stroke:black; stroke-linecap:round; stroke-width:0.25;"/>
<line x1="217.900000" y1="124.000000" x2="221.900000" y2="124.000000"  style="stroke:black; stroke-linecap:round; stroke-width:0.25;"/>
<line x1="217.900000" y1="156.000000" x2="221.900000" y2="156.000000"  style="stroke:black; stroke-linecap:round; stroke-width:0.25;"/>
<line x1="217.900000" y1="164.000000" x2="221.900000" y2="164.000000"  style="stroke:black; stroke-linecap:round; stroke-width:0.25;"/>
<line x1="217.900000" y1="24.000000" x2="217.900000" y2="36.000000"  style="stroke:black; stroke-linecap:round; stroke-width:0.25;"/>
<line x1="217.900000" y1="36.000000" x2="217.900000" y2="36.000000"  style="stroke:black; stroke-linecap:round; stroke-width:0.25;"/>
<line x1="217.900000" y1="64.000000" x2="217.900000" y2="76.000000"  style="stroke:black; stroke-linecap:round; stroke-width:0.25;"/>
<line x1="217.900000" y1="76.000000" x2="217.900000" y2="76.000000"  style="stroke:black; stroke-linecap:round; stroke-width:0.25;"/>
<line x1="217.900000" y1="104.000000" x2="217.900000" y2="116.000000"  style="stroke:black; stroke-linecap:round; stroke-width:0.25;"/>
<line x1="217.900000" y1="116.000000" x2="217.900000" y2="116.000000"  style="stroke:black; stroke-linecap:round; stroke-width:0.25;"/>
<line x1="217.900000" y1="144.000000" x2="217.900000" y2="156.000000"  style="stroke:black; stroke-linecap:round; stroke-width:0.25;"/>
<line x1="217.900000" y1="156.000000" x2="217.900000" y2="156.000000"  style="stroke:black; stroke-linecap:round; stroke-width:0.25;"/>
<line x1="245.900000" y1="40.000000" x2="249.900000" y2="40.000000"  style="stroke:black; stroke-linecap:round; stroke-width:0.25;"/>
<line x1="245.900000" y1="80.000000" x2="249.900000" y2="80.000000"  style="stroke:black; stroke-linecap:round; stroke-width:0.25;"/>
<line x1="245.900000" y1="120.000000" x2="249.900000" y2="120.000000"  style="stroke:black; stroke-linecap:round; stroke-width:0.25;"/>
<line x1="245.900000" y1="160.000000" x2="249.900000" y2="160.000000"  style="stroke:black; stroke-linecap:round; stroke-width:0.25;"/>
<line x1="249.900000" y1="40.000000" x2="265.900000" y2="40.000000"  style="stroke:black; stroke-linecap:round; stroke-width:0.25;"/>
<line x1="249.900000" y1="80.000000" x2="257.900000" y2="80.000000"  style="stroke:black; stroke-linecap:round; stroke-width:0.25;"/>
<line x1="249.900000" y1="104.000000" x2="265.900000" y2="104.000000"  style="stroke:black; stroke-linecap:round; stroke-width:0.25;"/>
<line x1="249.900000" y1="120.000000" x2="249.900000" y2="104.000000"  style="stroke:black; stroke-linecap:round; stroke-width:0.25;"/>
<line x1="249.900000" y1="120.000000" x2="249.900000" y2="120.000000"  style="stroke:black; stroke-linecap:round; stroke-width:0.25;"/>
<line x1="249.900000" y1="160.000000" x2="257.900000" y2="160.000000"  style="stroke:black; stroke-linecap:round; stroke-width:0.25;"/>
<line x1="257.900000" y1="80.000000" x2="257.900000" y2="96.000000"  style="stroke:black; stroke-linecap:round; stroke-width:0.25;"/>
<line x1="257.900000" y1="96.000000" x2="265.900000" y2="96.000000"  style="stroke:black; stroke-linecap:round; stroke-width:0.25;"/>
<line x1="257.900000" y1="112.000000" x2="265.900000" y2="112.000000"  style="stroke:black; stroke-linecap:round; stroke-width:0.25;"/>
<line x1="257.900000" y1="160.000000" x2="257.900000" y2="112.000000"  style="stroke:black; stroke-linecap:round; stroke-width:0.25;"/>
<line x1="265.900000" y1="40.000000" x2="265.900000" y2="88.000000"  style="stroke:black; stroke-linecap:round; stroke-width:0.25;"/>
<line x1="265.900000" y1="88.000000" x2="265.900000" y2="88.000000"  style="stroke:black; stroke-linecap:round; stroke-width:0.25;"/>
<line x1="265.900000" y1="88.000000" x2="269.900000" y2="88.000000"  style="stroke:black; stroke-linecap:round; stroke-width:0.25;"/>
<line x1="265.900000" y1="96.000000" x2="269.900000" y2="96.000000"  style="stroke:black; stroke-linecap:round; stroke-width:0.25;"/>
<line x1="265.900000" y1="104.000000" x2="269.900000" y2="104.000000"  style="stroke:black; stroke-linecap:round; stroke-width:0.25;"/>
<line x1="265.900000" y1="112.000000" x2="269.900000" y2="112.000000"  style="stroke:black; stroke-linecap:round; stroke-width:0.25;"/>
<line x1="269.900000" y1="88.000000" x2="273.900000" y2="88.000000"  style="stroke:black; stroke-linecap:round; stroke-width:0.25;"/>
<line x1="269.900000" y1="96.000000" x2="273.900000" y2="96.000000"  style="stroke:black; stroke-linecap:round; stroke-width:0.25;"/>
<line x1="269.900000" y1="104.000000" x2="273.900000" y2="104.000000"  style="stroke:black; stroke-linecap:round; stroke-width:0.25;"/>
<line x1="269.900000" y1="112.000000" x2="273.900000" y2="112.000000"  style="stroke:black; stroke-linecap:round; stroke-width:0.25;"/>
<line x1="273.900000" y1="88.000000" x2="283.900000" y2="88.000000"  style="stroke:black; stroke-linecap:round; stroke-width:0.25;"/>
<line x1="273.900000" y1="96.000000" x2="283.900000" y2="96.000000"  style="stroke:black; stroke-linecap:round; stroke-width:0.25;"/>
<line x1="273.900000" y1="104.000000" x2="283.900000" y2="104.000000"  style="stroke:black; stroke-linecap:round; stroke-width:0.25;"/>
<line x1="273.900000" y1="112.000000" x2="283.900000" y2="112.000000"  style="stroke:black; stroke-linecap:round; stroke-width:0.25;"/>
</svg>
