<?xml version="1.0"?>
<svg xmlns="http://www.w3.org/2000/svg" xmlns:xlink="http://www.w3.org/1999/xlink" viewBox="0 0 609.100000 284.000000" width="304.550000mm" height="142.000000mm" version="1.1">
<a xlink:href="analysisGain-0x60000234c600.svg">
<rect x="1.000000" y="1.000000" width="608.100000" height="283.000000" rx="0" ry="0" style="stroke:none;fill:#cccccc;"/>
<rect x="0.000000" y="0.000000" width="608.100000" height="283.000000" rx="0" ry="0" style="stroke:none;fill:#ffffff;"/>
</a>
<text x="10.000000" y="7.000000" font-family="Arial" font-size="7"></text>
<rect x="33.000000" y="131.000000" width="25.800000" height="24.000000" rx="0" ry="0" style="stroke:none;fill:#cccccc;"/>
<rect x="32.000000" y="130.000000" width="25.800000" height="24.000000" rx="0" ry="0" style="stroke:none;fill:#47945E;"/>
<text x="44.900000" y="144.000000" font-family="Arial" font-size="7" text-anchor="middle" fill="#FFFFFF">[13] x</text>
<circle cx="34.000000" cy="132.000000" r="1"/>
<line x1="29.000000" y1="141.000000" x2="32.000000" y2="142.000000"  transform="rotate(0.000000,32.000000,142.000000)" style="stroke: black; stroke-width:0.25;"/>
<line x1="29.000000" y1="143.000000" x2="32.000000" y2="142.000000"  transform="rotate(0.000000,32.000000,142.000000)" style="stroke: black; stroke-width:0.25;"/>
<rect x="289.550000" y="25.000000" width="25.800000" height="24.000000" rx="0" ry="0" style="stroke:none;fill:#cccccc;"/>
<rect x="288.550000" y="24.000000" width="25.800000" height="24.000000" rx="0" ry="0" style="stroke:none;fill:#47945E;"/>
<text x="301.450000" y="38.000000" font-family="Arial" font-size="7" text-anchor="middle" fill="#FFFFFF">[13] x</text>
<circle cx="290.550000" cy="26.000000" r="1"/>
<rect x="269.550000" y="57.000000" width="25.800000" height="24.000000" rx="0" ry="0" style="stroke:none;fill:#cccccc;"/>
<rect x="268.550000" y="56.000000" width="25.800000" height="24.000000" rx="0" ry="0" style="stroke:none;fill:#f44800;"/>
<text x="281.450000" y="70.000000" font-family="Arial" font-size="7" text-anchor="middle" fill="#FFFFFF">38400</text>
<circle cx="270.550000" cy="58.000000" r="1"/>
<rect x="250.450000" y="89.000000" width="24.000000" height="24.000000" rx="0" ry="0" style="stroke:none;fill:#cccccc;"/>
<rect x="249.450000" y="88.000000" width="24.000000" height="24.000000" rx="0" ry="0" style="stroke:none;fill:#f44800;"/>
<text x="261.450000" y="102.000000" font-family="Arial" font-size="7" text-anchor="middle" fill="#FFFFFF">0</text>
<circle cx="251.450000" cy="90.000000" r="1"/>
<rect x="76.800000" y="131.000000" width="219.300000" height="24.000000" rx="0" ry="0" style="stroke:none;fill:#cccccc;"/>
<rect x="75.800000" y="130.000000" width="219.300000" height="24.000000" rx="0" ry="0" style="stroke:none;fill:#477881;"/>
<text x="185.450000" y="144.000000" font-family="Arial" font-size="7" text-anchor="middle" fill="#FFFFFF">hslider(Decorrelation, 2e+01f, 1.0f, 2e+02f, 0.1f)</text>
<circle cx="77.800000" cy="132.000000" r="1"/>
<line x1="66.800000" y1="121.000000" x2="66.800000" y2="163.000000"  style="stroke: black; stroke-linecap:round; stroke-width:0.25; stroke-dasharray:3,3;"/>
<line x1="66.800000" y1="163.000000" x2="304.100000" y2="163.000000"  style="stroke: black; stroke-linecap:round; stroke-width:0.25; stroke-dasharray:3,3;"/>
<line x1="304.100000" y1="163.000000" x2="304.100000" y2="121.000000"  style="stroke: black; stroke-linecap:round; stroke-width:0.25; stroke-dasharray:3,3;"/>
<line x1="66.800000" y1="121.000000" x2="71.800000" y2="121.000000"  style="stroke: black; stroke-linecap:round; stroke-width:0.25; stroke-dasharray:3,3;"/>
<line x1="91.150000" y1="121.000000" x2="304.100000" y2="121.000000"  style="stroke: black; stroke-linecap:round; stroke-width:0.25; stroke-dasharray:3,3;"/>
<text x="71.800000" y="123.000000" font-family="Arial" font-size="7">tab2</text>
<a xlink:href="SR-0x60000217cf00.svg">
<rect x="174.450000" y="173.000000" width="24.000000" height="24.000000" rx="0" ry="0" style="stroke:none;fill:#cccccc;"/>
<rect x="173.450000" y="172.000000" width="24.000000" height="24.000000" rx="0" ry="0" style="stroke:none;fill:#003366;"/>
</a>
<a xlink:href="SR-0x60000217cf00.svg">
<text x="185.450000" y="186.000000" font-family="Arial" font-size="7" text-anchor="middle" fill="#FFFFFF">SR</text>
</a>
<circle cx="175.450000" cy="174.000000" r="1"/>
<rect x="322.100000" y="147.000000" width="24.000000" height="24.000000" rx="0" ry="0" style="stroke:none;fill:#cccccc;"/>
<rect x="321.100000" y="146.000000" width="24.000000" height="24.000000" rx="0" ry="0" style="stroke:none;fill:#4B71A1;"/>
<text x="333.100000" y="160.000000" font-family="Arial" font-size="7" text-anchor="middle" fill="#FFFFFF">*</text>
<circle cx="323.100000" cy="148.000000" r="1"/>
<line x1="318.100000" y1="153.000000" x2="321.100000" y2="154.000000"  transform="rotate(0.000000,321.100000,154.000000)" style="stroke: black; stroke-width:0.25;"/>
<line x1="318.100000" y1="155.000000" x2="321.100000" y2="154.000000"  transform="rotate(0.000000,321.100000,154.000000)" style="stroke: black; stroke-width:0.25;"/>
<line x1="318.100000" y1="161.000000" x2="321.100000" y2="162.000000"  transform="rotate(0.000000,321.100000,162.000000)" style="stroke: black; stroke-width:0.25;"/>
<line x1="318.100000" y1="163.000000" x2="321.100000" y2="162.000000"  transform="rotate(0.000000,321.100000,162.000000)" style="stroke: black; stroke-width:0.25;"/>
<rect x="193.550000" y="205.000000" width="25.800000" height="24.000000" rx="0" ry="0" style="stroke:none;fill:#cccccc;"/>
<rect x="192.550000" y="204.000000" width="25.800000" height="24.000000" rx="0" ry="0" style="stroke:none;fill:#f44800;"/>
<text x="205.450000" y="218.000000" font-family="Arial" font-size="7" text-anchor="middle" fill="#FFFFFF">1e+03f</text>
<circle cx="194.550000" cy="206.000000" r="1"/>
<rect x="362.100000" y="163.000000" width="24.000000" height="24.000000" rx="0" ry="0" style="stroke:none;fill:#cccccc;"/>
<rect x="361.100000" y="162.000000" width="24.000000" height="24.000000" rx="0" ry="0" style="stroke:none;fill:#4B71A1;"/>
<text x="373.100000" y="176.000000" font-family="Arial" font-size="7" text-anchor="middle" fill="#FFFFFF">/</text>
<circle cx="363.100000" cy="164.000000" r="1"/>
<line x1="358.100000" y1="169.000000" x2="361.100000" y2="170.000000"  transform="rotate(0.000000,361.100000,170.000000)" style="stroke: black; stroke-width:0.25;"/>
<line x1="358.100000" y1="171.000000" x2="361.100000" y2="170.000000"  transform="rotate(0.000000,361.100000,170.000000)" style="stroke: black; stroke-width:0.25;"/>
<line x1="358.100000" y1="177.000000" x2="361.100000" y2="178.000000"  transform="rotate(0.000000,361.100000,178.000000)" style="stroke: black; stroke-width:0.25;"/>
<line x1="358.100000" y1="179.000000" x2="361.100000" y2="178.000000"  transform="rotate(0.000000,361.100000,178.000000)" style="stroke: black; stroke-width:0.25;"/>
<rect x="213.550000" y="237.000000" width="25.800000" height="24.000000" rx="0" ry="0" style="stroke:none;fill:#cccccc;"/>
<rect x="212.550000" y="236.000000" width="25.800000" height="24.000000" rx="0" ry="0" style="stroke:none;fill:#f44800;"/>
<text x="225.450000" y="250.000000" font-family="Arial" font-size="7" text-anchor="middle" fill="#FFFFFF">0.5f</text>
<circle cx="214.550000" cy="238.000000" r="1"/>
<rect x="402.100000" y="179.000000" width="24.000000" height="24.000000" rx="0" ry="0" style="stroke:none;fill:#cccccc;"/>
<rect x="401.100000" y="178.000000" width="24.000000" height="24.000000" rx="0" ry="0" style="stroke:none;fill:#4B71A1;"/>
<text x="413.100000" y="192.000000" font-family="Arial" font-size="7" text-anchor="middle" fill="#FFFFFF">+</text>
<circle cx="403.100000" cy="180.000000" r="1"/>
<line x1="398.100000" y1="185.000000" x2="401.100000" y2="186.000000"  transform="rotate(0.000000,401.100000,186.000000)" style="stroke: black; stroke-width:0.25;"/>
<line x1="398.100000" y1="187.000000" x2="401.100000" y2="186.000000"  transform="rotate(0.000000,401.100000,186.000000)" style="stroke: black; stroke-width:0.25;"/>
<line x1="398.100000" y1="193.000000" x2="401.100000" y2="194.000000"  transform="rotate(0.000000,401.100000,194.000000)" style="stroke: black; stroke-width:0.25;"/>
<line x1="398.100000" y1="195.000000" x2="401.100000" y2="194.000000"  transform="rotate(0.000000,401.100000,194.000000)" style="stroke: black; stroke-width:0.25;"/>
<rect x="434.100000" y="179.000000" width="24.000000" height="24.000000" rx="0" ry="0" style="stroke:none;fill:#cccccc;"/>
<rect x="433.100000" y="178.000000" width="24.000000" height="24.000000" rx="0" ry="0" style="stroke:none;fill:#4B71A1;"/>
<text x="445.100000" y="192.000000" font-family="Arial" font-size="7" text-anchor="middle" fill="#FFFFFF">int</text>
<circle cx="435.100000" cy="180.000000" r="1"/>
<line x1="430.100000" y1="189.000000" x2="433.100000" y2="190.000000"  transform="rotate(0.000000,433.100000,190.000000)" style="stroke: black; stroke-width:0.25;"/>
<line x1="430.100000" y1="191.000000" x2="433.100000" y2="190.000000"  transform="rotate(0.000000,433.100000,190.000000)" style="stroke: black; stroke-width:0.25;"/>
<rect x="474.100000" y="163.000000" width="24.000000" height="24.000000" rx="0" ry="0" style="stroke:none;fill:#cccccc;"/>
<rect x="473.100000" y="162.000000" width="24.000000" height="24.000000" rx="0" ry="0" style="stroke:none;fill:#4B71A1;"/>
<text x="485.100000" y="176.000000" font-family="Arial" font-size="7" text-anchor="middle" fill="#FFFFFF">max</text>
<circle cx="475.100000" cy="164.000000" r="1"/>
<line x1="470.100000" y1="169.000000" x2="473.100000" y2="170.000000"  transform="rotate(0.000000,473.100000,170.000000)" style="stroke: black; stroke-width:0.25;"/>
<line x1="470.100000" y1="171.000000" x2="473.100000" y2="170.000000"  transform="rotate(0.000000,473.100000,170.000000)" style="stroke: black; stroke-width:0.25;"/>
<line x1="470.100000" y1="177.000000" x2="473.100000" y2="178.000000"  transform="rotate(0.000000,473.100000,178.000000)" style="stroke: black; stroke-width:0.25;"/>
<line x1="470.100000" y1="179.000000" x2="473.100000" y2="178.000000"  transform="rotate(0.000000,473.100000,178.000000)" style="stroke: black; stroke-width:0.25;"/>
<rect x="514.100000" y="147.000000" width="24.000000" height="24.000000" rx="0" ry="0" style="stroke:none;fill:#cccccc;"/>
<rect x="513.100000" y="146.000000" width="24.000000" height="24.000000" rx="0" ry="0" style="stroke:none;fill:#4B71A1;"/>
<text x="525.100000" y="160.000000" font-family="Arial" font-size="7" text-anchor="middle" fill="#FFFFFF">min</text>
<circle cx="515.100000" cy="148.000000" r="1"/>
<line x1="510.100000" y1="153.000000" x2="513.100000" y2="154.000000"  transform="rotate(0.000000,513.100000,154.000000)" style="stroke: black; stroke-width:0.25;"/>
<line x1="510.100000" y1="155.000000" x2="513.100000" y2="154.000000"  transform="rotate(0.000000,513.100000,154.000000)" style="stroke: black; stroke-width:0.25;"/>
<line x1="510.100000" y1="161.000000" x2="513.100000" y2="162.000000"  transform="rotate(0.000000,513.100000,162.000000)" style="stroke: black; stroke-width:0.25;"/>
<line x1="510.100000" y1="163.000000" x2="513.100000" y2="162.000000"  transform="rotate(0.000000,513.100000,162.000000)" style="stroke: black; stroke-width:0.25;"/>
<rect x="554.100000" y="131.000000" width="24.000000" height="24.000000" rx="0" ry="0" style="stroke:none;fill:#cccccc;"/>
<rect x="553.100000" y="130.000000" width="24.000000" height="24.000000" rx="0" ry="0" style="stroke:none;fill:#4B71A1;"/>
<text x="565.100000" y="144.000000" font-family="Arial" font-size="7" text-anchor="middle" fill="#FFFFFF">@</text>
<circle cx="555.100000" cy="132.000000" r="1"/>
<line x1="550.100000" y1="137.000000" x2="553.100000" y2="138.000000"  transform="rotate(0.000000,553.100000,138.000000)" style="stroke: black; stroke-width:0.25;"/>
<line x1="550.100000" y1="139.000000" x2="553.100000" y2="138.000000"  transform="rotate(0.000000,553.100000,138.000000)" style="stroke: black; stroke-width:0.25;"/>
<line x1="550.100000" y1="145.000000" x2="553.100000" y2="146.000000"  transform="rotate(0.000000,553.100000,146.000000)" style="stroke: black; stroke-width:0.25;"/>
<line x1="550.100000" y1="147.000000" x2="553.100000" y2="146.000000"  transform="rotate(0.000000,553.100000,146.000000)" style="stroke: black; stroke-width:0.25;"/>
<line x1="15.000000" y1="15.000000" x2="15.000000" y2="269.000000"  style="stroke: black; stroke-linecap:round; stroke-width:0.25; stroke-dasharray:3,3;"/>
<line x1="15.000000" y1="269.000000" x2="594.100000" y2="269.000000"  style="stroke: black; stroke-linecap:round; stroke-width:0.25; stroke-dasharray:3,3;"/>
<line x1="594.100000" y1="269.000000" x2="594.100000" y2="15.000000"  style="stroke: black; stroke-linecap:round; stroke-width:0.25; stroke-dasharray:3,3;"/>
<line x1="15.000000" y1="15.000000" x2="20.000000" y2="15.000000"  style="stroke: black; stroke-linecap:round; stroke-width:0.25; stroke-dasharray:3,3;"/>
<line x1="119.975000" y1="15.000000" x2="594.100000" y2="15.000000"  style="stroke: black; stroke-linecap:round; stroke-width:0.25; stroke-dasharray:3,3;"/>
<text x="20.000000" y="17.000000" font-family="Arial" font-size="7">delms(hslider...e+02f, 0.1f))</text>
<line x1="596.100000" y1="141.000000" x2="599.100000" y2="142.000000"  transform="rotate(0.000000,599.100000,142.000000)" style="stroke: black; stroke-width:0.25;"/>
<line x1="596.100000" y1="143.000000" x2="599.100000" y2="142.000000"  transform="rotate(0.000000,599.100000,142.000000)" style="stroke: black; stroke-width:0.25;"/>
<line x1="10.000000" y1="142.000000" x2="20.000000" y2="142.000000"  style="stroke:black; stroke-linecap:round; stroke-width:0.25;"/>
<line x1="20.000000" y1="142.000000" x2="24.000000" y2="142.000000"  style="stroke:black; stroke-linecap:round; stroke-width:0.25;"/>
<line x1="24.000000" y1="142.000000" x2="28.000000" y2="142.000000"  style="stroke:black; stroke-linecap:round; stroke-width:0.25;"/>
<line x1="28.000000" y1="142.000000" x2="28.000000" y2="142.000000"  style="stroke:black; stroke-linecap:round; stroke-width:0.25;"/>
<line x1="28.000000" y1="142.000000" x2="32.000000" y2="142.000000"  style="stroke:black; stroke-linecap:round; stroke-width:0.25;"/>
<line x1="197.450000" y1="184.000000" x2="201.450000" y2="184.000000"  style="stroke:black; stroke-linecap:round; stroke-width:0.25;"/>
<line x1="201.450000" y1="184.000000" x2="309.100000" y2="184.000000"  style="stroke:black; stroke-linecap:round; stroke-width:0.25;"/>
<line x1="218.350000" y1="216.000000" x2="222.350000" y2="216.000000"  style="stroke:black; stroke-linecap:round; stroke-width:0.25;"/>
<line x1="222.350000" y1="216.000000" x2="349.100000" y2="216.000000"  style="stroke:black; stroke-linecap:round; stroke-width:0.25;"/>
<line x1="238.350000" y1="248.000000" x2="242.350000" y2="248.000000"  style="stroke:black; stroke-linecap:round; stroke-width:0.25;"/>
<line x1="242.350000" y1="248.000000" x2="389.100000" y2="248.000000"  style="stroke:black; stroke-linecap:round; stroke-width:0.25;"/>
<line x1="273.450000" y1="100.000000" x2="277.450000" y2="100.000000"  style="stroke:black; stroke-linecap:round; stroke-width:0.25;"/>
<line x1="277.450000" y1="100.000000" x2="461.100000" y2="100.000000"  style="stroke:black; stroke-linecap:round; stroke-width:0.25;"/>
<line x1="294.350000" y1="68.000000" x2="298.350000" y2="68.000000"  style="stroke:black; stroke-linecap:round; stroke-width:0.25;"/>
<line x1="295.100000" y1="142.000000" x2="299.100000" y2="142.000000"  style="stroke:black; stroke-linecap:round; stroke-width:0.25;"/>
<line x1="298.350000" y1="68.000000" x2="501.100000" y2="68.000000"  style="stroke:black; stroke-linecap:round; stroke-width:0.25;"/>
<line x1="299.100000" y1="142.000000" x2="309.100000" y2="142.000000"  style="stroke:black; stroke-linecap:round; stroke-width:0.25;"/>
<line x1="309.100000" y1="142.000000" x2="317.100000" y2="142.000000"  style="stroke:black; stroke-linecap:round; stroke-width:0.25;"/>
<line x1="309.100000" y1="162.000000" x2="317.100000" y2="162.000000"  style="stroke:black; stroke-linecap:round; stroke-width:0.25;"/>
<line x1="309.100000" y1="184.000000" x2="309.100000" y2="162.000000"  style="stroke:black; stroke-linecap:round; stroke-width:0.25;"/>
<line x1="309.100000" y1="184.000000" x2="309.100000" y2="184.000000"  style="stroke:black; stroke-linecap:round; stroke-width:0.25;"/>
<line x1="314.350000" y1="36.000000" x2="318.350000" y2="36.000000"  style="stroke:black; stroke-linecap:round; stroke-width:0.25;"/>
<line x1="317.100000" y1="142.000000" x2="317.100000" y2="154.000000"  style="stroke:black; stroke-linecap:round; stroke-width:0.25;"/>
<line x1="317.100000" y1="154.000000" x2="317.100000" y2="154.000000"  style="stroke:black; stroke-linecap:round; stroke-width:0.25;"/>
<line x1="317.100000" y1="154.000000" x2="321.100000" y2="154.000000"  style="stroke:black; stroke-linecap:round; stroke-width:0.25;"/>
<line x1="317.100000" y1="162.000000" x2="321.100000" y2="162.000000"  style="stroke:black; stroke-linecap:round; stroke-width:0.25;"/>
<line x1="318.350000" y1="36.000000" x2="541.100000" y2="36.000000"  style="stroke:black; stroke-linecap:round; stroke-width:0.25;"/>
<line x1="345.100000" y1="158.000000" x2="349.100000" y2="158.000000"  style="stroke:black; stroke-linecap:round; stroke-width:0.25;"/>
<line x1="349.100000" y1="178.000000" x2="357.100000" y2="178.000000"  style="stroke:black; stroke-linecap:round; stroke-width:0.25;"/>
<line x1="349.100000" y1="216.000000" x2="349.100000" y2="178.000000"  style="stroke:black; stroke-linecap:round; stroke-width:0.25;"/>
<line x1="349.100000" y1="216.000000" x2="349.100000" y2="216.000000"  style="stroke:black; stroke-linecap:round; stroke-width:0.25;"/>
<line x1="349.100000" y1="158.000000" x2="357.100000" y2="158.000000"  style="stroke:black; stroke-linecap:round; stroke-width:0.25;"/>
<line x1="357.100000" y1="158.000000" x2="357.100000" y2="170.000000"  style="stroke:black; stroke-linecap:round; stroke-width:0.25;"/>
<line x1="357.100000" y1="170.000000" x2="357.100000" y2="170.000000"  style="stroke:black; stroke-linecap:round; stroke-width:0.25;"/>
<line x1="357.100000" y1="170.000000" x2="361.100000" y2="170.000000"  style="stroke:black; stroke-linecap:round; stroke-width:0.25;"/>
<line x1="357.100000" y1="178.000000" x2="361.100000" y2="178.000000"  style="stroke:black; stroke-linecap:round; stroke-width:0.25;"/>
<line x1="385.100000" y1="174.000000" x2="389.100000" y2="174.000000"  style="stroke:black; stroke-linecap:round; stroke-width:0.25;"/>
<line x1="389.100000" y1="194.000000" x2="397.100000" y2="194.000000"  style="stroke:black; stroke-linecap:round; stroke-width:0.25;"/>
<line x1="389.100000" y1="248.000000" x2="389.100000" y2="194.000000"  style="stroke:black; stroke-linecap:round; stroke-width:0.25;"/>
<line x1="389.100000" y1="248.000000" x2="389.100000" y2="248.000000"  style="stroke:black; stroke-linecap:round; stroke-width:0.25;"/>
<line x1="389.100000" y1="174.000000" x2="397.100000" y2="174.000000"  style="stroke:black; stroke-linecap:round; stroke-width:0.25;"/>
<line x1="397.100000" y1="174.000000" x2="397.100000" y2="186.000000"  style="stroke:black; stroke-linecap:round; stroke-width:0.25;"/>
<line x1="397.100000" y1="186.000000" x2="397.100000" y2="186.000000"  style="stroke:black; stroke-linecap:round; stroke-width:0.25;"/>
<line x1="397.100000" y1="186.000000" x2="401.100000" y2="186.000000"  style="stroke:black; stroke-linecap:round; stroke-width:0.25;"/>
<line x1="397.100000" y1="194.000000" x2="401.100000" y2="194.000000"  style="stroke:black; stroke-linecap:round; stroke-width:0.25;"/>
<line x1="425.100000" y1="190.000000" x2="429.100000" y2="190.000000"  style="stroke:black; stroke-linecap:round; stroke-width:0.25;"/>
<line x1="429.100000" y1="190.000000" x2="429.100000" y2="190.000000"  style="stroke:black; stroke-linecap:round; stroke-width:0.25;"/>
<line x1="429.100000" y1="190.000000" x2="433.100000" y2="190.000000"  style="stroke:black; stroke-linecap:round; stroke-width:0.25;"/>
<line x1="457.100000" y1="190.000000" x2="461.100000" y2="190.000000"  style="stroke:black; stroke-linecap:round; stroke-width:0.25;"/>
<line x1="461.100000" y1="100.000000" x2="469.100000" y2="100.000000"  style="stroke:black; stroke-linecap:round; stroke-width:0.25;"/>
<line x1="461.100000" y1="178.000000" x2="469.100000" y2="178.000000"  style="stroke:black; stroke-linecap:round; stroke-width:0.25;"/>
<line x1="461.100000" y1="190.000000" x2="461.100000" y2="178.000000"  style="stroke:black; stroke-linecap:round; stroke-width:0.25;"/>
<line x1="461.100000" y1="190.000000" x2="461.100000" y2="190.000000"  style="stroke:black; stroke-linecap:round; stroke-width:0.25;"/>
<line x1="469.100000" y1="100.000000" x2="469.100000" y2="170.000000"  style="stroke:black; stroke-linecap:round; stroke-width:0.25;"/>
<line x1="469.100000" y1="170.000000" x2="469.100000" y2="170.000000"  style="stroke:black; stroke-linecap:round; stroke-width:0.25;"/>
<line x1="469.100000" y1="170.000000" x2="473.100000" y2="170.000000"  style="stroke:black; stroke-linecap:round; stroke-width:0.25;"/>
<line x1="469.100000" y1="178.000000" x2="473.100000" y2="178.000000"  style="stroke:black; stroke-linecap:round; stroke-width:0.25;"/>
<line x1="497.100000" y1="174.000000" x2="501.100000" y2="174.000000"  style="stroke:black; stroke-linecap:round; stroke-width:0.25;"/>
<line x1="501.100000" y1="68.000000" x2="509.100000" y2="68.000000"  style="stroke:black; stroke-linecap:round; stroke-width:0.25;"/>
<line x1="501.100000" y1="162.000000" x2="509.100000" y2="162.000000"  style="stroke:black; stroke-linecap:round; stroke-width:0.25;"/>
<line x1="501.100000" y1="174.000000" x2="501.100000" y2="162.000000"  style="stroke:black; stroke-linecap:round; stroke-width:0.25;"/>
<line x1="501.100000" y1="174.000000" x2="501.100000" y2="174.000000"  style="stroke:black; stroke-linecap:round; stroke-width:0.25;"/>
<line x1="509.100000" y1="68.000000" x2="509.100000" y2="154.000000"  style="stroke:black; stroke-linecap:round; stroke-width:0.25;"/>
<line x1="509.100000" y1="154.000000" x2="509.100000" y2="154.000000"  style="stroke:black; stroke-linecap:round; stroke-width:0.25;"/>
<line x1="509.100000" y1="154.000000" x2="513.100000" y2="154.000000"  style="stroke:black; stroke-linecap:round; stroke-width:0.25;"/>
<line x1="509.100000" y1="162.000000" x2="513.100000" y2="162.000000"  style="stroke:black; stroke-linecap:round; stroke-width:0.25;"/>
<line x1="537.100000" y1="158.000000" x2="541.100000" y2="158.000000"  style="stroke:black; stroke-linecap:round; stroke-width:0.25;"/>
<line x1="541.100000" y1="36.000000" x2="549.100000" y2="36.000000"  style="stroke:black; stroke-linecap:round; stroke-width:0.25;"/>
<line x1="541.100000" y1="146.000000" x2="549.100000" y2="146.000000"  style="stroke:black; stroke-linecap:round; stroke-width:0.25;"/>
<line x1="541.100000" y1="158.000000" x2="541.100000" y2="146.000000"  style="stroke:black; stroke-linecap:round; stroke-width:0.25;"/>
<line x1="541.100000" y1="158.000000" x2="541.100000" y2="158.000000"  style="stroke:black; stroke-linecap:round; stroke-width:0.25;"/>
<line x1="549.100000" y1="36.000000" x2="549.100000" y2="138.000000"  style="stroke:black; stroke-linecap:round; stroke-width:0.25;"/>
<line x1="549.100000" y1="138.000000" x2="549.100000" y2="138.000000"  style="stroke:black; stroke-linecap:round; stroke-width:0.25;"/>
<line x1="549.100000" y1="138.000000" x2="553.100000" y2="138.000000"  style="stroke:black; stroke-linecap:round; stroke-width:0.25;"/>
<line x1="549.100000" y1="146.000000" x2="553.100000" y2="146.000000"  style="stroke:black; stroke-linecap:round; stroke-width:0.25;"/>
<line x1="577.100000" y1="142.000000" x2="581.100000" y2="142.000000"  style="stroke:black; stroke-linecap:round; stroke-width:0.25;"/>
<line x1="581.100000" y1="142.000000" x2="581.100000" y2="142.000000"  style="stroke:black; stroke-linecap:round; stroke-width:0.25;"/>
<line x1="581.100000" y1="142.000000" x2="585.100000" y2="142.000000"  style="stroke:black; stroke-linecap:round; stroke-width:0.25;"/>
<line x1="585.100000" y1="142.000000" x2="589.100000" y2="142.000000"  style="stroke:black; stroke-linecap:round; stroke-width:0.25;"/>
<line x1="589.100000" y1="142.000000" x2="599.100000" y2="142.000000"  style="stroke:black; stroke-linecap:round; stroke-width:0.25;"/>
</svg>
