<?xml version="1.0"?>
<svg xmlns="http://www.w3.org/2000/svg" xmlns:xlink="http://www.w3.org/1999/xlink" viewBox="0 0 240.100000 124.000000" width="120.050000mm" height="62.000000mm" version="1.1">
<a xlink:href="analysisGain-0x60000234c600.svg">
<rect x="1.000000" y="1.000000" width="239.100000" height="123.000000" rx="0" ry="0" style="stroke:none;fill:#cccccc;"/>
<rect x="0.000000" y="0.000000" width="239.100000" height="123.000000" rx="0" ry="0" style="stroke:none;fill:#ffffff;"/>
</a>
<text x="10.000000" y="7.000000" font-family="Arial" font-size="7"></text>
<rect x="84.150000" y="25.000000" width="25.800000" height="24.000000" rx="0" ry="0" style="stroke:none;fill:#cccccc;"/>
<rect x="83.150000" y="24.000000" width="25.800000" height="24.000000" rx="0" ry="0" style="stroke:none;fill:#47945E;"/>
<text x="96.050000" y="38.000000" font-family="Arial" font-size="7" text-anchor="middle" fill="#FFFFFF">[1] x</text>
<circle cx="85.150000" cy="26.000000" r="1"/>
<rect x="35.000000" y="67.000000" width="64.500000" height="24.000000" rx="0" ry="0" style="stroke:none;fill:#cccccc;"/>
<rect x="34.000000" y="66.000000" width="64.500000" height="24.000000" rx="0" ry="0" style="stroke:none;fill:#477881;"/>
<text x="66.250000" y="80.000000" font-family="Arial" font-size="7" text-anchor="middle" fill="#FFFFFF">checkbox(Power)</text>
<circle cx="36.000000" cy="68.000000" r="1"/>
<line x1="25.000000" y1="57.000000" x2="25.000000" y2="99.000000"  style="stroke: black; stroke-linecap:round; stroke-width:0.25; stroke-dasharray:3,3;"/>
<line x1="25.000000" y1="99.000000" x2="107.500000" y2="99.000000"  style="stroke: black; stroke-linecap:round; stroke-width:0.25; stroke-dasharray:3,3;"/>
<line x1="107.500000" y1="99.000000" x2="107.500000" y2="57.000000"  style="stroke: black; stroke-linecap:round; stroke-width:0.25; stroke-dasharray:3,3;"/>
<line x1="25.000000" y1="57.000000" x2="30.000000" y2="57.000000"  style="stroke: black; stroke-linecap:round; stroke-width:0.25; stroke-dasharray:3,3;"/>
<line x1="49.350000" y1="57.000000" x2="107.500000" y2="57.000000"  style="stroke: black; stroke-linecap:round; stroke-width:0.25; stroke-dasharray:3,3;"/>
<text x="30.000000" y="59.000000" font-family="Arial" font-size="7">gate</text>
<a xlink:href="line-0x6000023afe80.svg">
<rect x="117.500000" y="67.000000" width="51.600000" height="24.000000" rx="0" ry="0" style="stroke:none;fill:#cccccc;"/>
<rect x="116.500000" y="66.000000" width="51.600000" height="24.000000" rx="0" ry="0" style="stroke:none;fill:#003366;"/>
</a>
<a xlink:href="line-0x6000023afe80.svg">
<text x="142.300000" y="80.000000" font-family="Arial" font-size="7" text-anchor="middle" fill="#FFFFFF">line(2e+03f)</text>
</a>
<circle cx="118.500000" cy="68.000000" r="1"/>
<line x1="113.500000" y1="77.000000" x2="116.500000" y2="78.000000"  transform="rotate(0.000000,116.500000,78.000000)" style="stroke: black; stroke-width:0.25;"/>
<line x1="113.500000" y1="79.000000" x2="116.500000" y2="78.000000"  transform="rotate(0.000000,116.500000,78.000000)" style="stroke: black; stroke-width:0.25;"/>
<rect x="185.100000" y="51.000000" width="24.000000" height="24.000000" rx="0" ry="0" style="stroke:none;fill:#cccccc;"/>
<rect x="184.100000" y="50.000000" width="24.000000" height="24.000000" rx="0" ry="0" style="stroke:none;fill:#4B71A1;"/>
<text x="196.100000" y="64.000000" font-family="Arial" font-size="7" text-anchor="middle" fill="#FFFFFF">*</text>
<circle cx="186.100000" cy="52.000000" r="1"/>
<line x1="181.100000" y1="57.000000" x2="184.100000" y2="58.000000"  transform="rotate(0.000000,184.100000,58.000000)" style="stroke: black; stroke-width:0.25;"/>
<line x1="181.100000" y1="59.000000" x2="184.100000" y2="58.000000"  transform="rotate(0.000000,184.100000,58.000000)" style="stroke: black; stroke-width:0.25;"/>
<line x1="181.100000" y1="65.000000" x2="184.100000" y2="66.000000"  transform="rotate(0.000000,184.100000,66.000000)" style="stroke: black; stroke-width:0.25;"/>
<line x1="181.100000" y1="67.000000" x2="184.100000" y2="66.000000"  transform="rotate(0.000000,184.100000,66.000000)" style="stroke: black; stroke-width:0.25;"/>
<line x1="15.000000" y1="15.000000" x2="15.000000" y2="109.000000"  style="stroke: black; stroke-linecap:round; stroke-width:0.25; stroke-dasharray:3,3;"/>
<line x1="15.000000" y1="109.000000" x2="225.100000" y2="109.000000"  style="stroke: black; stroke-linecap:round; stroke-width:0.25; stroke-dasharray:3,3;"/>
<line x1="225.100000" y1="109.000000" x2="225.100000" y2="15.000000"  style="stroke: black; stroke-linecap:round; stroke-width:0.25; stroke-dasharray:3,3;"/>
<line x1="15.000000" y1="15.000000" x2="20.000000" y2="15.000000"  style="stroke: black; stroke-linecap:round; stroke-width:0.25; stroke-dasharray:3,3;"/>
<line x1="32.900000" y1="15.000000" x2="225.100000" y2="15.000000"  style="stroke: black; stroke-linecap:round; stroke-width:0.25; stroke-dasharray:3,3;"/>
<text x="20.000000" y="17.000000" font-family="Arial" font-size="7">fx</text>
<line x1="227.100000" y1="61.000000" x2="230.100000" y2="62.000000"  transform="rotate(0.000000,230.100000,62.000000)" style="stroke: black; stroke-width:0.25;"/>
<line x1="227.100000" y1="63.000000" x2="230.100000" y2="62.000000"  transform="rotate(0.000000,230.100000,62.000000)" style="stroke: black; stroke-width:0.25;"/>
<line x1="98.500000" y1="78.000000" x2="102.500000" y2="78.000000"  style="stroke:black; stroke-linecap:round; stroke-width:0.25;"/>
<line x1="102.500000" y1="78.000000" x2="112.500000" y2="78.000000"  style="stroke:black; stroke-linecap:round; stroke-width:0.25;"/>
<line x1="108.950000" y1="36.000000" x2="112.950000" y2="36.000000"  style="stroke:black; stroke-linecap:round; stroke-width:0.25;"/>
<line x1="112.500000" y1="78.000000" x2="112.500000" y2="78.000000"  style="stroke:black; stroke-linecap:round; stroke-width:0.25;"/>
<line x1="112.500000" y1="78.000000" x2="116.500000" y2="78.000000"  style="stroke:black; stroke-linecap:round; stroke-width:0.25;"/>
<line x1="112.950000" y1="36.000000" x2="172.100000" y2="36.000000"  style="stroke:black; stroke-linecap:round; stroke-width:0.25;"/>
<line x1="168.100000" y1="78.000000" x2="172.100000" y2="78.000000"  style="stroke:black; stroke-linecap:round; stroke-width:0.25;"/>
<line x1="172.100000" y1="36.000000" x2="180.100000" y2="36.000000"  style="stroke:black; stroke-linecap:round; stroke-width:0.25;"/>
<line x1="172.100000" y1="66.000000" x2="180.100000" y2="66.000000"  style="stroke:black; stroke-linecap:round; stroke-width:0.25;"/>
<line x1="172.100000" y1="78.000000" x2="172.100000" y2="66.000000"  style="stroke:black; stroke-linecap:round; stroke-width:0.25;"/>
<line x1="172.100000" y1="78.000000" x2="172.100000" y2="78.000000"  style="stroke:black; stroke-linecap:round; stroke-width:0.25;"/>
<line x1="180.100000" y1="36.000000" x2="180.100000" y2="58.000000"  style="stroke:black; stroke-linecap:round; stroke-width:0.25;"/>
<line x1="180.100000" y1="58.000000" x2="180.100000" y2="58.000000"  style="stroke:black; stroke-linecap:round; stroke-width:0.25;"/>
<line x1="180.100000" y1="58.000000" x2="184.100000" y2="58.000000"  style="stroke:black; stroke-linecap:round; stroke-width:0.25;"/>
<line x1="180.100000" y1="66.000000" x2="184.100000" y2="66.000000"  style="stroke:black; stroke-linecap:round; stroke-width:0.25;"/>
<line x1="208.100000" y1="62.000000" x2="212.100000" y2="62.000000"  style="stroke:black; stroke-linecap:round; stroke-width:0.25;"/>
<line x1="212.100000" y1="62.000000" x2="212.100000" y2="62.000000"  style="stroke:black; stroke-linecap:round; stroke-width:0.25;"/>
<line x1="212.100000" y1="62.000000" x2="216.100000" y2="62.000000"  style="stroke:black; stroke-linecap:round; stroke-width:0.25;"/>
<line x1="216.100000" y1="62.000000" x2="220.100000" y2="62.000000"  style="stroke:black; stroke-linecap:round; stroke-width:0.25;"/>
<line x1="220.100000" y1="62.000000" x2="230.100000" y2="62.000000"  style="stroke:black; stroke-linecap:round; stroke-width:0.25;"/>
</svg>
