<?xml version="1.0"?>
<svg xmlns="http://www.w3.org/2000/svg" xmlns:xlink="http://www.w3.org/1999/xlink" viewBox="0 0 239.600000 272.000000" width="119.800000mm" height="136.000000mm" version="1.1">
<rect x="1.000000" y="1.000000" width="238.600000" height="271.000000" rx="0" ry="0" style="stroke:none;fill:#cccccc;"/>
<rect x="0.000000" y="0.000000" width="238.600000" height="271.000000" rx="0" ry="0" style="stroke:none;fill:#ffffff;"/>
<text x="10.000000" y="7.000000" font-family="Arial" font-size="7"></text>
<rect x="41.000000" y="109.000000" width="25.800000" height="24.000000" rx="0" ry="0" style="stroke:none;fill:#cccccc;"/>
<rect x="40.000000" y="108.000000" width="25.800000" height="24.000000" rx="0" ry="0" style="stroke:none;fill:#47945E;"/>
<text x="52.900000" y="122.000000" font-family="Arial" font-size="7" text-anchor="middle" fill="#FFFFFF">[1] x</text>
<circle cx="42.000000" cy="110.000000" r="1"/>
<line x1="37.000000" y1="119.000000" x2="40.000000" y2="120.000000"  transform="rotate(0.000000,40.000000,120.000000)" style="stroke: black; stroke-width:0.25;"/>
<line x1="37.000000" y1="121.000000" x2="40.000000" y2="120.000000"  transform="rotate(0.000000,40.000000,120.000000)" style="stroke: black; stroke-width:0.25;"/>
<rect x="41.000000" y="141.000000" width="25.800000" height="24.000000" rx="0" ry="0" style="stroke:none;fill:#cccccc;"/>
<rect x="40.000000" y="140.000000" width="25.800000" height="24.000000" rx="0" ry="0" style="stroke:none;fill:#47945E;"/>
<text x="52.900000" y="154.000000" font-family="Arial" font-size="7" text-anchor="middle" fill="#FFFFFF">[2] y</text>
<circle cx="42.000000" cy="142.000000" r="1"/>
<line x1="37.000000" y1="151.000000" x2="40.000000" y2="152.000000"  transform="rotate(0.000000,40.000000,152.000000)" style="stroke: black; stroke-width:0.25;"/>
<line x1="37.000000" y1="153.000000" x2="40.000000" y2="152.000000"  transform="rotate(0.000000,40.000000,152.000000)" style="stroke: black; stroke-width:0.25;"/>
<rect x="84.800000" y="35.000000" width="25.800000" height="24.000000" rx="0" ry="0" style="stroke:none;fill:#cccccc;"/>
<rect x="83.800000" y="34.000000" width="25.800000" height="24.000000" rx="0" ry="0" style="stroke:none;fill:#47945E;"/>
<text x="96.700000" y="48.000000" font-family="Arial" font-size="7" text-anchor="middle" fill="#FFFFFF">[1] x</text>
<circle cx="85.800000" cy="36.000000" r="1"/>
<rect x="84.800000" y="67.000000" width="25.800000" height="24.000000" rx="0" ry="0" style="stroke:none;fill:#cccccc;"/>
<rect x="83.800000" y="66.000000" width="25.800000" height="24.000000" rx="0" ry="0" style="stroke:none;fill:#47945E;"/>
<text x="96.700000" y="80.000000" font-family="Arial" font-size="7" text-anchor="middle" fill="#FFFFFF">[2] y</text>
<circle cx="85.800000" cy="68.000000" r="1"/>
<rect x="126.600000" y="51.000000" width="24.000000" height="24.000000" rx="0" ry="0" style="stroke:none;fill:#cccccc;"/>
<rect x="125.600000" y="50.000000" width="24.000000" height="24.000000" rx="0" ry="0" style="stroke:none;fill:#4B71A1;"/>
<text x="137.600000" y="64.000000" font-family="Arial" font-size="7" text-anchor="middle" fill="#FFFFFF">+</text>
<circle cx="127.600000" cy="52.000000" r="1"/>
<line x1="122.600000" y1="57.000000" x2="125.600000" y2="58.000000"  transform="rotate(0.000000,125.600000,58.000000)" style="stroke: black; stroke-width:0.25;"/>
<line x1="122.600000" y1="59.000000" x2="125.600000" y2="58.000000"  transform="rotate(0.000000,125.600000,58.000000)" style="stroke: black; stroke-width:0.25;"/>
<line x1="122.600000" y1="65.000000" x2="125.600000" y2="66.000000"  transform="rotate(0.000000,125.600000,66.000000)" style="stroke: black; stroke-width:0.25;"/>
<line x1="122.600000" y1="67.000000" x2="125.600000" y2="66.000000"  transform="rotate(0.000000,125.600000,66.000000)" style="stroke: black; stroke-width:0.25;"/>
<rect x="88.800000" y="99.000000" width="24.000000" height="24.000000" rx="0" ry="0" style="stroke:none;fill:#cccccc;"/>
<rect x="87.800000" y="98.000000" width="24.000000" height="24.000000" rx="0" ry="0" style="stroke:none;fill:#f44800;"/>
<text x="99.800000" y="112.000000" font-family="Arial" font-size="7" text-anchor="middle" fill="#FFFFFF">2</text>
<circle cx="89.800000" cy="100.000000" r="1"/>
<rect x="120.800000" y="99.000000" width="25.800000" height="24.000000" rx="0" ry="0" style="stroke:none;fill:#cccccc;"/>
<rect x="119.800000" y="98.000000" width="25.800000" height="24.000000" rx="0" ry="0" style="stroke:none;fill:#4B71A1;"/>
<text x="132.700000" y="112.000000" font-family="Arial" font-size="7" text-anchor="middle" fill="#FFFFFF">sqrt</text>
<circle cx="121.800000" cy="100.000000" r="1"/>
<line x1="116.800000" y1="109.000000" x2="119.800000" y2="110.000000"  transform="rotate(0.000000,119.800000,110.000000)" style="stroke: black; stroke-width:0.25;"/>
<line x1="116.800000" y1="111.000000" x2="119.800000" y2="110.000000"  transform="rotate(0.000000,119.800000,110.000000)" style="stroke: black; stroke-width:0.25;"/>
<rect x="166.600000" y="67.000000" width="24.000000" height="24.000000" rx="0" ry="0" style="stroke:none;fill:#cccccc;"/>
<rect x="165.600000" y="66.000000" width="24.000000" height="24.000000" rx="0" ry="0" style="stroke:none;fill:#4B71A1;"/>
<text x="177.600000" y="80.000000" font-family="Arial" font-size="7" text-anchor="middle" fill="#FFFFFF">/</text>
<circle cx="167.600000" cy="68.000000" r="1"/>
<line x1="162.600000" y1="73.000000" x2="165.600000" y2="74.000000"  transform="rotate(0.000000,165.600000,74.000000)" style="stroke: black; stroke-width:0.25;"/>
<line x1="162.600000" y1="75.000000" x2="165.600000" y2="74.000000"  transform="rotate(0.000000,165.600000,74.000000)" style="stroke: black; stroke-width:0.25;"/>
<line x1="162.600000" y1="81.000000" x2="165.600000" y2="82.000000"  transform="rotate(0.000000,165.600000,82.000000)" style="stroke: black; stroke-width:0.25;"/>
<line x1="162.600000" y1="83.000000" x2="165.600000" y2="82.000000"  transform="rotate(0.000000,165.600000,82.000000)" style="stroke: black; stroke-width:0.25;"/>
<line x1="74.800000" y1="25.000000" x2="74.800000" y2="131.000000"  style="stroke: black; stroke-linecap:round; stroke-width:0.25; stroke-dasharray:3,3;"/>
<line x1="74.800000" y1="131.000000" x2="198.600000" y2="131.000000"  style="stroke: black; stroke-linecap:round; stroke-width:0.25; stroke-dasharray:3,3;"/>
<line x1="198.600000" y1="131.000000" x2="198.600000" y2="25.000000"  style="stroke: black; stroke-linecap:round; stroke-width:0.25; stroke-dasharray:3,3;"/>
<line x1="74.800000" y1="25.000000" x2="79.800000" y2="25.000000"  style="stroke: black; stroke-linecap:round; stroke-width:0.25; stroke-dasharray:3,3;"/>
<line x1="124.950000" y1="25.000000" x2="198.600000" y2="25.000000"  style="stroke: black; stroke-linecap:round; stroke-width:0.25; stroke-dasharray:3,3;"/>
<text x="79.800000" y="27.000000" font-family="Arial" font-size="7">nsum(x1)(x2)</text>
<rect x="84.800000" y="151.000000" width="25.800000" height="24.000000" rx="0" ry="0" style="stroke:none;fill:#cccccc;"/>
<rect x="83.800000" y="150.000000" width="25.800000" height="24.000000" rx="0" ry="0" style="stroke:none;fill:#47945E;"/>
<text x="96.700000" y="164.000000" font-family="Arial" font-size="7" text-anchor="middle" fill="#FFFFFF">[1] x</text>
<circle cx="85.800000" cy="152.000000" r="1"/>
<rect x="84.800000" y="183.000000" width="25.800000" height="24.000000" rx="0" ry="0" style="stroke:none;fill:#cccccc;"/>
<rect x="83.800000" y="182.000000" width="25.800000" height="24.000000" rx="0" ry="0" style="stroke:none;fill:#47945E;"/>
<text x="96.700000" y="196.000000" font-family="Arial" font-size="7" text-anchor="middle" fill="#FFFFFF">[2] y</text>
<circle cx="85.800000" cy="184.000000" r="1"/>
<rect x="126.600000" y="167.000000" width="24.000000" height="24.000000" rx="0" ry="0" style="stroke:none;fill:#cccccc;"/>
<rect x="125.600000" y="166.000000" width="24.000000" height="24.000000" rx="0" ry="0" style="stroke:none;fill:#4B71A1;"/>
<text x="137.600000" y="180.000000" font-family="Arial" font-size="7" text-anchor="middle" fill="#FFFFFF">-</text>
<circle cx="127.600000" cy="168.000000" r="1"/>
<line x1="122.600000" y1="173.000000" x2="125.600000" y2="174.000000"  transform="rotate(0.000000,125.600000,174.000000)" style="stroke: black; stroke-width:0.25;"/>
<line x1="122.600000" y1="175.000000" x2="125.600000" y2="174.000000"  transform="rotate(0.000000,125.600000,174.000000)" style="stroke: black; stroke-width:0.25;"/>
<line x1="122.600000" y1="181.000000" x2="125.600000" y2="182.000000"  transform="rotate(0.000000,125.600000,182.000000)" style="stroke: black; stroke-width:0.25;"/>
<line x1="122.600000" y1="183.000000" x2="125.600000" y2="182.000000"  transform="rotate(0.000000,125.600000,182.000000)" style="stroke: black; stroke-width:0.25;"/>
<rect x="88.800000" y="215.000000" width="24.000000" height="24.000000" rx="0" ry="0" style="stroke:none;fill:#cccccc;"/>
<rect x="87.800000" y="214.000000" width="24.000000" height="24.000000" rx="0" ry="0" style="stroke:none;fill:#f44800;"/>
<text x="99.800000" y="228.000000" font-family="Arial" font-size="7" text-anchor="middle" fill="#FFFFFF">2</text>
<circle cx="89.800000" cy="216.000000" r="1"/>
<rect x="120.800000" y="215.000000" width="25.800000" height="24.000000" rx="0" ry="0" style="stroke:none;fill:#cccccc;"/>
<rect x="119.800000" y="214.000000" width="25.800000" height="24.000000" rx="0" ry="0" style="stroke:none;fill:#4B71A1;"/>
<text x="132.700000" y="228.000000" font-family="Arial" font-size="7" text-anchor="middle" fill="#FFFFFF">sqrt</text>
<circle cx="121.800000" cy="216.000000" r="1"/>
<line x1="116.800000" y1="225.000000" x2="119.800000" y2="226.000000"  transform="rotate(0.000000,119.800000,226.000000)" style="stroke: black; stroke-width:0.25;"/>
<line x1="116.800000" y1="227.000000" x2="119.800000" y2="226.000000"  transform="rotate(0.000000,119.800000,226.000000)" style="stroke: black; stroke-width:0.25;"/>
<rect x="166.600000" y="183.000000" width="24.000000" height="24.000000" rx="0" ry="0" style="stroke:none;fill:#cccccc;"/>
<rect x="165.600000" y="182.000000" width="24.000000" height="24.000000" rx="0" ry="0" style="stroke:none;fill:#4B71A1;"/>
<text x="177.600000" y="196.000000" font-family="Arial" font-size="7" text-anchor="middle" fill="#FFFFFF">/</text>
<circle cx="167.600000" cy="184.000000" r="1"/>
<line x1="162.600000" y1="189.000000" x2="165.600000" y2="190.000000"  transform="rotate(0.000000,165.600000,190.000000)" style="stroke: black; stroke-width:0.25;"/>
<line x1="162.600000" y1="191.000000" x2="165.600000" y2="190.000000"  transform="rotate(0.000000,165.600000,190.000000)" style="stroke: black; stroke-width:0.25;"/>
<line x1="162.600000" y1="197.000000" x2="165.600000" y2="198.000000"  transform="rotate(0.000000,165.600000,198.000000)" style="stroke: black; stroke-width:0.25;"/>
<line x1="162.600000" y1="199.000000" x2="165.600000" y2="198.000000"  transform="rotate(0.000000,165.600000,198.000000)" style="stroke: black; stroke-width:0.25;"/>
<line x1="74.800000" y1="141.000000" x2="74.800000" y2="247.000000"  style="stroke: black; stroke-linecap:round; stroke-width:0.25; stroke-dasharray:3,3;"/>
<line x1="74.800000" y1="247.000000" x2="198.600000" y2="247.000000"  style="stroke: black; stroke-linecap:round; stroke-width:0.25; stroke-dasharray:3,3;"/>
<line x1="198.600000" y1="247.000000" x2="198.600000" y2="141.000000"  style="stroke: black; stroke-linecap:round; stroke-width:0.25; stroke-dasharray:3,3;"/>
<line x1="74.800000" y1="141.000000" x2="79.800000" y2="141.000000"  style="stroke: black; stroke-linecap:round; stroke-width:0.25; stroke-dasharray:3,3;"/>
<line x1="124.950000" y1="141.000000" x2="198.600000" y2="141.000000"  style="stroke: black; stroke-linecap:round; stroke-width:0.25; stroke-dasharray:3,3;"/>
<text x="79.800000" y="143.000000" font-family="Arial" font-size="7">ndif(x1)(x2)</text>
<line x1="15.000000" y1="15.000000" x2="15.000000" y2="257.000000"  style="stroke: black; stroke-linecap:round; stroke-width:0.25; stroke-dasharray:3,3;"/>
<line x1="15.000000" y1="257.000000" x2="224.600000" y2="257.000000"  style="stroke: black; stroke-linecap:round; stroke-width:0.25; stroke-dasharray:3,3;"/>
<line x1="224.600000" y1="257.000000" x2="224.600000" y2="15.000000"  style="stroke: black; stroke-linecap:round; stroke-width:0.25; stroke-dasharray:3,3;"/>
<line x1="15.000000" y1="15.000000" x2="20.000000" y2="15.000000"  style="stroke: black; stroke-linecap:round; stroke-width:0.25; stroke-dasharray:3,3;"/>
<line x1="49.025000" y1="15.000000" x2="224.600000" y2="15.000000"  style="stroke: black; stroke-linecap:round; stroke-width:0.25; stroke-dasharray:3,3;"/>
<text x="20.000000" y="17.000000" font-family="Arial" font-size="7">process</text>
<line x1="226.600000" y1="131.000000" x2="229.600000" y2="132.000000"  transform="rotate(0.000000,229.600000,132.000000)" style="stroke: black; stroke-width:0.25;"/>
<line x1="226.600000" y1="133.000000" x2="229.600000" y2="132.000000"  transform="rotate(0.000000,229.600000,132.000000)" style="stroke: black; stroke-width:0.25;"/>
<line x1="226.600000" y1="139.000000" x2="229.600000" y2="140.000000"  transform="rotate(0.000000,229.600000,140.000000)" style="stroke: black; stroke-width:0.25;"/>
<line x1="226.600000" y1="141.000000" x2="229.600000" y2="140.000000"  transform="rotate(0.000000,229.600000,140.000000)" style="stroke: black; stroke-width:0.25;"/>
<line x1="10.000000" y1="132.000000" x2="20.000000" y2="132.000000"  style="stroke:black; stroke-linecap:round; stroke-width:0.25;"/>
<line x1="10.000000" y1="140.000000" x2="20.000000" y2="140.000000"  style="stroke:black; stroke-linecap:round; stroke-width:0.25;"/>
<line x1="20.000000" y1="132.000000" x2="24.000000" y2="132.000000"  style="stroke:black; stroke-linecap:round; stroke-width:0.25;"/>
<line x1="20.000000" y1="140.000000" x2="24.000000" y2="140.000000"  style="stroke:black; stroke-linecap:round; stroke-width:0.25;"/>
<line x1="24.000000" y1="132.000000" x2="28.000000" y2="132.000000"  style="stroke:black; stroke-linecap:round; stroke-width:0.25;"/>
<line x1="24.000000" y1="140.000000" x2="28.000000" y2="140.000000"  style="stroke:black; stroke-linecap:round; stroke-width:0.25;"/>
<line x1="28.000000" y1="120.000000" x2="36.000000" y2="120.000000"  style="stroke:black; stroke-linecap:round; stroke-width:0.25;"/>
<line x1="28.000000" y1="132.000000" x2="28.000000" y2="120.000000"  style="stroke:black; stroke-linecap:round; stroke-width:0.25;"/>
<line x1="28.000000" y1="132.000000" x2="28.000000" y2="132.000000"  style="stroke:black; stroke-linecap:round; stroke-width:0.25;"/>
<line x1="28.000000" y1="140.000000" x2="36.000000" y2="140.000000"  style="stroke:black; stroke-linecap:round; stroke-width:0.25;"/>
<line x1="36.000000" y1="120.000000" x2="40.000000" y2="120.000000"  style="stroke:black; stroke-linecap:round; stroke-width:0.25;"/>
<line x1="36.000000" y1="140.000000" x2="36.000000" y2="152.000000"  style="stroke:black; stroke-linecap:round; stroke-width:0.25;"/>
<line x1="36.000000" y1="152.000000" x2="36.000000" y2="152.000000"  style="stroke:black; stroke-linecap:round; stroke-width:0.25;"/>
<line x1="36.000000" y1="152.000000" x2="40.000000" y2="152.000000"  style="stroke:black; stroke-linecap:round; stroke-width:0.25;"/>
<line x1="109.600000" y1="46.000000" x2="113.600000" y2="46.000000"  style="stroke:black; stroke-linecap:round; stroke-width:0.25;"/>
<line x1="109.600000" y1="78.000000" x2="113.600000" y2="78.000000"  style="stroke:black; stroke-linecap:round; stroke-width:0.25;"/>
<line x1="109.600000" y1="162.000000" x2="113.600000" y2="162.000000"  style="stroke:black; stroke-linecap:round; stroke-width:0.25;"/>
<line x1="109.600000" y1="194.000000" x2="113.600000" y2="194.000000"  style="stroke:black; stroke-linecap:round; stroke-width:0.25;"/>
<line x1="111.800000" y1="110.000000" x2="115.800000" y2="110.000000"  style="stroke:black; stroke-linecap:round; stroke-width:0.25;"/>
<line x1="111.800000" y1="226.000000" x2="115.800000" y2="226.000000"  style="stroke:black; stroke-linecap:round; stroke-width:0.25;"/>
<line x1="113.600000" y1="46.000000" x2="121.600000" y2="46.000000"  style="stroke:black; stroke-linecap:round; stroke-width:0.25;"/>
<line x1="113.600000" y1="66.000000" x2="121.600000" y2="66.000000"  style="stroke:black; stroke-linecap:round; stroke-width:0.25;"/>
<line x1="113.600000" y1="78.000000" x2="113.600000" y2="66.000000"  style="stroke:black; stroke-linecap:round; stroke-width:0.25;"/>
<line x1="113.600000" y1="78.000000" x2="113.600000" y2="78.000000"  style="stroke:black; stroke-linecap:round; stroke-width:0.25;"/>
<line x1="113.600000" y1="162.000000" x2="121.600000" y2="162.000000"  style="stroke:black; stroke-linecap:round; stroke-width:0.25;"/>
<line x1="113.600000" y1="182.000000" x2="121.600000" y2="182.000000"  style="stroke:black; stroke-linecap:round; stroke-width:0.25;"/>
<line x1="113.600000" y1="194.000000" x2="113.600000" y2="182.000000"  style="stroke:black; stroke-linecap:round; stroke-width:0.25;"/>
<line x1="113.600000" y1="194.000000" x2="113.600000" y2="194.000000"  style="stroke:black; stroke-linecap:round; stroke-width:0.25;"/>
<line x1="115.800000" y1="110.000000" x2="115.800000" y2="110.000000"  style="stroke:black; stroke-linecap:round; stroke-width:0.25;"/>
<line x1="115.800000" y1="110.000000" x2="119.800000" y2="110.000000"  style="stroke:black; stroke-linecap:round; stroke-width:0.25;"/>
<line x1="115.800000" y1="226.000000" x2="115.800000" y2="226.000000"  style="stroke:black; stroke-linecap:round; stroke-width:0.25;"/>
<line x1="115.800000" y1="226.000000" x2="119.800000" y2="226.000000"  style="stroke:black; stroke-linecap:round; stroke-width:0.25;"/>
<line x1="121.600000" y1="46.000000" x2="121.600000" y2="58.000000"  style="stroke:black; stroke-linecap:round; stroke-width:0.25;"/>
<line x1="121.600000" y1="58.000000" x2="121.600000" y2="58.000000"  style="stroke:black; stroke-linecap:round; stroke-width:0.25;"/>
<line x1="121.600000" y1="58.000000" x2="125.600000" y2="58.000000"  style="stroke:black; stroke-linecap:round; stroke-width:0.25;"/>
<line x1="121.600000" y1="66.000000" x2="125.600000" y2="66.000000"  style="stroke:black; stroke-linecap:round; stroke-width:0.25;"/>
<line x1="121.600000" y1="162.000000" x2="121.600000" y2="174.000000"  style="stroke:black; stroke-linecap:round; stroke-width:0.25;"/>
<line x1="121.600000" y1="174.000000" x2="121.600000" y2="174.000000"  style="stroke:black; stroke-linecap:round; stroke-width:0.25;"/>
<line x1="121.600000" y1="174.000000" x2="125.600000" y2="174.000000"  style="stroke:black; stroke-linecap:round; stroke-width:0.25;"/>
<line x1="121.600000" y1="182.000000" x2="125.600000" y2="182.000000"  style="stroke:black; stroke-linecap:round; stroke-width:0.25;"/>
<line x1="145.600000" y1="110.000000" x2="149.600000" y2="110.000000"  style="stroke:black; stroke-linecap:round; stroke-width:0.25;"/>
<line x1="145.600000" y1="226.000000" x2="149.600000" y2="226.000000"  style="stroke:black; stroke-linecap:round; stroke-width:0.25;"/>
<line x1="149.600000" y1="62.000000" x2="153.600000" y2="62.000000"  style="stroke:black; stroke-linecap:round; stroke-width:0.25;"/>
<line x1="149.600000" y1="110.000000" x2="153.600000" y2="110.000000"  style="stroke:black; stroke-linecap:round; stroke-width:0.25;"/>
<line x1="149.600000" y1="178.000000" x2="153.600000" y2="178.000000"  style="stroke:black; stroke-linecap:round; stroke-width:0.25;"/>
<line x1="149.600000" y1="226.000000" x2="153.600000" y2="226.000000"  style="stroke:black; stroke-linecap:round; stroke-width:0.25;"/>
<line x1="153.600000" y1="62.000000" x2="161.600000" y2="62.000000"  style="stroke:black; stroke-linecap:round; stroke-width:0.25;"/>
<line x1="153.600000" y1="82.000000" x2="161.600000" y2="82.000000"  style="stroke:black; stroke-linecap:round; stroke-width:0.25;"/>
<line x1="153.600000" y1="110.000000" x2="153.600000" y2="82.000000"  style="stroke:black; stroke-linecap:round; stroke-width:0.25;"/>
<line x1="153.600000" y1="110.000000" x2="153.600000" y2="110.000000"  style="stroke:black; stroke-linecap:round; stroke-width:0.25;"/>
<line x1="153.600000" y1="178.000000" x2="161.600000" y2="178.000000"  style="stroke:black; stroke-linecap:round; stroke-width:0.25;"/>
<line x1="153.600000" y1="198.000000" x2="161.600000" y2="198.000000"  style="stroke:black; stroke-linecap:round; stroke-width:0.25;"/>
<line x1="153.600000" y1="226.000000" x2="153.600000" y2="198.000000"  style="stroke:black; stroke-linecap:round; stroke-width:0.25;"/>
<line x1="153.600000" y1="226.000000" x2="153.600000" y2="226.000000"  style="stroke:black; stroke-linecap:round; stroke-width:0.25;"/>
<line x1="161.600000" y1="62.000000" x2="161.600000" y2="74.000000"  style="stroke:black; stroke-linecap:round; stroke-width:0.25;"/>
<line x1="161.600000" y1="74.000000" x2="161.600000" y2="74.000000"  style="stroke:black; stroke-linecap:round; stroke-width:0.25;"/>
<line x1="161.600000" y1="74.000000" x2="165.600000" y2="74.000000"  style="stroke:black; stroke-linecap:round; stroke-width:0.25;"/>
<line x1="161.600000" y1="82.000000" x2="165.600000" y2="82.000000"  style="stroke:black; stroke-linecap:round; stroke-width:0.25;"/>
<line x1="161.600000" y1="178.000000" x2="161.600000" y2="190.000000"  style="stroke:black; stroke-linecap:round; stroke-width:0.25;"/>
<line x1="161.600000" y1="190.000000" x2="161.600000" y2="190.000000"  style="stroke:black; stroke-linecap:round; stroke-width:0.25;"/>
<line x1="161.600000" y1="190.000000" x2="165.600000" y2="190.000000"  style="stroke:black; stroke-linecap:round; stroke-width:0.25;"/>
<line x1="161.600000" y1="198.000000" x2="165.600000" y2="198.000000"  style="stroke:black; stroke-linecap:round; stroke-width:0.25;"/>
<line x1="189.600000" y1="78.000000" x2="193.600000" y2="78.000000"  style="stroke:black; stroke-linecap:round; stroke-width:0.25;"/>
<line x1="189.600000" y1="194.000000" x2="193.600000" y2="194.000000"  style="stroke:black; stroke-linecap:round; stroke-width:0.25;"/>
<line x1="193.600000" y1="78.000000" x2="203.600000" y2="78.000000"  style="stroke:black; stroke-linecap:round; stroke-width:0.25;"/>
<line x1="193.600000" y1="194.000000" x2="203.600000" y2="194.000000"  style="stroke:black; stroke-linecap:round; stroke-width:0.25;"/>
<line x1="203.600000" y1="78.000000" x2="211.600000" y2="78.000000"  style="stroke:black; stroke-linecap:round; stroke-width:0.25;"/>
<line x1="203.600000" y1="140.000000" x2="211.600000" y2="140.000000"  style="stroke:black; stroke-linecap:round; stroke-width:0.25;"/>
<line x1="203.600000" y1="194.000000" x2="203.600000" y2="140.000000"  style="stroke:black; stroke-linecap:round; stroke-width:0.25;"/>
<line x1="203.600000" y1="194.000000" x2="203.600000" y2="194.000000"  style="stroke:black; stroke-linecap:round; stroke-width:0.25;"/>
<line x1="211.600000" y1="78.000000" x2="211.600000" y2="132.000000"  style="stroke:black; stroke-linecap:round; stroke-width:0.25;"/>
<line x1="211.600000" y1="132.000000" x2="211.600000" y2="132.000000"  style="stroke:black; stroke-linecap:round; stroke-width:0.25;"/>
<line x1="211.600000" y1="132.000000" x2="215.600000" y2="132.000000"  style="stroke:black; stroke-linecap:round; stroke-width:0.25;"/>
<line x1="211.600000" y1="140.000000" x2="215.600000" y2="140.000000"  style="stroke:black; stroke-linecap:round; stroke-width:0.25;"/>
<line x1="215.600000" y1="132.000000" x2="219.600000" y2="132.000000"  style="stroke:black; stroke-linecap:round; stroke-width:0.25;"/>
<line x1="215.600000" y1="140.000000" x2="219.600000" y2="140.000000"  style="stroke:black; stroke-linecap:round; stroke-width:0.25;"/>
<line x1="219.600000" y1="132.000000" x2="229.600000" y2="132.000000"  style="stroke:black; stroke-linecap:round; stroke-width:0.25;"/>
<line x1="219.600000" y1="140.000000" x2="229.600000" y2="140.000000"  style="stroke:black; stroke-linecap:round; stroke-width:0.25;"/>
</svg>
