<?xml version="1.0"?>
<svg xmlns="http://www.w3.org/2000/svg" xmlns:xlink="http://www.w3.org/1999/xlink" viewBox="0 0 169.600000 88.000000" width="84.800000mm" height="44.000000mm" version="1.1">
<a xlink:href="process.svg">
<rect x="1.000000" y="1.000000" width="168.600000" height="87.000000" rx="0" ry="0" style="stroke:none;fill:#cccccc;"/>
<rect x="0.000000" y="0.000000" width="168.600000" height="87.000000" rx="0" ry="0" style="stroke:none;fill:#ffffff;"/>
</a>
<text x="10.000000" y="7.000000" font-family="Arial" font-size="7"></text>
<a xlink:href="dft2r-0x600002519a00.svg">
<rect x="55.000000" y="37.000000" width="25.800000" height="24.000000" rx="0" ry="0" style="stroke:none;fill:#cccccc;"/>
<rect x="54.000000" y="36.000000" width="25.800000" height="24.000000" rx="0" ry="0" style="stroke:none;fill:#003366;"/>
</a>
<a xlink:href="dft2r-0x600002519a00.svg">
<text x="66.900000" y="50.000000" font-family="Arial" font-size="7" text-anchor="middle" fill="#FFFFFF">dft2r</text>
</a>
<circle cx="56.000000" cy="38.000000" r="1"/>
<line x1="51.000000" y1="47.000000" x2="54.000000" y2="48.000000"  transform="rotate(0.000000,54.000000,48.000000)" style="stroke: black; stroke-width:0.25;"/>
<line x1="51.000000" y1="49.000000" x2="54.000000" y2="48.000000"  transform="rotate(0.000000,54.000000,48.000000)" style="stroke: black; stroke-width:0.25;"/>
<a xlink:href="dft2r-0x600002519a00.svg">
<rect x="96.800000" y="41.000000" width="25.800000" height="24.000000" rx="0" ry="0" style="stroke:none;fill:#cccccc;"/>
<rect x="95.800000" y="40.000000" width="25.800000" height="24.000000" rx="0" ry="0" style="stroke:none;fill:#003366;"/>
</a>
<a xlink:href="dft2r-0x600002519a00.svg">
<text x="108.700000" y="54.000000" font-family="Arial" font-size="7" text-anchor="middle" fill="#FFFFFF">dft2r</text>
</a>
<circle cx="97.800000" cy="42.000000" r="1"/>
<line x1="92.800000" y1="51.000000" x2="95.800000" y2="52.000000"  transform="rotate(0.000000,95.800000,52.000000)" style="stroke: black; stroke-width:0.25;"/>
<line x1="92.800000" y1="53.000000" x2="95.800000" y2="52.000000"  transform="rotate(0.000000,95.800000,52.000000)" style="stroke: black; stroke-width:0.25;"/>
<line x1="15.000000" y1="15.000000" x2="15.000000" y2="73.000000"  style="stroke: black; stroke-linecap:round; stroke-width:0.25; stroke-dasharray:3,3;"/>
<line x1="15.000000" y1="73.000000" x2="154.600000" y2="73.000000"  style="stroke: black; stroke-linecap:round; stroke-width:0.25; stroke-dasharray:3,3;"/>
<line x1="154.600000" y1="73.000000" x2="154.600000" y2="15.000000"  style="stroke: black; stroke-linecap:round; stroke-width:0.25; stroke-dasharray:3,3;"/>
<line x1="15.000000" y1="15.000000" x2="20.000000" y2="15.000000"  style="stroke: black; stroke-linecap:round; stroke-width:0.25; stroke-dasharray:3,3;"/>
<line x1="45.800000" y1="15.000000" x2="154.600000" y2="15.000000"  style="stroke: black; stroke-linecap:round; stroke-width:0.25; stroke-dasharray:3,3;"/>
<text x="20.000000" y="17.000000" font-family="Arial" font-size="7">m2xhgr</text>
<line x1="156.600000" y1="31.000000" x2="159.600000" y2="32.000000"  transform="rotate(0.000000,159.600000,32.000000)" style="stroke: black; stroke-width:0.25;"/>
<line x1="156.600000" y1="33.000000" x2="159.600000" y2="32.000000"  transform="rotate(0.000000,159.600000,32.000000)" style="stroke: black; stroke-width:0.25;"/>
<line x1="156.600000" y1="39.000000" x2="159.600000" y2="40.000000"  transform="rotate(0.000000,159.600000,40.000000)" style="stroke: black; stroke-width:0.25;"/>
<line x1="156.600000" y1="41.000000" x2="159.600000" y2="40.000000"  transform="rotate(0.000000,159.600000,40.000000)" style="stroke: black; stroke-width:0.25;"/>
<line x1="156.600000" y1="47.000000" x2="159.600000" y2="48.000000"  transform="rotate(0.000000,159.600000,48.000000)" style="stroke: black; stroke-width:0.25;"/>
<line x1="156.600000" y1="49.000000" x2="159.600000" y2="48.000000"  transform="rotate(0.000000,159.600000,48.000000)" style="stroke: black; stroke-width:0.25;"/>
<line x1="156.600000" y1="55.000000" x2="159.600000" y2="56.000000"  transform="rotate(0.000000,159.600000,56.000000)" style="stroke: black; stroke-width:0.25;"/>
<line x1="156.600000" y1="57.000000" x2="159.600000" y2="56.000000"  transform="rotate(0.000000,159.600000,56.000000)" style="stroke: black; stroke-width:0.25;"/>
<line x1="10.000000" y1="44.000000" x2="20.000000" y2="44.000000"  style="stroke:black; stroke-linecap:round; stroke-width:0.25;"/>
<line x1="20.000000" y1="44.000000" x2="24.000000" y2="44.000000"  style="stroke:black; stroke-linecap:round; stroke-width:0.25;"/>
<line x1="24.000000" y1="44.000000" x2="28.000000" y2="44.000000"  style="stroke:black; stroke-linecap:round; stroke-width:0.25;"/>
<line x1="28.000000" y1="44.000000" x2="28.000000" y2="44.000000"  style="stroke:black; stroke-linecap:round; stroke-width:0.25;"/>
<line x1="28.000000" y1="44.000000" x2="32.000000" y2="44.000000"  style="stroke:black; stroke-linecap:round; stroke-width:0.25;"/>
<line x1="32.000000" y1="44.000000" x2="36.000000" y2="44.000000"  style="stroke:black; stroke-linecap:round; stroke-width:0.25;"/>
<line x1="36.000000" y1="44.000000" x2="50.000000" y2="24.000000"  style="stroke:black; stroke-linecap:round; stroke-width:0.25;"/>
<line x1="36.000000" y1="44.000000" x2="50.000000" y2="48.000000"  style="stroke:black; stroke-linecap:round; stroke-width:0.25;"/>
<line x1="50.000000" y1="24.000000" x2="87.800000" y2="24.000000"  style="stroke:black; stroke-linecap:round; stroke-width:0.25;"/>
<line x1="50.000000" y1="48.000000" x2="54.000000" y2="48.000000"  style="stroke:black; stroke-linecap:round; stroke-width:0.25;"/>
<line x1="79.800000" y1="44.000000" x2="83.800000" y2="44.000000"  style="stroke:black; stroke-linecap:round; stroke-width:0.25;"/>
<line x1="79.800000" y1="52.000000" x2="83.800000" y2="52.000000"  style="stroke:black; stroke-linecap:round; stroke-width:0.25;"/>
<line x1="83.800000" y1="32.000000" x2="91.800000" y2="32.000000"  style="stroke:black; stroke-linecap:round; stroke-width:0.25;"/>
<line x1="83.800000" y1="44.000000" x2="83.800000" y2="32.000000"  style="stroke:black; stroke-linecap:round; stroke-width:0.25;"/>
<line x1="83.800000" y1="44.000000" x2="83.800000" y2="44.000000"  style="stroke:black; stroke-linecap:round; stroke-width:0.25;"/>
<line x1="83.800000" y1="52.000000" x2="91.800000" y2="52.000000"  style="stroke:black; stroke-linecap:round; stroke-width:0.25;"/>
<line x1="87.800000" y1="24.000000" x2="125.600000" y2="24.000000"  style="stroke:black; stroke-linecap:round; stroke-width:0.25;"/>
<line x1="91.800000" y1="32.000000" x2="108.700000" y2="32.000000"  style="stroke:black; stroke-linecap:round; stroke-width:0.25;"/>
<line x1="91.800000" y1="52.000000" x2="95.800000" y2="52.000000"  style="stroke:black; stroke-linecap:round; stroke-width:0.25;"/>
<line x1="108.700000" y1="32.000000" x2="125.600000" y2="32.000000"  style="stroke:black; stroke-linecap:round; stroke-width:0.25;"/>
<line x1="121.600000" y1="48.000000" x2="125.600000" y2="48.000000"  style="stroke:black; stroke-linecap:round; stroke-width:0.25;"/>
<line x1="121.600000" y1="56.000000" x2="125.600000" y2="56.000000"  style="stroke:black; stroke-linecap:round; stroke-width:0.25;"/>
<line x1="125.600000" y1="24.000000" x2="141.600000" y2="24.000000"  style="stroke:black; stroke-linecap:round; stroke-width:0.25;"/>
<line x1="125.600000" y1="32.000000" x2="133.600000" y2="32.000000"  style="stroke:black; stroke-linecap:round; stroke-width:0.25;"/>
<line x1="125.600000" y1="48.000000" x2="141.600000" y2="48.000000"  style="stroke:black; stroke-linecap:round; stroke-width:0.25;"/>
<line x1="125.600000" y1="56.000000" x2="141.600000" y2="56.000000"  style="stroke:black; stroke-linecap:round; stroke-width:0.25;"/>
<line x1="133.600000" y1="32.000000" x2="133.600000" y2="40.000000"  style="stroke:black; stroke-linecap:round; stroke-width:0.25;"/>
<line x1="133.600000" y1="40.000000" x2="141.600000" y2="40.000000"  style="stroke:black; stroke-linecap:round; stroke-width:0.25;"/>
<line x1="141.600000" y1="24.000000" x2="141.600000" y2="32.000000"  style="stroke:black; stroke-linecap:round; stroke-width:0.25;"/>
<line x1="141.600000" y1="32.000000" x2="141.600000" y2="32.000000"  style="stroke:black; stroke-linecap:round; stroke-width:0.25;"/>
<line x1="141.600000" y1="32.000000" x2="145.600000" y2="32.000000"  style="stroke:black; stroke-linecap:round; stroke-width:0.25;"/>
<line x1="141.600000" y1="40.000000" x2="145.600000" y2="40.000000"  style="stroke:black; stroke-linecap:round; stroke-width:0.25;"/>
<line x1="141.600000" y1="48.000000" x2="145.600000" y2="48.000000"  style="stroke:black; stroke-linecap:round; stroke-width:0.25;"/>
<line x1="141.600000" y1="56.000000" x2="145.600000" y2="56.000000"  style="stroke:black; stroke-linecap:round; stroke-width:0.25;"/>
<line x1="145.600000" y1="32.000000" x2="149.600000" y2="32.000000"  style="stroke:black; stroke-linecap:round; stroke-width:0.25;"/>
<line x1="145.600000" y1="40.000000" x2="149.600000" y2="40.000000"  style="stroke:black; stroke-linecap:round; stroke-width:0.25;"/>
<line x1="145.600000" y1="48.000000" x2="149.600000" y2="48.000000"  style="stroke:black; stroke-linecap:round; stroke-width:0.25;"/>
<line x1="145.600000" y1="56.000000" x2="149.600000" y2="56.000000"  style="stroke:black; stroke-linecap:round; stroke-width:0.25;"/>
<line x1="149.600000" y1="32.000000" x2="159.600000" y2="32.000000"  style="stroke:black; stroke-linecap:round; stroke-width:0.25;"/>
<line x1="149.600000" y1="40.000000" x2="159.600000" y2="40.000000"  style="stroke:black; stroke-linecap:round; stroke-width:0.25;"/>
<line x1="149.600000" y1="48.000000" x2="159.600000" y2="48.000000"  style="stroke:black; stroke-linecap:round; stroke-width:0.25;"/>
<line x1="149.600000" y1="56.000000" x2="159.600000" y2="56.000000"  style="stroke:black; stroke-linecap:round; stroke-width:0.25;"/>
</svg>
