<?xml version="1.0"?>
<svg xmlns="http://www.w3.org/2000/svg" xmlns:xlink="http://www.w3.org/1999/xlink" viewBox="0 0 226.800000 80.000000" width="113.400000mm" height="40.000000mm" version="1.1">
<rect x="1.000000" y="1.000000" width="225.800000" height="79.000000" rx="0" ry="0" style="stroke:none;fill:#cccccc;"/>
<rect x="0.000000" y="0.000000" width="225.800000" height="79.000000" rx="0" ry="0" style="stroke:none;fill:#ffffff;"/>
<text x="10.000000" y="7.000000" font-family="Arial" font-size="7"></text>
<a xlink:href="m2xhgr-0x600002519c00.svg">
<rect x="33.000000" y="25.000000" width="25.800000" height="32.000000" rx="0" ry="0" style="stroke:none;fill:#cccccc;"/>
<rect x="32.000000" y="24.000000" width="25.800000" height="32.000000" rx="0" ry="0" style="stroke:none;fill:#003366;"/>
</a>
<a xlink:href="m2xhgr-0x600002519c00.svg">
<text x="44.900000" y="42.000000" font-family="Arial" font-size="7" text-anchor="middle" fill="#FFFFFF">m2xhgr</text>
</a>
<circle cx="34.000000" cy="26.000000" r="1"/>
<line x1="29.000000" y1="39.000000" x2="32.000000" y2="40.000000"  transform="rotate(0.000000,32.000000,40.000000)" style="stroke: black; stroke-width:0.25;"/>
<line x1="29.000000" y1="41.000000" x2="32.000000" y2="40.000000"  transform="rotate(0.000000,32.000000,40.000000)" style="stroke: black; stroke-width:0.25;"/>
<a xlink:href="rotateYPR-0x600002501f80.svg">
<rect x="66.800000" y="25.000000" width="129.000000" height="32.000000" rx="0" ry="0" style="stroke:none;fill:#cccccc;"/>
<rect x="65.800000" y="24.000000" width="129.000000" height="32.000000" rx="0" ry="0" style="stroke:none;fill:#003366;"/>
</a>
<a xlink:href="rotateYPR-0x600002501f80.svg">
<text x="130.300000" y="42.000000" font-family="Arial" font-size="7" text-anchor="middle" fill="#FFFFFF">rotateYPR(hsl...1.8e+02f : /)</text>
</a>
<circle cx="67.800000" cy="26.000000" r="1"/>
<line x1="62.800000" y1="27.000000" x2="65.800000" y2="28.000000"  transform="rotate(0.000000,65.800000,28.000000)" style="stroke: black; stroke-width:0.25;"/>
<line x1="62.800000" y1="29.000000" x2="65.800000" y2="28.000000"  transform="rotate(0.000000,65.800000,28.000000)" style="stroke: black; stroke-width:0.25;"/>
<line x1="62.800000" y1="35.000000" x2="65.800000" y2="36.000000"  transform="rotate(0.000000,65.800000,36.000000)" style="stroke: black; stroke-width:0.25;"/>
<line x1="62.800000" y1="37.000000" x2="65.800000" y2="36.000000"  transform="rotate(0.000000,65.800000,36.000000)" style="stroke: black; stroke-width:0.25;"/>
<line x1="62.800000" y1="43.000000" x2="65.800000" y2="44.000000"  transform="rotate(0.000000,65.800000,44.000000)" style="stroke: black; stroke-width:0.25;"/>
<line x1="62.800000" y1="45.000000" x2="65.800000" y2="44.000000"  transform="rotate(0.000000,65.800000,44.000000)" style="stroke: black; stroke-width:0.25;"/>
<line x1="62.800000" y1="51.000000" x2="65.800000" y2="52.000000"  transform="rotate(0.000000,65.800000,52.000000)" style="stroke: black; stroke-width:0.25;"/>
<line x1="62.800000" y1="53.000000" x2="65.800000" y2="52.000000"  transform="rotate(0.000000,65.800000,52.000000)" style="stroke: black; stroke-width:0.25;"/>
<line x1="15.000000" y1="15.000000" x2="15.000000" y2="65.000000"  style="stroke: black; stroke-linecap:round; stroke-width:0.25; stroke-dasharray:3,3;"/>
<line x1="15.000000" y1="65.000000" x2="211.800000" y2="65.000000"  style="stroke: black; stroke-linecap:round; stroke-width:0.25; stroke-dasharray:3,3;"/>
<line x1="211.800000" y1="65.000000" x2="211.800000" y2="15.000000"  style="stroke: black; stroke-linecap:round; stroke-width:0.25; stroke-dasharray:3,3;"/>
<line x1="15.000000" y1="15.000000" x2="20.000000" y2="15.000000"  style="stroke: black; stroke-linecap:round; stroke-width:0.25; stroke-dasharray:3,3;"/>
<line x1="49.025000" y1="15.000000" x2="211.800000" y2="15.000000"  style="stroke: black; stroke-linecap:round; stroke-width:0.25; stroke-dasharray:3,3;"/>
<text x="20.000000" y="17.000000" font-family="Arial" font-size="7">process</text>
<line x1="213.800000" y1="27.000000" x2="216.800000" y2="28.000000"  transform="rotate(0.000000,216.800000,28.000000)" style="stroke: black; stroke-width:0.25;"/>
<line x1="213.800000" y1="29.000000" x2="216.800000" y2="28.000000"  transform="rotate(0.000000,216.800000,28.000000)" style="stroke: black; stroke-width:0.25;"/>
<line x1="213.800000" y1="35.000000" x2="216.800000" y2="36.000000"  transform="rotate(0.000000,216.800000,36.000000)" style="stroke: black; stroke-width:0.25;"/>
<line x1="213.800000" y1="37.000000" x2="216.800000" y2="36.000000"  transform="rotate(0.000000,216.800000,36.000000)" style="stroke: black; stroke-width:0.25;"/>
<line x1="213.800000" y1="43.000000" x2="216.800000" y2="44.000000"  transform="rotate(0.000000,216.800000,44.000000)" style="stroke: black; stroke-width:0.25;"/>
<line x1="213.800000" y1="45.000000" x2="216.800000" y2="44.000000"  transform="rotate(0.000000,216.800000,44.000000)" style="stroke: black; stroke-width:0.25;"/>
<line x1="213.800000" y1="51.000000" x2="216.800000" y2="52.000000"  transform="rotate(0.000000,216.800000,52.000000)" style="stroke: black; stroke-width:0.25;"/>
<line x1="213.800000" y1="53.000000" x2="216.800000" y2="52.000000"  transform="rotate(0.000000,216.800000,52.000000)" style="stroke: black; stroke-width:0.25;"/>
<line x1="10.000000" y1="40.000000" x2="20.000000" y2="40.000000"  style="stroke:black; stroke-linecap:round; stroke-width:0.25;"/>
<line x1="20.000000" y1="40.000000" x2="24.000000" y2="40.000000"  style="stroke:black; stroke-linecap:round; stroke-width:0.25;"/>
<line x1="24.000000" y1="40.000000" x2="28.000000" y2="40.000000"  style="stroke:black; stroke-linecap:round; stroke-width:0.25;"/>
<line x1="28.000000" y1="40.000000" x2="28.000000" y2="40.000000"  style="stroke:black; stroke-linecap:round; stroke-width:0.25;"/>
<line x1="28.000000" y1="40.000000" x2="32.000000" y2="40.000000"  style="stroke:black; stroke-linecap:round; stroke-width:0.25;"/>
<line x1="57.800000" y1="28.000000" x2="61.800000" y2="28.000000"  style="stroke:black; stroke-linecap:round; stroke-width:0.25;"/>
<line x1="57.800000" y1="36.000000" x2="61.800000" y2="36.000000"  style="stroke:black; stroke-linecap:round; stroke-width:0.25;"/>
<line x1="57.800000" y1="44.000000" x2="61.800000" y2="44.000000"  style="stroke:black; stroke-linecap:round; stroke-width:0.25;"/>
<line x1="57.800000" y1="52.000000" x2="61.800000" y2="52.000000"  style="stroke:black; stroke-linecap:round; stroke-width:0.25;"/>
<line x1="61.800000" y1="28.000000" x2="61.800000" y2="28.000000"  style="stroke:black; stroke-linecap:round; stroke-width:0.25;"/>
<line x1="61.800000" y1="28.000000" x2="65.800000" y2="28.000000"  style="stroke:black; stroke-linecap:round; stroke-width:0.25;"/>
<line x1="61.800000" y1="36.000000" x2="61.800000" y2="36.000000"  style="stroke:black; stroke-linecap:round; stroke-width:0.25;"/>
<line x1="61.800000" y1="36.000000" x2="65.800000" y2="36.000000"  style="stroke:black; stroke-linecap:round; stroke-width:0.25;"/>
<line x1="61.800000" y1="44.000000" x2="61.800000" y2="44.000000"  style="stroke:black; stroke-linecap:round; stroke-width:0.25;"/>
<line x1="61.800000" y1="44.000000" x2="65.800000" y2="44.000000"  style="stroke:black; stroke-linecap:round; stroke-width:0.25;"/>
<line x1="61.800000" y1="52.000000" x2="61.800000" y2="52.000000"  style="stroke:black; stroke-linecap:round; stroke-width:0.25;"/>
<line x1="61.800000" y1="52.000000" x2="65.800000" y2="52.000000"  style="stroke:black; stroke-linecap:round; stroke-width:0.25;"/>
<line x1="194.800000" y1="28.000000" x2="198.800000" y2="28.000000"  style="stroke:black; stroke-linecap:round; stroke-width:0.25;"/>
<line x1="194.800000" y1="36.000000" x2="198.800000" y2="36.000000"  style="stroke:black; stroke-linecap:round; stroke-width:0.25;"/>
<line x1="194.800000" y1="44.000000" x2="198.800000" y2="44.000000"  style="stroke:black; stroke-linecap:round; stroke-width:0.25;"/>
<line x1="194.800000" y1="52.000000" x2="198.800000" y2="52.000000"  style="stroke:black; stroke-linecap:round; stroke-width:0.25;"/>
<line x1="198.800000" y1="28.000000" x2="198.800000" y2="28.000000"  style="stroke:black; stroke-linecap:round; stroke-width:0.25;"/>
<line x1="198.800000" y1="28.000000" x2="202.800000" y2="28.000000"  style="stroke:black; stroke-linecap:round; stroke-width:0.25;"/>
<line x1="198.800000" y1="36.000000" x2="198.800000" y2="36.000000"  style="stroke:black; stroke-linecap:round; stroke-width:0.25;"/>
<line x1="198.800000" y1="36.000000" x2="202.800000" y2="36.000000"  style="stroke:black; stroke-linecap:round; stroke-width:0.25;"/>
<line x1="198.800000" y1="44.000000" x2="198.800000" y2="44.000000"  style="stroke:black; stroke-linecap:round; stroke-width:0.25;"/>
<line x1="198.800000" y1="44.000000" x2="202.800000" y2="44.000000"  style="stroke:black; stroke-linecap:round; stroke-width:0.25;"/>
<line x1="198.800000" y1="52.000000" x2="198.800000" y2="52.000000"  style="stroke:black; stroke-linecap:round; stroke-width:0.25;"/>
<line x1="198.800000" y1="52.000000" x2="202.800000" y2="52.000000"  style="stroke:black; stroke-linecap:round; stroke-width:0.25;"/>
<line x1="202.800000" y1="28.000000" x2="206.800000" y2="28.000000"  style="stroke:black; stroke-linecap:round; stroke-width:0.25;"/>
<line x1="202.800000" y1="36.000000" x2="206.800000" y2="36.000000"  style="stroke:black; stroke-linecap:round; stroke-width:0.25;"/>
<line x1="202.800000" y1="44.000000" x2="206.800000" y2="44.000000"  style="stroke:black; stroke-linecap:round; stroke-width:0.25;"/>
<line x1="202.800000" y1="52.000000" x2="206.800000" y2="52.000000"  style="stroke:black; stroke-linecap:round; stroke-width:0.25;"/>
<line x1="206.800000" y1="28.000000" x2="216.800000" y2="28.000000"  style="stroke:black; stroke-linecap:round; stroke-width:0.25;"/>
<line x1="206.800000" y1="36.000000" x2="216.800000" y2="36.000000"  style="stroke:black; stroke-linecap:round; stroke-width:0.25;"/>
<line x1="206.800000" y1="44.000000" x2="216.800000" y2="44.000000"  style="stroke:black; stroke-linecap:round; stroke-width:0.25;"/>
<line x1="206.800000" y1="52.000000" x2="216.800000" y2="52.000000"  style="stroke:black; stroke-linecap:round; stroke-width:0.25;"/>
</svg>
