<?xml version="1.0"?>
<svg xmlns="http://www.w3.org/2000/svg" xmlns:xlink="http://www.w3.org/1999/xlink" viewBox="0 0 201.800000 200.000000" width="100.900000mm" height="100.000000mm" version="1.1">
<a xlink:href="a3-0x6000034dfa00.svg">
<rect x="1.000000" y="1.000000" width="200.800000" height="199.000000" rx="0" ry="0" style="stroke:none;fill:#cccccc;"/>
<rect x="0.000000" y="0.000000" width="200.800000" height="199.000000" rx="0" ry="0" style="stroke:none;fill:#ffffff;"/>
</a>
<text x="10.000000" y="7.000000" font-family="Arial" font-size="7"></text>
<rect x="25.900000" y="25.000000" width="24.000000" height="24.000000" rx="0" ry="0" style="stroke:none;fill:#cccccc;"/>
<rect x="24.900000" y="24.000000" width="24.000000" height="24.000000" rx="0" ry="0" style="stroke:none;fill:#f44800;"/>
<text x="36.900000" y="38.000000" font-family="Arial" font-size="7" text-anchor="middle" fill="#FFFFFF">0</text>
<circle cx="26.900000" cy="26.000000" r="1"/>
<a xlink:href="a2-0x6000034dce00.svg">
<rect x="25.000000" y="57.000000" width="25.800000" height="24.000000" rx="0" ry="0" style="stroke:none;fill:#cccccc;"/>
<rect x="24.000000" y="56.000000" width="25.800000" height="24.000000" rx="0" ry="0" style="stroke:none;fill:#003366;"/>
</a>
<a xlink:href="a2-0x6000034dce00.svg">
<text x="36.900000" y="70.000000" font-family="Arial" font-size="7" text-anchor="middle" fill="#FFFFFF">a2_r</text>
</a>
<circle cx="26.000000" cy="58.000000" r="1"/>
<rect x="66.800000" y="41.000000" width="24.000000" height="24.000000" rx="0" ry="0" style="stroke:none;fill:#cccccc;"/>
<rect x="65.800000" y="40.000000" width="24.000000" height="24.000000" rx="0" ry="0" style="stroke:none;fill:#4B71A1;"/>
<text x="77.800000" y="54.000000" font-family="Arial" font-size="7" text-anchor="middle" fill="#FFFFFF">-</text>
<circle cx="67.800000" cy="42.000000" r="1"/>
<line x1="62.800000" y1="47.000000" x2="65.800000" y2="48.000000"  transform="rotate(0.000000,65.800000,48.000000)" style="stroke: black; stroke-width:0.25;"/>
<line x1="62.800000" y1="49.000000" x2="65.800000" y2="48.000000"  transform="rotate(0.000000,65.800000,48.000000)" style="stroke: black; stroke-width:0.25;"/>
<line x1="62.800000" y1="55.000000" x2="65.800000" y2="56.000000"  transform="rotate(0.000000,65.800000,56.000000)" style="stroke: black; stroke-width:0.25;"/>
<line x1="62.800000" y1="57.000000" x2="65.800000" y2="56.000000"  transform="rotate(0.000000,65.800000,56.000000)" style="stroke: black; stroke-width:0.25;"/>
<a xlink:href="pitch-0x60000354a900.svg">
<rect x="29.000000" y="89.000000" width="25.800000" height="24.000000" rx="0" ry="0" style="stroke:none;fill:#cccccc;"/>
<rect x="28.000000" y="88.000000" width="25.800000" height="24.000000" rx="0" ry="0" style="stroke:none;fill:#003366;"/>
</a>
<a xlink:href="pitch-0x60000354a900.svg">
<text x="40.900000" y="102.000000" font-family="Arial" font-size="7" text-anchor="middle" fill="#FFFFFF">pitch</text>
</a>
<circle cx="30.000000" cy="90.000000" r="1"/>
<rect x="62.800000" y="89.000000" width="24.000000" height="24.000000" rx="0" ry="0" style="stroke:none;fill:#cccccc;"/>
<rect x="61.800000" y="88.000000" width="24.000000" height="24.000000" rx="0" ry="0" style="stroke:none;fill:#4B71A1;"/>
<text x="73.800000" y="102.000000" font-family="Arial" font-size="7" text-anchor="middle" fill="#FFFFFF">sin</text>
<circle cx="63.800000" cy="90.000000" r="1"/>
<line x1="58.800000" y1="99.000000" x2="61.800000" y2="100.000000"  transform="rotate(0.000000,61.800000,100.000000)" style="stroke: black; stroke-width:0.25;"/>
<line x1="58.800000" y1="101.000000" x2="61.800000" y2="100.000000"  transform="rotate(0.000000,61.800000,100.000000)" style="stroke: black; stroke-width:0.25;"/>
<rect x="106.800000" y="57.000000" width="24.000000" height="24.000000" rx="0" ry="0" style="stroke:none;fill:#cccccc;"/>
<rect x="105.800000" y="56.000000" width="24.000000" height="24.000000" rx="0" ry="0" style="stroke:none;fill:#4B71A1;"/>
<text x="117.800000" y="70.000000" font-family="Arial" font-size="7" text-anchor="middle" fill="#FFFFFF">*</text>
<circle cx="107.800000" cy="58.000000" r="1"/>
<line x1="102.800000" y1="63.000000" x2="105.800000" y2="64.000000"  transform="rotate(0.000000,105.800000,64.000000)" style="stroke: black; stroke-width:0.25;"/>
<line x1="102.800000" y1="65.000000" x2="105.800000" y2="64.000000"  transform="rotate(0.000000,105.800000,64.000000)" style="stroke: black; stroke-width:0.25;"/>
<line x1="102.800000" y1="71.000000" x2="105.800000" y2="72.000000"  transform="rotate(0.000000,105.800000,72.000000)" style="stroke: black; stroke-width:0.25;"/>
<line x1="102.800000" y1="73.000000" x2="105.800000" y2="72.000000"  transform="rotate(0.000000,105.800000,72.000000)" style="stroke: black; stroke-width:0.25;"/>
<rect x="38.550000" y="121.000000" width="38.700000" height="24.000000" rx="0" ry="0" style="stroke:none;fill:#cccccc;"/>
<rect x="37.550000" y="120.000000" width="38.700000" height="24.000000" rx="0" ry="0" style="stroke:none;fill:#47945E;"/>
<text x="56.900000" y="134.000000" font-family="Arial" font-size="7" text-anchor="middle" fill="#FFFFFF">[9] a3_r</text>
<circle cx="39.550000" cy="122.000000" r="1"/>
<a xlink:href="pitch-0x60000354a900.svg">
<rect x="29.000000" y="153.000000" width="25.800000" height="24.000000" rx="0" ry="0" style="stroke:none;fill:#cccccc;"/>
<rect x="28.000000" y="152.000000" width="25.800000" height="24.000000" rx="0" ry="0" style="stroke:none;fill:#003366;"/>
</a>
<a xlink:href="pitch-0x60000354a900.svg">
<text x="40.900000" y="166.000000" font-family="Arial" font-size="7" text-anchor="middle" fill="#FFFFFF">pitch</text>
</a>
<circle cx="30.000000" cy="154.000000" r="1"/>
<rect x="62.800000" y="153.000000" width="24.000000" height="24.000000" rx="0" ry="0" style="stroke:none;fill:#cccccc;"/>
<rect x="61.800000" y="152.000000" width="24.000000" height="24.000000" rx="0" ry="0" style="stroke:none;fill:#4B71A1;"/>
<text x="73.800000" y="166.000000" font-family="Arial" font-size="7" text-anchor="middle" fill="#FFFFFF">cos</text>
<circle cx="63.800000" cy="154.000000" r="1"/>
<line x1="58.800000" y1="163.000000" x2="61.800000" y2="164.000000"  transform="rotate(0.000000,61.800000,164.000000)" style="stroke: black; stroke-width:0.25;"/>
<line x1="58.800000" y1="165.000000" x2="61.800000" y2="164.000000"  transform="rotate(0.000000,61.800000,164.000000)" style="stroke: black; stroke-width:0.25;"/>
<rect x="102.800000" y="137.000000" width="24.000000" height="24.000000" rx="0" ry="0" style="stroke:none;fill:#cccccc;"/>
<rect x="101.800000" y="136.000000" width="24.000000" height="24.000000" rx="0" ry="0" style="stroke:none;fill:#4B71A1;"/>
<text x="113.800000" y="150.000000" font-family="Arial" font-size="7" text-anchor="middle" fill="#FFFFFF">*</text>
<circle cx="103.800000" cy="138.000000" r="1"/>
<line x1="98.800000" y1="143.000000" x2="101.800000" y2="144.000000"  transform="rotate(0.000000,101.800000,144.000000)" style="stroke: black; stroke-width:0.25;"/>
<line x1="98.800000" y1="145.000000" x2="101.800000" y2="144.000000"  transform="rotate(0.000000,101.800000,144.000000)" style="stroke: black; stroke-width:0.25;"/>
<line x1="98.800000" y1="151.000000" x2="101.800000" y2="152.000000"  transform="rotate(0.000000,101.800000,152.000000)" style="stroke: black; stroke-width:0.25;"/>
<line x1="98.800000" y1="153.000000" x2="101.800000" y2="152.000000"  transform="rotate(0.000000,101.800000,152.000000)" style="stroke: black; stroke-width:0.25;"/>
<rect x="146.800000" y="89.000000" width="24.000000" height="24.000000" rx="0" ry="0" style="stroke:none;fill:#cccccc;"/>
<rect x="145.800000" y="88.000000" width="24.000000" height="24.000000" rx="0" ry="0" style="stroke:none;fill:#4B71A1;"/>
<text x="157.800000" y="102.000000" font-family="Arial" font-size="7" text-anchor="middle" fill="#FFFFFF">+</text>
<circle cx="147.800000" cy="90.000000" r="1"/>
<line x1="142.800000" y1="95.000000" x2="145.800000" y2="96.000000"  transform="rotate(0.000000,145.800000,96.000000)" style="stroke: black; stroke-width:0.25;"/>
<line x1="142.800000" y1="97.000000" x2="145.800000" y2="96.000000"  transform="rotate(0.000000,145.800000,96.000000)" style="stroke: black; stroke-width:0.25;"/>
<line x1="142.800000" y1="103.000000" x2="145.800000" y2="104.000000"  transform="rotate(0.000000,145.800000,104.000000)" style="stroke: black; stroke-width:0.25;"/>
<line x1="142.800000" y1="105.000000" x2="145.800000" y2="104.000000"  transform="rotate(0.000000,145.800000,104.000000)" style="stroke: black; stroke-width:0.25;"/>
<line x1="15.000000" y1="15.000000" x2="15.000000" y2="185.000000"  style="stroke: black; stroke-linecap:round; stroke-width:0.25; stroke-dasharray:3,3;"/>
<line x1="15.000000" y1="185.000000" x2="186.800000" y2="185.000000"  style="stroke: black; stroke-linecap:round; stroke-width:0.25; stroke-dasharray:3,3;"/>
<line x1="186.800000" y1="185.000000" x2="186.800000" y2="15.000000"  style="stroke: black; stroke-linecap:round; stroke-width:0.25; stroke-dasharray:3,3;"/>
<line x1="15.000000" y1="15.000000" x2="20.000000" y2="15.000000"  style="stroke: black; stroke-linecap:round; stroke-width:0.25; stroke-dasharray:3,3;"/>
<line x1="42.575000" y1="15.000000" x2="186.800000" y2="15.000000"  style="stroke: black; stroke-linecap:round; stroke-width:0.25; stroke-dasharray:3,3;"/>
<text x="20.000000" y="17.000000" font-family="Arial" font-size="7">a3_rp</text>
<line x1="188.800000" y1="99.000000" x2="191.800000" y2="100.000000"  transform="rotate(0.000000,191.800000,100.000000)" style="stroke: black; stroke-width:0.25;"/>
<line x1="188.800000" y1="101.000000" x2="191.800000" y2="100.000000"  transform="rotate(0.000000,191.800000,100.000000)" style="stroke: black; stroke-width:0.25;"/>
<line x1="48.900000" y1="36.000000" x2="52.900000" y2="36.000000"  style="stroke:black; stroke-linecap:round; stroke-width:0.25;"/>
<line x1="49.800000" y1="68.000000" x2="53.800000" y2="68.000000"  style="stroke:black; stroke-linecap:round; stroke-width:0.25;"/>
<line x1="52.900000" y1="36.000000" x2="53.800000" y2="36.000000"  style="stroke:black; stroke-linecap:round; stroke-width:0.25;"/>
<line x1="53.800000" y1="36.000000" x2="61.800000" y2="36.000000"  style="stroke:black; stroke-linecap:round; stroke-width:0.25;"/>
<line x1="53.800000" y1="56.000000" x2="61.800000" y2="56.000000"  style="stroke:black; stroke-linecap:round; stroke-width:0.25;"/>
<line x1="53.800000" y1="68.000000" x2="53.800000" y2="56.000000"  style="stroke:black; stroke-linecap:round; stroke-width:0.25;"/>
<line x1="53.800000" y1="68.000000" x2="53.800000" y2="68.000000"  style="stroke:black; stroke-linecap:round; stroke-width:0.25;"/>
<line x1="53.800000" y1="100.000000" x2="57.800000" y2="100.000000"  style="stroke:black; stroke-linecap:round; stroke-width:0.25;"/>
<line x1="53.800000" y1="164.000000" x2="57.800000" y2="164.000000"  style="stroke:black; stroke-linecap:round; stroke-width:0.25;"/>
<line x1="57.800000" y1="100.000000" x2="57.800000" y2="100.000000"  style="stroke:black; stroke-linecap:round; stroke-width:0.25;"/>
<line x1="57.800000" y1="100.000000" x2="61.800000" y2="100.000000"  style="stroke:black; stroke-linecap:round; stroke-width:0.25;"/>
<line x1="57.800000" y1="164.000000" x2="57.800000" y2="164.000000"  style="stroke:black; stroke-linecap:round; stroke-width:0.25;"/>
<line x1="57.800000" y1="164.000000" x2="61.800000" y2="164.000000"  style="stroke:black; stroke-linecap:round; stroke-width:0.25;"/>
<line x1="61.800000" y1="36.000000" x2="61.800000" y2="48.000000"  style="stroke:black; stroke-linecap:round; stroke-width:0.25;"/>
<line x1="61.800000" y1="48.000000" x2="61.800000" y2="48.000000"  style="stroke:black; stroke-linecap:round; stroke-width:0.25;"/>
<line x1="61.800000" y1="48.000000" x2="65.800000" y2="48.000000"  style="stroke:black; stroke-linecap:round; stroke-width:0.25;"/>
<line x1="61.800000" y1="56.000000" x2="65.800000" y2="56.000000"  style="stroke:black; stroke-linecap:round; stroke-width:0.25;"/>
<line x1="76.250000" y1="132.000000" x2="80.250000" y2="132.000000"  style="stroke:black; stroke-linecap:round; stroke-width:0.25;"/>
<line x1="80.250000" y1="132.000000" x2="89.800000" y2="132.000000"  style="stroke:black; stroke-linecap:round; stroke-width:0.25;"/>
<line x1="85.800000" y1="100.000000" x2="89.800000" y2="100.000000"  style="stroke:black; stroke-linecap:round; stroke-width:0.25;"/>
<line x1="85.800000" y1="164.000000" x2="89.800000" y2="164.000000"  style="stroke:black; stroke-linecap:round; stroke-width:0.25;"/>
<line x1="89.800000" y1="52.000000" x2="93.800000" y2="52.000000"  style="stroke:black; stroke-linecap:round; stroke-width:0.25;"/>
<line x1="89.800000" y1="100.000000" x2="93.800000" y2="100.000000"  style="stroke:black; stroke-linecap:round; stroke-width:0.25;"/>
<line x1="89.800000" y1="132.000000" x2="97.800000" y2="132.000000"  style="stroke:black; stroke-linecap:round; stroke-width:0.25;"/>
<line x1="89.800000" y1="152.000000" x2="97.800000" y2="152.000000"  style="stroke:black; stroke-linecap:round; stroke-width:0.25;"/>
<line x1="89.800000" y1="164.000000" x2="89.800000" y2="152.000000"  style="stroke:black; stroke-linecap:round; stroke-width:0.25;"/>
<line x1="89.800000" y1="164.000000" x2="89.800000" y2="164.000000"  style="stroke:black; stroke-linecap:round; stroke-width:0.25;"/>
<line x1="93.800000" y1="52.000000" x2="101.800000" y2="52.000000"  style="stroke:black; stroke-linecap:round; stroke-width:0.25;"/>
<line x1="93.800000" y1="72.000000" x2="101.800000" y2="72.000000"  style="stroke:black; stroke-linecap:round; stroke-width:0.25;"/>
<line x1="93.800000" y1="100.000000" x2="93.800000" y2="72.000000"  style="stroke:black; stroke-linecap:round; stroke-width:0.25;"/>
<line x1="93.800000" y1="100.000000" x2="93.800000" y2="100.000000"  style="stroke:black; stroke-linecap:round; stroke-width:0.25;"/>
<line x1="97.800000" y1="132.000000" x2="97.800000" y2="144.000000"  style="stroke:black; stroke-linecap:round; stroke-width:0.25;"/>
<line x1="97.800000" y1="144.000000" x2="97.800000" y2="144.000000"  style="stroke:black; stroke-linecap:round; stroke-width:0.25;"/>
<line x1="97.800000" y1="144.000000" x2="101.800000" y2="144.000000"  style="stroke:black; stroke-linecap:round; stroke-width:0.25;"/>
<line x1="97.800000" y1="152.000000" x2="101.800000" y2="152.000000"  style="stroke:black; stroke-linecap:round; stroke-width:0.25;"/>
<line x1="101.800000" y1="52.000000" x2="101.800000" y2="64.000000"  style="stroke:black; stroke-linecap:round; stroke-width:0.25;"/>
<line x1="101.800000" y1="64.000000" x2="101.800000" y2="64.000000"  style="stroke:black; stroke-linecap:round; stroke-width:0.25;"/>
<line x1="101.800000" y1="64.000000" x2="105.800000" y2="64.000000"  style="stroke:black; stroke-linecap:round; stroke-width:0.25;"/>
<line x1="101.800000" y1="72.000000" x2="105.800000" y2="72.000000"  style="stroke:black; stroke-linecap:round; stroke-width:0.25;"/>
<line x1="125.800000" y1="148.000000" x2="129.800000" y2="148.000000"  style="stroke:black; stroke-linecap:round; stroke-width:0.25;"/>
<line x1="129.800000" y1="68.000000" x2="133.800000" y2="68.000000"  style="stroke:black; stroke-linecap:round; stroke-width:0.25;"/>
<line x1="129.800000" y1="148.000000" x2="133.800000" y2="148.000000"  style="stroke:black; stroke-linecap:round; stroke-width:0.25;"/>
<line x1="133.800000" y1="68.000000" x2="141.800000" y2="68.000000"  style="stroke:black; stroke-linecap:round; stroke-width:0.25;"/>
<line x1="133.800000" y1="104.000000" x2="141.800000" y2="104.000000"  style="stroke:black; stroke-linecap:round; stroke-width:0.25;"/>
<line x1="133.800000" y1="148.000000" x2="133.800000" y2="104.000000"  style="stroke:black; stroke-linecap:round; stroke-width:0.25;"/>
<line x1="133.800000" y1="148.000000" x2="133.800000" y2="148.000000"  style="stroke:black; stroke-linecap:round; stroke-width:0.25;"/>
<line x1="141.800000" y1="68.000000" x2="141.800000" y2="96.000000"  style="stroke:black; stroke-linecap:round; stroke-width:0.25;"/>
<line x1="141.800000" y1="96.000000" x2="141.800000" y2="96.000000"  style="stroke:black; stroke-linecap:round; stroke-width:0.25;"/>
<line x1="141.800000" y1="96.000000" x2="145.800000" y2="96.000000"  style="stroke:black; stroke-linecap:round; stroke-width:0.25;"/>
<line x1="141.800000" y1="104.000000" x2="145.800000" y2="104.000000"  style="stroke:black; stroke-linecap:round; stroke-width:0.25;"/>
<line x1="169.800000" y1="100.000000" x2="173.800000" y2="100.000000"  style="stroke:black; stroke-linecap:round; stroke-width:0.25;"/>
<line x1="173.800000" y1="100.000000" x2="173.800000" y2="100.000000"  style="stroke:black; stroke-linecap:round; stroke-width:0.25;"/>
<line x1="173.800000" y1="100.000000" x2="177.800000" y2="100.000000"  style="stroke:black; stroke-linecap:round; stroke-width:0.25;"/>
<line x1="177.800000" y1="100.000000" x2="181.800000" y2="100.000000"  style="stroke:black; stroke-linecap:round; stroke-width:0.25;"/>
<line x1="181.800000" y1="100.000000" x2="191.800000" y2="100.000000"  style="stroke:black; stroke-linecap:round; stroke-width:0.25;"/>
</svg>
