<?xml version="1.0"?>
<svg xmlns="http://www.w3.org/2000/svg" xmlns:xlink="http://www.w3.org/1999/xlink" viewBox="0 0 219.600000 168.000000" width="109.800000mm" height="84.000000mm" version="1.1">
<a xlink:href="rotateYPR-0x6000034d7d00.svg">
<rect x="1.000000" y="1.000000" width="218.600000" height="167.000000" rx="0" ry="0" style="stroke:none;fill:#cccccc;"/>
<rect x="0.000000" y="0.000000" width="218.600000" height="167.000000" rx="0" ry="0" style="stroke:none;fill:#ffffff;"/>
</a>
<text x="10.000000" y="7.000000" font-family="Arial" font-size="7"></text>
<a xlink:href="a1-0x6000034d3180.svg">
<rect x="53.900000" y="25.000000" width="25.800000" height="24.000000" rx="0" ry="0" style="stroke:none;fill:#cccccc;"/>
<rect x="52.900000" y="24.000000" width="25.800000" height="24.000000" rx="0" ry="0" style="stroke:none;fill:#003366;"/>
</a>
<a xlink:href="a1-0x6000034d3180.svg">
<text x="65.800000" y="38.000000" font-family="Arial" font-size="7" text-anchor="middle" fill="#FFFFFF">a1_rp</text>
</a>
<circle cx="54.900000" cy="26.000000" r="1"/>
<a xlink:href="divergence-0x60000354b500.svg">
<rect x="25.000000" y="57.000000" width="51.600000" height="24.000000" rx="0" ry="0" style="stroke:none;fill:#cccccc;"/>
<rect x="24.000000" y="56.000000" width="51.600000" height="24.000000" rx="0" ry="0" style="stroke:none;fill:#003366;"/>
</a>
<a xlink:href="divergence-0x60000354b500.svg">
<text x="49.800000" y="70.000000" font-family="Arial" font-size="7" text-anchor="middle" fill="#FFFFFF">divergence</text>
</a>
<circle cx="26.000000" cy="58.000000" r="1"/>
<rect x="84.600000" y="57.000000" width="24.000000" height="24.000000" rx="0" ry="0" style="stroke:none;fill:#cccccc;"/>
<rect x="83.600000" y="56.000000" width="24.000000" height="24.000000" rx="0" ry="0" style="stroke:none;fill:#4B71A1;"/>
<text x="95.600000" y="70.000000" font-family="Arial" font-size="7" text-anchor="middle" fill="#FFFFFF">sin</text>
<circle cx="85.600000" cy="58.000000" r="1"/>
<line x1="80.600000" y1="67.000000" x2="83.600000" y2="68.000000"  transform="rotate(0.000000,83.600000,68.000000)" style="stroke: black; stroke-width:0.25;"/>
<line x1="80.600000" y1="69.000000" x2="83.600000" y2="68.000000"  transform="rotate(0.000000,83.600000,68.000000)" style="stroke: black; stroke-width:0.25;"/>
<rect x="124.600000" y="41.000000" width="24.000000" height="24.000000" rx="0" ry="0" style="stroke:none;fill:#cccccc;"/>
<rect x="123.600000" y="40.000000" width="24.000000" height="24.000000" rx="0" ry="0" style="stroke:none;fill:#4B71A1;"/>
<text x="135.600000" y="54.000000" font-family="Arial" font-size="7" text-anchor="middle" fill="#FFFFFF">*</text>
<circle cx="125.600000" cy="42.000000" r="1"/>
<line x1="120.600000" y1="47.000000" x2="123.600000" y2="48.000000"  transform="rotate(0.000000,123.600000,48.000000)" style="stroke: black; stroke-width:0.25;"/>
<line x1="120.600000" y1="49.000000" x2="123.600000" y2="48.000000"  transform="rotate(0.000000,123.600000,48.000000)" style="stroke: black; stroke-width:0.25;"/>
<line x1="120.600000" y1="55.000000" x2="123.600000" y2="56.000000"  transform="rotate(0.000000,123.600000,56.000000)" style="stroke: black; stroke-width:0.25;"/>
<line x1="120.600000" y1="57.000000" x2="123.600000" y2="56.000000"  transform="rotate(0.000000,123.600000,56.000000)" style="stroke: black; stroke-width:0.25;"/>
<a xlink:href="a3-0x6000034d6080.svg">
<rect x="53.900000" y="89.000000" width="25.800000" height="24.000000" rx="0" ry="0" style="stroke:none;fill:#cccccc;"/>
<rect x="52.900000" y="88.000000" width="25.800000" height="24.000000" rx="0" ry="0" style="stroke:none;fill:#003366;"/>
</a>
<a xlink:href="a3-0x6000034d6080.svg">
<text x="65.800000" y="102.000000" font-family="Arial" font-size="7" text-anchor="middle" fill="#FFFFFF">a3_rp</text>
</a>
<circle cx="54.900000" cy="90.000000" r="1"/>
<a xlink:href="divergence-0x60000354b500.svg">
<rect x="25.000000" y="121.000000" width="51.600000" height="24.000000" rx="0" ry="0" style="stroke:none;fill:#cccccc;"/>
<rect x="24.000000" y="120.000000" width="51.600000" height="24.000000" rx="0" ry="0" style="stroke:none;fill:#003366;"/>
</a>
<a xlink:href="divergence-0x60000354b500.svg">
<text x="49.800000" y="134.000000" font-family="Arial" font-size="7" text-anchor="middle" fill="#FFFFFF">divergence</text>
</a>
<circle cx="26.000000" cy="122.000000" r="1"/>
<rect x="84.600000" y="121.000000" width="24.000000" height="24.000000" rx="0" ry="0" style="stroke:none;fill:#cccccc;"/>
<rect x="83.600000" y="120.000000" width="24.000000" height="24.000000" rx="0" ry="0" style="stroke:none;fill:#4B71A1;"/>
<text x="95.600000" y="134.000000" font-family="Arial" font-size="7" text-anchor="middle" fill="#FFFFFF">cos</text>
<circle cx="85.600000" cy="122.000000" r="1"/>
<line x1="80.600000" y1="131.000000" x2="83.600000" y2="132.000000"  transform="rotate(0.000000,83.600000,132.000000)" style="stroke: black; stroke-width:0.25;"/>
<line x1="80.600000" y1="133.000000" x2="83.600000" y2="132.000000"  transform="rotate(0.000000,83.600000,132.000000)" style="stroke: black; stroke-width:0.25;"/>
<rect x="124.600000" y="105.000000" width="24.000000" height="24.000000" rx="0" ry="0" style="stroke:none;fill:#cccccc;"/>
<rect x="123.600000" y="104.000000" width="24.000000" height="24.000000" rx="0" ry="0" style="stroke:none;fill:#4B71A1;"/>
<text x="135.600000" y="118.000000" font-family="Arial" font-size="7" text-anchor="middle" fill="#FFFFFF">*</text>
<circle cx="125.600000" cy="106.000000" r="1"/>
<line x1="120.600000" y1="111.000000" x2="123.600000" y2="112.000000"  transform="rotate(0.000000,123.600000,112.000000)" style="stroke: black; stroke-width:0.25;"/>
<line x1="120.600000" y1="113.000000" x2="123.600000" y2="112.000000"  transform="rotate(0.000000,123.600000,112.000000)" style="stroke: black; stroke-width:0.25;"/>
<line x1="120.600000" y1="119.000000" x2="123.600000" y2="120.000000"  transform="rotate(0.000000,123.600000,120.000000)" style="stroke: black; stroke-width:0.25;"/>
<line x1="120.600000" y1="121.000000" x2="123.600000" y2="120.000000"  transform="rotate(0.000000,123.600000,120.000000)" style="stroke: black; stroke-width:0.25;"/>
<rect x="164.600000" y="73.000000" width="24.000000" height="24.000000" rx="0" ry="0" style="stroke:none;fill:#cccccc;"/>
<rect x="163.600000" y="72.000000" width="24.000000" height="24.000000" rx="0" ry="0" style="stroke:none;fill:#4B71A1;"/>
<text x="175.600000" y="86.000000" font-family="Arial" font-size="7" text-anchor="middle" fill="#FFFFFF">+</text>
<circle cx="165.600000" cy="74.000000" r="1"/>
<line x1="160.600000" y1="79.000000" x2="163.600000" y2="80.000000"  transform="rotate(0.000000,163.600000,80.000000)" style="stroke: black; stroke-width:0.25;"/>
<line x1="160.600000" y1="81.000000" x2="163.600000" y2="80.000000"  transform="rotate(0.000000,163.600000,80.000000)" style="stroke: black; stroke-width:0.25;"/>
<line x1="160.600000" y1="87.000000" x2="163.600000" y2="88.000000"  transform="rotate(0.000000,163.600000,88.000000)" style="stroke: black; stroke-width:0.25;"/>
<line x1="160.600000" y1="89.000000" x2="163.600000" y2="88.000000"  transform="rotate(0.000000,163.600000,88.000000)" style="stroke: black; stroke-width:0.25;"/>
<line x1="15.000000" y1="15.000000" x2="15.000000" y2="153.000000"  style="stroke: black; stroke-linecap:round; stroke-width:0.25; stroke-dasharray:3,3;"/>
<line x1="15.000000" y1="153.000000" x2="204.600000" y2="153.000000"  style="stroke: black; stroke-linecap:round; stroke-width:0.25; stroke-dasharray:3,3;"/>
<line x1="204.600000" y1="153.000000" x2="204.600000" y2="15.000000"  style="stroke: black; stroke-linecap:round; stroke-width:0.25; stroke-dasharray:3,3;"/>
<line x1="15.000000" y1="15.000000" x2="20.000000" y2="15.000000"  style="stroke: black; stroke-linecap:round; stroke-width:0.25; stroke-dasharray:3,3;"/>
<line x1="45.800000" y1="15.000000" x2="204.600000" y2="15.000000"  style="stroke: black; stroke-linecap:round; stroke-width:0.25; stroke-dasharray:3,3;"/>
<text x="20.000000" y="17.000000" font-family="Arial" font-size="7">a3_ypr</text>
<line x1="206.600000" y1="83.000000" x2="209.600000" y2="84.000000"  transform="rotate(0.000000,209.600000,84.000000)" style="stroke: black; stroke-width:0.25;"/>
<line x1="206.600000" y1="85.000000" x2="209.600000" y2="84.000000"  transform="rotate(0.000000,209.600000,84.000000)" style="stroke: black; stroke-width:0.25;"/>
<line x1="75.600000" y1="68.000000" x2="79.600000" y2="68.000000"  style="stroke:black; stroke-linecap:round; stroke-width:0.25;"/>
<line x1="75.600000" y1="132.000000" x2="79.600000" y2="132.000000"  style="stroke:black; stroke-linecap:round; stroke-width:0.25;"/>
<line x1="78.700000" y1="36.000000" x2="82.700000" y2="36.000000"  style="stroke:black; stroke-linecap:round; stroke-width:0.25;"/>
<line x1="78.700000" y1="100.000000" x2="82.700000" y2="100.000000"  style="stroke:black; stroke-linecap:round; stroke-width:0.25;"/>
<line x1="79.600000" y1="68.000000" x2="79.600000" y2="68.000000"  style="stroke:black; stroke-linecap:round; stroke-width:0.25;"/>
<line x1="79.600000" y1="68.000000" x2="83.600000" y2="68.000000"  style="stroke:black; stroke-linecap:round; stroke-width:0.25;"/>
<line x1="79.600000" y1="132.000000" x2="79.600000" y2="132.000000"  style="stroke:black; stroke-linecap:round; stroke-width:0.25;"/>
<line x1="79.600000" y1="132.000000" x2="83.600000" y2="132.000000"  style="stroke:black; stroke-linecap:round; stroke-width:0.25;"/>
<line x1="82.700000" y1="36.000000" x2="111.600000" y2="36.000000"  style="stroke:black; stroke-linecap:round; stroke-width:0.25;"/>
<line x1="82.700000" y1="100.000000" x2="111.600000" y2="100.000000"  style="stroke:black; stroke-linecap:round; stroke-width:0.25;"/>
<line x1="107.600000" y1="68.000000" x2="111.600000" y2="68.000000"  style="stroke:black; stroke-linecap:round; stroke-width:0.25;"/>
<line x1="107.600000" y1="132.000000" x2="111.600000" y2="132.000000"  style="stroke:black; stroke-linecap:round; stroke-width:0.25;"/>
<line x1="111.600000" y1="36.000000" x2="119.600000" y2="36.000000"  style="stroke:black; stroke-linecap:round; stroke-width:0.25;"/>
<line x1="111.600000" y1="56.000000" x2="119.600000" y2="56.000000"  style="stroke:black; stroke-linecap:round; stroke-width:0.25;"/>
<line x1="111.600000" y1="68.000000" x2="111.600000" y2="56.000000"  style="stroke:black; stroke-linecap:round; stroke-width:0.25;"/>
<line x1="111.600000" y1="68.000000" x2="111.600000" y2="68.000000"  style="stroke:black; stroke-linecap:round; stroke-width:0.25;"/>
<line x1="111.600000" y1="100.000000" x2="119.600000" y2="100.000000"  style="stroke:black; stroke-linecap:round; stroke-width:0.25;"/>
<line x1="111.600000" y1="120.000000" x2="119.600000" y2="120.000000"  style="stroke:black; stroke-linecap:round; stroke-width:0.25;"/>
<line x1="111.600000" y1="132.000000" x2="111.600000" y2="120.000000"  style="stroke:black; stroke-linecap:round; stroke-width:0.25;"/>
<line x1="111.600000" y1="132.000000" x2="111.600000" y2="132.000000"  style="stroke:black; stroke-linecap:round; stroke-width:0.25;"/>
<line x1="119.600000" y1="36.000000" x2="119.600000" y2="48.000000"  style="stroke:black; stroke-linecap:round; stroke-width:0.25;"/>
<line x1="119.600000" y1="48.000000" x2="119.600000" y2="48.000000"  style="stroke:black; stroke-linecap:round; stroke-width:0.25;"/>
<line x1="119.600000" y1="48.000000" x2="123.600000" y2="48.000000"  style="stroke:black; stroke-linecap:round; stroke-width:0.25;"/>
<line x1="119.600000" y1="56.000000" x2="123.600000" y2="56.000000"  style="stroke:black; stroke-linecap:round; stroke-width:0.25;"/>
<line x1="119.600000" y1="100.000000" x2="119.600000" y2="112.000000"  style="stroke:black; stroke-linecap:round; stroke-width:0.25;"/>
<line x1="119.600000" y1="112.000000" x2="119.600000" y2="112.000000"  style="stroke:black; stroke-linecap:round; stroke-width:0.25;"/>
<line x1="119.600000" y1="112.000000" x2="123.600000" y2="112.000000"  style="stroke:black; stroke-linecap:round; stroke-width:0.25;"/>
<line x1="119.600000" y1="120.000000" x2="123.600000" y2="120.000000"  style="stroke:black; stroke-linecap:round; stroke-width:0.25;"/>
<line x1="147.600000" y1="52.000000" x2="151.600000" y2="52.000000"  style="stroke:black; stroke-linecap:round; stroke-width:0.25;"/>
<line x1="147.600000" y1="116.000000" x2="151.600000" y2="116.000000"  style="stroke:black; stroke-linecap:round; stroke-width:0.25;"/>
<line x1="151.600000" y1="52.000000" x2="159.600000" y2="52.000000"  style="stroke:black; stroke-linecap:round; stroke-width:0.25;"/>
<line x1="151.600000" y1="88.000000" x2="159.600000" y2="88.000000"  style="stroke:black; stroke-linecap:round; stroke-width:0.25;"/>
<line x1="151.600000" y1="116.000000" x2="151.600000" y2="88.000000"  style="stroke:black; stroke-linecap:round; stroke-width:0.25;"/>
<line x1="151.600000" y1="116.000000" x2="151.600000" y2="116.000000"  style="stroke:black; stroke-linecap:round; stroke-width:0.25;"/>
<line x1="159.600000" y1="52.000000" x2="159.600000" y2="80.000000"  style="stroke:black; stroke-linecap:round; stroke-width:0.25;"/>
<line x1="159.600000" y1="80.000000" x2="159.600000" y2="80.000000"  style="stroke:black; stroke-linecap:round; stroke-width:0.25;"/>
<line x1="159.600000" y1="80.000000" x2="163.600000" y2="80.000000"  style="stroke:black; stroke-linecap:round; stroke-width:0.25;"/>
<line x1="159.600000" y1="88.000000" x2="163.600000" y2="88.000000"  style="stroke:black; stroke-linecap:round; stroke-width:0.25;"/>
<line x1="187.600000" y1="84.000000" x2="191.600000" y2="84.000000"  style="stroke:black; stroke-linecap:round; stroke-width:0.25;"/>
<line x1="191.600000" y1="84.000000" x2="191.600000" y2="84.000000"  style="stroke:black; stroke-linecap:round; stroke-width:0.25;"/>
<line x1="191.600000" y1="84.000000" x2="195.600000" y2="84.000000"  style="stroke:black; stroke-linecap:round; stroke-width:0.25;"/>
<line x1="195.600000" y1="84.000000" x2="199.600000" y2="84.000000"  style="stroke:black; stroke-linecap:round; stroke-width:0.25;"/>
<line x1="199.600000" y1="84.000000" x2="209.600000" y2="84.000000"  style="stroke:black; stroke-linecap:round; stroke-width:0.25;"/>
</svg>
