<?xml version="1.0"?>
<svg xmlns="http://www.w3.org/2000/svg" xmlns:xlink="http://www.w3.org/1999/xlink" viewBox="0 0 188.500000 92.000000" width="94.250000mm" height="46.000000mm" version="1.1">
<a xlink:href="m2xhgr-0x60000352f000.svg">
<rect x="1.000000" y="1.000000" width="187.500000" height="91.000000" rx="0" ry="0" style="stroke:none;fill:#cccccc;"/>
<rect x="0.000000" y="0.000000" width="187.500000" height="91.000000" rx="0" ry="0" style="stroke:none;fill:#ffffff;"/>
</a>
<text x="10.000000" y="7.000000" font-family="Arial" font-size="7"></text>
<rect x="33.000000" y="35.000000" width="25.800000" height="24.000000" rx="0" ry="0" style="stroke:none;fill:#cccccc;"/>
<rect x="32.000000" y="34.000000" width="25.800000" height="24.000000" rx="0" ry="0" style="stroke:none;fill:#47945E;"/>
<text x="44.900000" y="48.000000" font-family="Arial" font-size="7" text-anchor="middle" fill="#FFFFFF">[1] x</text>
<circle cx="34.000000" cy="36.000000" r="1"/>
<line x1="29.000000" y1="45.000000" x2="32.000000" y2="46.000000"  transform="rotate(0.000000,32.000000,46.000000)" style="stroke: black; stroke-width:0.25;"/>
<line x1="29.000000" y1="47.000000" x2="32.000000" y2="46.000000"  transform="rotate(0.000000,32.000000,46.000000)" style="stroke: black; stroke-width:0.25;"/>
<a xlink:href="dft2-0x60000351e300.svg">
<rect x="66.800000" y="35.000000" width="38.700000" height="24.000000" rx="0" ry="0" style="stroke:none;fill:#cccccc;"/>
<rect x="65.800000" y="34.000000" width="38.700000" height="24.000000" rx="0" ry="0" style="stroke:none;fill:#003366;"/>
</a>
<a xlink:href="dft2-0x60000351e300.svg">
<text x="85.150000" y="48.000000" font-family="Arial" font-size="7" text-anchor="middle" fill="#FFFFFF">dft2(x1)</text>
</a>
<circle cx="67.800000" cy="36.000000" r="1"/>
<line x1="113.500000" y1="25.000000" x2="113.500000" y2="67.000000"  style="stroke: black; stroke-linecap:round; stroke-width:0.25; stroke-dasharray:3,3;"/>
<line x1="113.500000" y1="67.000000" x2="155.500000" y2="67.000000"  style="stroke: black; stroke-linecap:round; stroke-width:0.25; stroke-dasharray:3,3;"/>
<line x1="155.500000" y1="67.000000" x2="155.500000" y2="25.000000"  style="stroke: black; stroke-linecap:round; stroke-width:0.25; stroke-dasharray:3,3;"/>
<line x1="113.500000" y1="25.000000" x2="118.500000" y2="25.000000"  style="stroke: black; stroke-linecap:round; stroke-width:0.25; stroke-dasharray:3,3;"/>
<line x1="150.750000" y1="25.000000" x2="155.500000" y2="25.000000"  style="stroke: black; stroke-linecap:round; stroke-width:0.25; stroke-dasharray:3,3;"/>
<text x="118.500000" y="27.000000" font-family="Arial" font-size="7">cross(2)</text>
<line x1="15.000000" y1="15.000000" x2="15.000000" y2="77.000000"  style="stroke: black; stroke-linecap:round; stroke-width:0.25; stroke-dasharray:3,3;"/>
<line x1="15.000000" y1="77.000000" x2="173.500000" y2="77.000000"  style="stroke: black; stroke-linecap:round; stroke-width:0.25; stroke-dasharray:3,3;"/>
<line x1="173.500000" y1="77.000000" x2="173.500000" y2="15.000000"  style="stroke: black; stroke-linecap:round; stroke-width:0.25; stroke-dasharray:3,3;"/>
<line x1="15.000000" y1="15.000000" x2="20.000000" y2="15.000000"  style="stroke: black; stroke-linecap:round; stroke-width:0.25; stroke-dasharray:3,3;"/>
<line x1="42.575000" y1="15.000000" x2="173.500000" y2="15.000000"  style="stroke: black; stroke-linecap:round; stroke-width:0.25; stroke-dasharray:3,3;"/>
<text x="20.000000" y="17.000000" font-family="Arial" font-size="7">dft2r</text>
<line x1="175.500000" y1="41.000000" x2="178.500000" y2="42.000000"  transform="rotate(0.000000,178.500000,42.000000)" style="stroke: black; stroke-width:0.25;"/>
<line x1="175.500000" y1="43.000000" x2="178.500000" y2="42.000000"  transform="rotate(0.000000,178.500000,42.000000)" style="stroke: black; stroke-width:0.25;"/>
<line x1="175.500000" y1="49.000000" x2="178.500000" y2="50.000000"  transform="rotate(0.000000,178.500000,50.000000)" style="stroke: black; stroke-width:0.25;"/>
<line x1="175.500000" y1="51.000000" x2="178.500000" y2="50.000000"  transform="rotate(0.000000,178.500000,50.000000)" style="stroke: black; stroke-width:0.25;"/>
<line x1="10.000000" y1="46.000000" x2="20.000000" y2="46.000000"  style="stroke:black; stroke-linecap:round; stroke-width:0.25;"/>
<line x1="20.000000" y1="46.000000" x2="24.000000" y2="46.000000"  style="stroke:black; stroke-linecap:round; stroke-width:0.25;"/>
<line x1="24.000000" y1="46.000000" x2="28.000000" y2="46.000000"  style="stroke:black; stroke-linecap:round; stroke-width:0.25;"/>
<line x1="28.000000" y1="46.000000" x2="28.000000" y2="46.000000"  style="stroke:black; stroke-linecap:round; stroke-width:0.25;"/>
<line x1="28.000000" y1="46.000000" x2="32.000000" y2="46.000000"  style="stroke:black; stroke-linecap:round; stroke-width:0.25;"/>
<line x1="104.500000" y1="42.000000" x2="108.500000" y2="42.000000"  style="stroke:black; stroke-linecap:round; stroke-width:0.25;"/>
<line x1="104.500000" y1="50.000000" x2="108.500000" y2="50.000000"  style="stroke:black; stroke-linecap:round; stroke-width:0.25;"/>
<line x1="108.500000" y1="42.000000" x2="108.500000" y2="42.000000"  style="stroke:black; stroke-linecap:round; stroke-width:0.25;"/>
<line x1="108.500000" y1="42.000000" x2="118.500000" y2="42.000000"  style="stroke:black; stroke-linecap:round; stroke-width:0.25;"/>
<line x1="108.500000" y1="50.000000" x2="108.500000" y2="50.000000"  style="stroke:black; stroke-linecap:round; stroke-width:0.25;"/>
<line x1="108.500000" y1="50.000000" x2="118.500000" y2="50.000000"  style="stroke:black; stroke-linecap:round; stroke-width:0.25;"/>
<line x1="118.500000" y1="42.000000" x2="122.500000" y2="42.000000"  style="stroke:black; stroke-linecap:round; stroke-width:0.25;"/>
<line x1="118.500000" y1="50.000000" x2="122.500000" y2="50.000000"  style="stroke:black; stroke-linecap:round; stroke-width:0.25;"/>
<line x1="122.500000" y1="42.000000" x2="146.500000" y2="50.000000"  style="stroke:black; stroke-linecap:round; stroke-width:0.25;"/>
<line x1="122.500000" y1="50.000000" x2="146.500000" y2="42.000000"  style="stroke:black; stroke-linecap:round; stroke-width:0.25;"/>
<line x1="146.500000" y1="42.000000" x2="150.500000" y2="42.000000"  style="stroke:black; stroke-linecap:round; stroke-width:0.25;"/>
<line x1="146.500000" y1="50.000000" x2="150.500000" y2="50.000000"  style="stroke:black; stroke-linecap:round; stroke-width:0.25;"/>
<line x1="150.500000" y1="42.000000" x2="160.500000" y2="42.000000"  style="stroke:black; stroke-linecap:round; stroke-width:0.25;"/>
<line x1="150.500000" y1="50.000000" x2="160.500000" y2="50.000000"  style="stroke:black; stroke-linecap:round; stroke-width:0.25;"/>
<line x1="160.500000" y1="42.000000" x2="160.500000" y2="42.000000"  style="stroke:black; stroke-linecap:round; stroke-width:0.25;"/>
<line x1="160.500000" y1="42.000000" x2="164.500000" y2="42.000000"  style="stroke:black; stroke-linecap:round; stroke-width:0.25;"/>
<line x1="160.500000" y1="50.000000" x2="160.500000" y2="50.000000"  style="stroke:black; stroke-linecap:round; stroke-width:0.25;"/>
<line x1="160.500000" y1="50.000000" x2="164.500000" y2="50.000000"  style="stroke:black; stroke-linecap:round; stroke-width:0.25;"/>
<line x1="164.500000" y1="42.000000" x2="168.500000" y2="42.000000"  style="stroke:black; stroke-linecap:round; stroke-width:0.25;"/>
<line x1="164.500000" y1="50.000000" x2="168.500000" y2="50.000000"  style="stroke:black; stroke-linecap:round; stroke-width:0.25;"/>
<line x1="168.500000" y1="42.000000" x2="178.500000" y2="42.000000"  style="stroke:black; stroke-linecap:round; stroke-width:0.25;"/>
<line x1="168.500000" y1="50.000000" x2="178.500000" y2="50.000000"  style="stroke:black; stroke-linecap:round; stroke-width:0.25;"/>
</svg>
