<?xml version="1.0"?>
<svg xmlns="http://www.w3.org/2000/svg" xmlns:xlink="http://www.w3.org/1999/xlink" viewBox="0 0 362.000000 104.000000" width="181.000000mm" height="52.000000mm" version="1.1">
<a xlink:href="a3-0x6000034dfa00.svg">
<rect x="1.000000" y="1.000000" width="361.000000" height="103.000000" rx="0" ry="0" style="stroke:none;fill:#cccccc;"/>
<rect x="0.000000" y="0.000000" width="361.000000" height="103.000000" rx="0" ry="0" style="stroke:none;fill:#ffffff;"/>
</a>
<text x="10.000000" y="7.000000" font-family="Arial" font-size="7"></text>
<rect x="25.000000" y="25.000000" width="219.300000" height="24.000000" rx="0" ry="0" style="stroke:none;fill:#cccccc;"/>
<rect x="24.000000" y="24.000000" width="219.300000" height="24.000000" rx="0" ry="0" style="stroke:none;fill:#477881;"/>
<text x="133.650000" y="38.000000" font-family="Arial" font-size="7" text-anchor="middle" fill="#FFFFFF">hslider(DIVERGENCE, 9e+01f, 0.0f, 1.8e+02f, 0.1f)</text>
<circle cx="26.000000" cy="26.000000" r="1"/>
<rect x="122.650000" y="57.000000" width="24.000000" height="24.000000" rx="0" ry="0" style="stroke:none;fill:#cccccc;"/>
<rect x="121.650000" y="56.000000" width="24.000000" height="24.000000" rx="0" ry="0" style="stroke:none;fill:#f44800;"/>
<text x="133.650000" y="70.000000" font-family="Arial" font-size="7" text-anchor="middle" fill="#FFFFFF">2</text>
<circle cx="123.650000" cy="58.000000" r="1"/>
<rect x="260.300000" y="41.000000" width="24.000000" height="24.000000" rx="0" ry="0" style="stroke:none;fill:#cccccc;"/>
<rect x="259.300000" y="40.000000" width="24.000000" height="24.000000" rx="0" ry="0" style="stroke:none;fill:#4B71A1;"/>
<text x="271.300000" y="54.000000" font-family="Arial" font-size="7" text-anchor="middle" fill="#FFFFFF">/</text>
<circle cx="261.300000" cy="42.000000" r="1"/>
<line x1="256.300000" y1="47.000000" x2="259.300000" y2="48.000000"  transform="rotate(0.000000,259.300000,48.000000)" style="stroke: black; stroke-width:0.25;"/>
<line x1="256.300000" y1="49.000000" x2="259.300000" y2="48.000000"  transform="rotate(0.000000,259.300000,48.000000)" style="stroke: black; stroke-width:0.25;"/>
<line x1="256.300000" y1="55.000000" x2="259.300000" y2="56.000000"  transform="rotate(0.000000,259.300000,56.000000)" style="stroke: black; stroke-width:0.25;"/>
<line x1="256.300000" y1="57.000000" x2="259.300000" y2="56.000000"  transform="rotate(0.000000,259.300000,56.000000)" style="stroke: black; stroke-width:0.25;"/>
<a xlink:href="deg2rad-0x60000354a380.svg">
<rect x="292.300000" y="41.000000" width="38.700000" height="24.000000" rx="0" ry="0" style="stroke:none;fill:#cccccc;"/>
<rect x="291.300000" y="40.000000" width="38.700000" height="24.000000" rx="0" ry="0" style="stroke:none;fill:#003366;"/>
</a>
<a xlink:href="deg2rad-0x60000354a380.svg">
<text x="310.650000" y="54.000000" font-family="Arial" font-size="7" text-anchor="middle" fill="#FFFFFF">deg2rad</text>
</a>
<circle cx="293.300000" cy="42.000000" r="1"/>
<line x1="288.300000" y1="51.000000" x2="291.300000" y2="52.000000"  transform="rotate(0.000000,291.300000,52.000000)" style="stroke: black; stroke-width:0.25;"/>
<line x1="288.300000" y1="53.000000" x2="291.300000" y2="52.000000"  transform="rotate(0.000000,291.300000,52.000000)" style="stroke: black; stroke-width:0.25;"/>
<line x1="15.000000" y1="15.000000" x2="15.000000" y2="89.000000"  style="stroke: black; stroke-linecap:round; stroke-width:0.25; stroke-dasharray:3,3;"/>
<line x1="15.000000" y1="89.000000" x2="347.000000" y2="89.000000"  style="stroke: black; stroke-linecap:round; stroke-width:0.25; stroke-dasharray:3,3;"/>
<line x1="347.000000" y1="89.000000" x2="347.000000" y2="15.000000"  style="stroke: black; stroke-linecap:round; stroke-width:0.25; stroke-dasharray:3,3;"/>
<line x1="15.000000" y1="15.000000" x2="20.000000" y2="15.000000"  style="stroke: black; stroke-linecap:round; stroke-width:0.25; stroke-dasharray:3,3;"/>
<line x1="58.700000" y1="15.000000" x2="347.000000" y2="15.000000"  style="stroke: black; stroke-linecap:round; stroke-width:0.25; stroke-dasharray:3,3;"/>
<text x="20.000000" y="17.000000" font-family="Arial" font-size="7">divergence</text>
<line x1="349.000000" y1="51.000000" x2="352.000000" y2="52.000000"  transform="rotate(0.000000,352.000000,52.000000)" style="stroke: black; stroke-width:0.25;"/>
<line x1="349.000000" y1="53.000000" x2="352.000000" y2="52.000000"  transform="rotate(0.000000,352.000000,52.000000)" style="stroke: black; stroke-width:0.25;"/>
<line x1="145.650000" y1="68.000000" x2="149.650000" y2="68.000000"  style="stroke:black; stroke-linecap:round; stroke-width:0.25;"/>
<line x1="149.650000" y1="68.000000" x2="247.300000" y2="68.000000"  style="stroke:black; stroke-linecap:round; stroke-width:0.25;"/>
<line x1="243.300000" y1="36.000000" x2="247.300000" y2="36.000000"  style="stroke:black; stroke-linecap:round; stroke-width:0.25;"/>
<line x1="247.300000" y1="56.000000" x2="255.300000" y2="56.000000"  style="stroke:black; stroke-linecap:round; stroke-width:0.25;"/>
<line x1="247.300000" y1="68.000000" x2="247.300000" y2="56.000000"  style="stroke:black; stroke-linecap:round; stroke-width:0.25;"/>
<line x1="247.300000" y1="68.000000" x2="247.300000" y2="68.000000"  style="stroke:black; stroke-linecap:round; stroke-width:0.25;"/>
<line x1="247.300000" y1="36.000000" x2="255.300000" y2="36.000000"  style="stroke:black; stroke-linecap:round; stroke-width:0.25;"/>
<line x1="255.300000" y1="36.000000" x2="255.300000" y2="48.000000"  style="stroke:black; stroke-linecap:round; stroke-width:0.25;"/>
<line x1="255.300000" y1="48.000000" x2="255.300000" y2="48.000000"  style="stroke:black; stroke-linecap:round; stroke-width:0.25;"/>
<line x1="255.300000" y1="48.000000" x2="259.300000" y2="48.000000"  style="stroke:black; stroke-linecap:round; stroke-width:0.25;"/>
<line x1="255.300000" y1="56.000000" x2="259.300000" y2="56.000000"  style="stroke:black; stroke-linecap:round; stroke-width:0.25;"/>
<line x1="283.300000" y1="52.000000" x2="287.300000" y2="52.000000"  style="stroke:black; stroke-linecap:round; stroke-width:0.25;"/>
<line x1="287.300000" y1="52.000000" x2="287.300000" y2="52.000000"  style="stroke:black; stroke-linecap:round; stroke-width:0.25;"/>
<line x1="287.300000" y1="52.000000" x2="291.300000" y2="52.000000"  style="stroke:black; stroke-linecap:round; stroke-width:0.25;"/>
<line x1="330.000000" y1="52.000000" x2="334.000000" y2="52.000000"  style="stroke:black; stroke-linecap:round; stroke-width:0.25;"/>
<line x1="334.000000" y1="52.000000" x2="334.000000" y2="52.000000"  style="stroke:black; stroke-linecap:round; stroke-width:0.25;"/>
<line x1="334.000000" y1="52.000000" x2="338.000000" y2="52.000000"  style="stroke:black; stroke-linecap:round; stroke-width:0.25;"/>
<line x1="338.000000" y1="52.000000" x2="342.000000" y2="52.000000"  style="stroke:black; stroke-linecap:round; stroke-width:0.25;"/>
<line x1="342.000000" y1="52.000000" x2="352.000000" y2="52.000000"  style="stroke:black; stroke-linecap:round; stroke-width:0.25;"/>
</svg>
