<?xml version="1.0"?>
<svg xmlns="http://www.w3.org/2000/svg" xmlns:xlink="http://www.w3.org/1999/xlink" viewBox="0 0 427.600000 120.000000" width="213.800000mm" height="60.000000mm" version="1.1">
<rect x="1.000000" y="1.000000" width="426.600000" height="119.000000" rx="0" ry="0" style="stroke:none;fill:#cccccc;"/>
<rect x="0.000000" y="0.000000" width="426.600000" height="119.000000" rx="0" ry="0" style="stroke:none;fill:#ffffff;"/>
<text x="10.000000" y="7.000000" font-family="Arial" font-size="7"></text>
<a xlink:href="m2xhgr-0x60000352f000.svg">
<rect x="41.000000" y="25.000000" width="25.800000" height="32.000000" rx="0" ry="0" style="stroke:none;fill:#cccccc;"/>
<rect x="40.000000" y="24.000000" width="25.800000" height="32.000000" rx="0" ry="0" style="stroke:none;fill:#003366;"/>
</a>
<a xlink:href="m2xhgr-0x60000352f000.svg">
<text x="52.900000" y="42.000000" font-family="Arial" font-size="7" text-anchor="middle" fill="#FFFFFF">m2xhgr</text>
</a>
<circle cx="42.000000" cy="26.000000" r="1"/>
<line x1="37.000000" y1="39.000000" x2="40.000000" y2="40.000000"  transform="rotate(0.000000,40.000000,40.000000)" style="stroke: black; stroke-width:0.25;"/>
<line x1="37.000000" y1="41.000000" x2="40.000000" y2="40.000000"  transform="rotate(0.000000,40.000000,40.000000)" style="stroke: black; stroke-width:0.25;"/>
<a xlink:href="m2xhgr-0x60000352f000.svg">
<rect x="41.000000" y="65.000000" width="25.800000" height="32.000000" rx="0" ry="0" style="stroke:none;fill:#cccccc;"/>
<rect x="40.000000" y="64.000000" width="25.800000" height="32.000000" rx="0" ry="0" style="stroke:none;fill:#003366;"/>
</a>
<a xlink:href="m2xhgr-0x60000352f000.svg">
<text x="52.900000" y="82.000000" font-family="Arial" font-size="7" text-anchor="middle" fill="#FFFFFF">m2xhgr</text>
</a>
<circle cx="42.000000" cy="66.000000" r="1"/>
<line x1="37.000000" y1="79.000000" x2="40.000000" y2="80.000000"  transform="rotate(0.000000,40.000000,80.000000)" style="stroke: black; stroke-width:0.25;"/>
<line x1="37.000000" y1="81.000000" x2="40.000000" y2="80.000000"  transform="rotate(0.000000,40.000000,80.000000)" style="stroke: black; stroke-width:0.25;"/>
<a xlink:href="rotateYPR-0x6000034d7d00.svg">
<rect x="74.800000" y="25.000000" width="129.000000" height="32.000000" rx="0" ry="0" style="stroke:none;fill:#cccccc;"/>
<rect x="73.800000" y="24.000000" width="129.000000" height="32.000000" rx="0" ry="0" style="stroke:none;fill:#003366;"/>
</a>
<a xlink:href="rotateYPR-0x6000034d7d00.svg">
<text x="138.300000" y="42.000000" font-family="Arial" font-size="7" text-anchor="middle" fill="#FFFFFF">rotateYPR(hsl...1.8e+02f : /)</text>
</a>
<circle cx="75.800000" cy="26.000000" r="1"/>
<line x1="70.800000" y1="27.000000" x2="73.800000" y2="28.000000"  transform="rotate(0.000000,73.800000,28.000000)" style="stroke: black; stroke-width:0.25;"/>
<line x1="70.800000" y1="29.000000" x2="73.800000" y2="28.000000"  transform="rotate(0.000000,73.800000,28.000000)" style="stroke: black; stroke-width:0.25;"/>
<line x1="70.800000" y1="35.000000" x2="73.800000" y2="36.000000"  transform="rotate(0.000000,73.800000,36.000000)" style="stroke: black; stroke-width:0.25;"/>
<line x1="70.800000" y1="37.000000" x2="73.800000" y2="36.000000"  transform="rotate(0.000000,73.800000,36.000000)" style="stroke: black; stroke-width:0.25;"/>
<line x1="70.800000" y1="43.000000" x2="73.800000" y2="44.000000"  transform="rotate(0.000000,73.800000,44.000000)" style="stroke: black; stroke-width:0.25;"/>
<line x1="70.800000" y1="45.000000" x2="73.800000" y2="44.000000"  transform="rotate(0.000000,73.800000,44.000000)" style="stroke: black; stroke-width:0.25;"/>
<line x1="70.800000" y1="51.000000" x2="73.800000" y2="52.000000"  transform="rotate(0.000000,73.800000,52.000000)" style="stroke: black; stroke-width:0.25;"/>
<line x1="70.800000" y1="53.000000" x2="73.800000" y2="52.000000"  transform="rotate(0.000000,73.800000,52.000000)" style="stroke: black; stroke-width:0.25;"/>
<a xlink:href="rotateYPR-0x6000034dfd80.svg">
<rect x="74.800000" y="65.000000" width="129.000000" height="32.000000" rx="0" ry="0" style="stroke:none;fill:#cccccc;"/>
<rect x="73.800000" y="64.000000" width="129.000000" height="32.000000" rx="0" ry="0" style="stroke:none;fill:#003366;"/>
</a>
<a xlink:href="rotateYPR-0x6000034dfd80.svg">
<text x="138.300000" y="82.000000" font-family="Arial" font-size="7" text-anchor="middle" fill="#FFFFFF">rotateYPR(0,(...1.8e+02f : /)</text>
</a>
<circle cx="75.800000" cy="66.000000" r="1"/>
<line x1="70.800000" y1="67.000000" x2="73.800000" y2="68.000000"  transform="rotate(0.000000,73.800000,68.000000)" style="stroke: black; stroke-width:0.25;"/>
<line x1="70.800000" y1="69.000000" x2="73.800000" y2="68.000000"  transform="rotate(0.000000,73.800000,68.000000)" style="stroke: black; stroke-width:0.25;"/>
<line x1="70.800000" y1="75.000000" x2="73.800000" y2="76.000000"  transform="rotate(0.000000,73.800000,76.000000)" style="stroke: black; stroke-width:0.25;"/>
<line x1="70.800000" y1="77.000000" x2="73.800000" y2="76.000000"  transform="rotate(0.000000,73.800000,76.000000)" style="stroke: black; stroke-width:0.25;"/>
<line x1="70.800000" y1="83.000000" x2="73.800000" y2="84.000000"  transform="rotate(0.000000,73.800000,84.000000)" style="stroke: black; stroke-width:0.25;"/>
<line x1="70.800000" y1="85.000000" x2="73.800000" y2="84.000000"  transform="rotate(0.000000,73.800000,84.000000)" style="stroke: black; stroke-width:0.25;"/>
<line x1="70.800000" y1="91.000000" x2="73.800000" y2="92.000000"  transform="rotate(0.000000,73.800000,92.000000)" style="stroke: black; stroke-width:0.25;"/>
<line x1="70.800000" y1="93.000000" x2="73.800000" y2="92.000000"  transform="rotate(0.000000,73.800000,92.000000)" style="stroke: black; stroke-width:0.25;"/>
<a xlink:href="rotateYPR-0x6000034c7f80.svg">
<rect x="241.800000" y="45.000000" width="154.800000" height="32.000000" rx="0" ry="0" style="stroke:none;fill:#cccccc;"/>
<rect x="240.800000" y="44.000000" width="154.800000" height="32.000000" rx="0" ry="0" style="stroke:none;fill:#003366;"/>
</a>
<a xlink:href="rotateYPR-0x6000034c7f80.svg">
<text x="318.200000" y="62.000000" font-family="Arial" font-size="7" text-anchor="middle" fill="#FFFFFF">rotateYPR(hsl...1.8e+02f : /)(0)(0)</text>
</a>
<circle cx="242.800000" cy="46.000000" r="1"/>
<line x1="237.800000" y1="47.000000" x2="240.800000" y2="48.000000"  transform="rotate(0.000000,240.800000,48.000000)" style="stroke: black; stroke-width:0.25;"/>
<line x1="237.800000" y1="49.000000" x2="240.800000" y2="48.000000"  transform="rotate(0.000000,240.800000,48.000000)" style="stroke: black; stroke-width:0.25;"/>
<line x1="237.800000" y1="55.000000" x2="240.800000" y2="56.000000"  transform="rotate(0.000000,240.800000,56.000000)" style="stroke: black; stroke-width:0.25;"/>
<line x1="237.800000" y1="57.000000" x2="240.800000" y2="56.000000"  transform="rotate(0.000000,240.800000,56.000000)" style="stroke: black; stroke-width:0.25;"/>
<line x1="237.800000" y1="63.000000" x2="240.800000" y2="64.000000"  transform="rotate(0.000000,240.800000,64.000000)" style="stroke: black; stroke-width:0.25;"/>
<line x1="237.800000" y1="65.000000" x2="240.800000" y2="64.000000"  transform="rotate(0.000000,240.800000,64.000000)" style="stroke: black; stroke-width:0.25;"/>
<line x1="237.800000" y1="71.000000" x2="240.800000" y2="72.000000"  transform="rotate(0.000000,240.800000,72.000000)" style="stroke: black; stroke-width:0.25;"/>
<line x1="237.800000" y1="73.000000" x2="240.800000" y2="72.000000"  transform="rotate(0.000000,240.800000,72.000000)" style="stroke: black; stroke-width:0.25;"/>
<line x1="15.000000" y1="15.000000" x2="15.000000" y2="105.000000"  style="stroke: black; stroke-linecap:round; stroke-width:0.25; stroke-dasharray:3,3;"/>
<line x1="15.000000" y1="105.000000" x2="412.600000" y2="105.000000"  style="stroke: black; stroke-linecap:round; stroke-width:0.25; stroke-dasharray:3,3;"/>
<line x1="412.600000" y1="105.000000" x2="412.600000" y2="15.000000"  style="stroke: black; stroke-linecap:round; stroke-width:0.25; stroke-dasharray:3,3;"/>
<line x1="15.000000" y1="15.000000" x2="20.000000" y2="15.000000"  style="stroke: black; stroke-linecap:round; stroke-width:0.25; stroke-dasharray:3,3;"/>
<line x1="49.025000" y1="15.000000" x2="412.600000" y2="15.000000"  style="stroke: black; stroke-linecap:round; stroke-width:0.25; stroke-dasharray:3,3;"/>
<text x="20.000000" y="17.000000" font-family="Arial" font-size="7">process</text>
<line x1="414.600000" y1="47.000000" x2="417.600000" y2="48.000000"  transform="rotate(0.000000,417.600000,48.000000)" style="stroke: black; stroke-width:0.25;"/>
<line x1="414.600000" y1="49.000000" x2="417.600000" y2="48.000000"  transform="rotate(0.000000,417.600000,48.000000)" style="stroke: black; stroke-width:0.25;"/>
<line x1="414.600000" y1="55.000000" x2="417.600000" y2="56.000000"  transform="rotate(0.000000,417.600000,56.000000)" style="stroke: black; stroke-width:0.25;"/>
<line x1="414.600000" y1="57.000000" x2="417.600000" y2="56.000000"  transform="rotate(0.000000,417.600000,56.000000)" style="stroke: black; stroke-width:0.25;"/>
<line x1="414.600000" y1="63.000000" x2="417.600000" y2="64.000000"  transform="rotate(0.000000,417.600000,64.000000)" style="stroke: black; stroke-width:0.25;"/>
<line x1="414.600000" y1="65.000000" x2="417.600000" y2="64.000000"  transform="rotate(0.000000,417.600000,64.000000)" style="stroke: black; stroke-width:0.25;"/>
<line x1="414.600000" y1="71.000000" x2="417.600000" y2="72.000000"  transform="rotate(0.000000,417.600000,72.000000)" style="stroke: black; stroke-width:0.25;"/>
<line x1="414.600000" y1="73.000000" x2="417.600000" y2="72.000000"  transform="rotate(0.000000,417.600000,72.000000)" style="stroke: black; stroke-width:0.25;"/>
<line x1="10.000000" y1="56.000000" x2="20.000000" y2="56.000000"  style="stroke:black; stroke-linecap:round; stroke-width:0.25;"/>
<line x1="10.000000" y1="64.000000" x2="20.000000" y2="64.000000"  style="stroke:black; stroke-linecap:round; stroke-width:0.25;"/>
<line x1="20.000000" y1="56.000000" x2="24.000000" y2="56.000000"  style="stroke:black; stroke-linecap:round; stroke-width:0.25;"/>
<line x1="20.000000" y1="64.000000" x2="24.000000" y2="64.000000"  style="stroke:black; stroke-linecap:round; stroke-width:0.25;"/>
<line x1="24.000000" y1="56.000000" x2="28.000000" y2="56.000000"  style="stroke:black; stroke-linecap:round; stroke-width:0.25;"/>
<line x1="24.000000" y1="64.000000" x2="28.000000" y2="64.000000"  style="stroke:black; stroke-linecap:round; stroke-width:0.25;"/>
<line x1="28.000000" y1="40.000000" x2="36.000000" y2="40.000000"  style="stroke:black; stroke-linecap:round; stroke-width:0.25;"/>
<line x1="28.000000" y1="56.000000" x2="28.000000" y2="40.000000"  style="stroke:black; stroke-linecap:round; stroke-width:0.25;"/>
<line x1="28.000000" y1="56.000000" x2="28.000000" y2="56.000000"  style="stroke:black; stroke-linecap:round; stroke-width:0.25;"/>
<line x1="28.000000" y1="64.000000" x2="36.000000" y2="64.000000"  style="stroke:black; stroke-linecap:round; stroke-width:0.25;"/>
<line x1="36.000000" y1="40.000000" x2="40.000000" y2="40.000000"  style="stroke:black; stroke-linecap:round; stroke-width:0.25;"/>
<line x1="36.000000" y1="64.000000" x2="36.000000" y2="80.000000"  style="stroke:black; stroke-linecap:round; stroke-width:0.25;"/>
<line x1="36.000000" y1="80.000000" x2="36.000000" y2="80.000000"  style="stroke:black; stroke-linecap:round; stroke-width:0.25;"/>
<line x1="36.000000" y1="80.000000" x2="40.000000" y2="80.000000"  style="stroke:black; stroke-linecap:round; stroke-width:0.25;"/>
<line x1="65.800000" y1="28.000000" x2="69.800000" y2="28.000000"  style="stroke:black; stroke-linecap:round; stroke-width:0.25;"/>
<line x1="65.800000" y1="36.000000" x2="69.800000" y2="36.000000"  style="stroke:black; stroke-linecap:round; stroke-width:0.25;"/>
<line x1="65.800000" y1="44.000000" x2="69.800000" y2="44.000000"  style="stroke:black; stroke-linecap:round; stroke-width:0.25;"/>
<line x1="65.800000" y1="52.000000" x2="69.800000" y2="52.000000"  style="stroke:black; stroke-linecap:round; stroke-width:0.25;"/>
<line x1="65.800000" y1="68.000000" x2="69.800000" y2="68.000000"  style="stroke:black; stroke-linecap:round; stroke-width:0.25;"/>
<line x1="65.800000" y1="76.000000" x2="69.800000" y2="76.000000"  style="stroke:black; stroke-linecap:round; stroke-width:0.25;"/>
<line x1="65.800000" y1="84.000000" x2="69.800000" y2="84.000000"  style="stroke:black; stroke-linecap:round; stroke-width:0.25;"/>
<line x1="65.800000" y1="92.000000" x2="69.800000" y2="92.000000"  style="stroke:black; stroke-linecap:round; stroke-width:0.25;"/>
<line x1="69.800000" y1="28.000000" x2="69.800000" y2="28.000000"  style="stroke:black; stroke-linecap:round; stroke-width:0.25;"/>
<line x1="69.800000" y1="28.000000" x2="73.800000" y2="28.000000"  style="stroke:black; stroke-linecap:round; stroke-width:0.25;"/>
<line x1="69.800000" y1="36.000000" x2="69.800000" y2="36.000000"  style="stroke:black; stroke-linecap:round; stroke-width:0.25;"/>
<line x1="69.800000" y1="36.000000" x2="73.800000" y2="36.000000"  style="stroke:black; stroke-linecap:round; stroke-width:0.25;"/>
<line x1="69.800000" y1="44.000000" x2="69.800000" y2="44.000000"  style="stroke:black; stroke-linecap:round; stroke-width:0.25;"/>
<line x1="69.800000" y1="44.000000" x2="73.800000" y2="44.000000"  style="stroke:black; stroke-linecap:round; stroke-width:0.25;"/>
<line x1="69.800000" y1="52.000000" x2="69.800000" y2="52.000000"  style="stroke:black; stroke-linecap:round; stroke-width:0.25;"/>
<line x1="69.800000" y1="52.000000" x2="73.800000" y2="52.000000"  style="stroke:black; stroke-linecap:round; stroke-width:0.25;"/>
<line x1="69.800000" y1="68.000000" x2="69.800000" y2="68.000000"  style="stroke:black; stroke-linecap:round; stroke-width:0.25;"/>
<line x1="69.800000" y1="68.000000" x2="73.800000" y2="68.000000"  style="stroke:black; stroke-linecap:round; stroke-width:0.25;"/>
<line x1="69.800000" y1="76.000000" x2="69.800000" y2="76.000000"  style="stroke:black; stroke-linecap:round; stroke-width:0.25;"/>
<line x1="69.800000" y1="76.000000" x2="73.800000" y2="76.000000"  style="stroke:black; stroke-linecap:round; stroke-width:0.25;"/>
<line x1="69.800000" y1="84.000000" x2="69.800000" y2="84.000000"  style="stroke:black; stroke-linecap:round; stroke-width:0.25;"/>
<line x1="69.800000" y1="84.000000" x2="73.800000" y2="84.000000"  style="stroke:black; stroke-linecap:round; stroke-width:0.25;"/>
<line x1="69.800000" y1="92.000000" x2="69.800000" y2="92.000000"  style="stroke:black; stroke-linecap:round; stroke-width:0.25;"/>
<line x1="69.800000" y1="92.000000" x2="73.800000" y2="92.000000"  style="stroke:black; stroke-linecap:round; stroke-width:0.25;"/>
<line x1="202.800000" y1="28.000000" x2="206.800000" y2="28.000000"  style="stroke:black; stroke-linecap:round; stroke-width:0.25;"/>
<line x1="202.800000" y1="36.000000" x2="206.800000" y2="36.000000"  style="stroke:black; stroke-linecap:round; stroke-width:0.25;"/>
<line x1="202.800000" y1="44.000000" x2="206.800000" y2="44.000000"  style="stroke:black; stroke-linecap:round; stroke-width:0.25;"/>
<line x1="202.800000" y1="52.000000" x2="206.800000" y2="52.000000"  style="stroke:black; stroke-linecap:round; stroke-width:0.25;"/>
<line x1="202.800000" y1="68.000000" x2="206.800000" y2="68.000000"  style="stroke:black; stroke-linecap:round; stroke-width:0.25;"/>
<line x1="202.800000" y1="76.000000" x2="206.800000" y2="76.000000"  style="stroke:black; stroke-linecap:round; stroke-width:0.25;"/>
<line x1="202.800000" y1="84.000000" x2="206.800000" y2="84.000000"  style="stroke:black; stroke-linecap:round; stroke-width:0.25;"/>
<line x1="202.800000" y1="92.000000" x2="206.800000" y2="92.000000"  style="stroke:black; stroke-linecap:round; stroke-width:0.25;"/>
<line x1="206.800000" y1="28.000000" x2="236.800000" y2="48.000000"  style="stroke:black; stroke-linecap:round; stroke-width:0.25;"/>
<line x1="206.800000" y1="36.000000" x2="236.800000" y2="56.000000"  style="stroke:black; stroke-linecap:round; stroke-width:0.25;"/>
<line x1="206.800000" y1="44.000000" x2="236.800000" y2="64.000000"  style="stroke:black; stroke-linecap:round; stroke-width:0.25;"/>
<line x1="206.800000" y1="52.000000" x2="236.800000" y2="72.000000"  style="stroke:black; stroke-linecap:round; stroke-width:0.25;"/>
<line x1="206.800000" y1="68.000000" x2="236.800000" y2="48.000000"  style="stroke:black; stroke-linecap:round; stroke-width:0.25;"/>
<line x1="206.800000" y1="76.000000" x2="236.800000" y2="56.000000"  style="stroke:black; stroke-linecap:round; stroke-width:0.25;"/>
<line x1="206.800000" y1="84.000000" x2="236.800000" y2="64.000000"  style="stroke:black; stroke-linecap:round; stroke-width:0.25;"/>
<line x1="206.800000" y1="92.000000" x2="236.800000" y2="72.000000"  style="stroke:black; stroke-linecap:round; stroke-width:0.25;"/>
<line x1="236.800000" y1="48.000000" x2="236.800000" y2="48.000000"  style="stroke:black; stroke-linecap:round; stroke-width:0.25;"/>
<line x1="236.800000" y1="48.000000" x2="240.800000" y2="48.000000"  style="stroke:black; stroke-linecap:round; stroke-width:0.25;"/>
<line x1="236.800000" y1="56.000000" x2="236.800000" y2="56.000000"  style="stroke:black; stroke-linecap:round; stroke-width:0.25;"/>
<line x1="236.800000" y1="56.000000" x2="240.800000" y2="56.000000"  style="stroke:black; stroke-linecap:round; stroke-width:0.25;"/>
<line x1="236.800000" y1="64.000000" x2="236.800000" y2="64.000000"  style="stroke:black; stroke-linecap:round; stroke-width:0.25;"/>
<line x1="236.800000" y1="64.000000" x2="240.800000" y2="64.000000"  style="stroke:black; stroke-linecap:round; stroke-width:0.25;"/>
<line x1="236.800000" y1="72.000000" x2="236.800000" y2="72.000000"  style="stroke:black; stroke-linecap:round; stroke-width:0.25;"/>
<line x1="236.800000" y1="72.000000" x2="240.800000" y2="72.000000"  style="stroke:black; stroke-linecap:round; stroke-width:0.25;"/>
<line x1="395.600000" y1="48.000000" x2="399.600000" y2="48.000000"  style="stroke:black; stroke-linecap:round; stroke-width:0.25;"/>
<line x1="395.600000" y1="56.000000" x2="399.600000" y2="56.000000"  style="stroke:black; stroke-linecap:round; stroke-width:0.25;"/>
<line x1="395.600000" y1="64.000000" x2="399.600000" y2="64.000000"  style="stroke:black; stroke-linecap:round; stroke-width:0.25;"/>
<line x1="395.600000" y1="72.000000" x2="399.600000" y2="72.000000"  style="stroke:black; stroke-linecap:round; stroke-width:0.25;"/>
<line x1="399.600000" y1="48.000000" x2="399.600000" y2="48.000000"  style="stroke:black; stroke-linecap:round; stroke-width:0.25;"/>
<line x1="399.600000" y1="48.000000" x2="403.600000" y2="48.000000"  style="stroke:black; stroke-linecap:round; stroke-width:0.25;"/>
<line x1="399.600000" y1="56.000000" x2="399.600000" y2="56.000000"  style="stroke:black; stroke-linecap:round; stroke-width:0.25;"/>
<line x1="399.600000" y1="56.000000" x2="403.600000" y2="56.000000"  style="stroke:black; stroke-linecap:round; stroke-width:0.25;"/>
<line x1="399.600000" y1="64.000000" x2="399.600000" y2="64.000000"  style="stroke:black; stroke-linecap:round; stroke-width:0.25;"/>
<line x1="399.600000" y1="64.000000" x2="403.600000" y2="64.000000"  style="stroke:black; stroke-linecap:round; stroke-width:0.25;"/>
<line x1="399.600000" y1="72.000000" x2="399.600000" y2="72.000000"  style="stroke:black; stroke-linecap:round; stroke-width:0.25;"/>
<line x1="399.600000" y1="72.000000" x2="403.600000" y2="72.000000"  style="stroke:black; stroke-linecap:round; stroke-width:0.25;"/>
<line x1="403.600000" y1="48.000000" x2="407.600000" y2="48.000000"  style="stroke:black; stroke-linecap:round; stroke-width:0.25;"/>
<line x1="403.600000" y1="56.000000" x2="407.600000" y2="56.000000"  style="stroke:black; stroke-linecap:round; stroke-width:0.25;"/>
<line x1="403.600000" y1="64.000000" x2="407.600000" y2="64.000000"  style="stroke:black; stroke-linecap:round; stroke-width:0.25;"/>
<line x1="403.600000" y1="72.000000" x2="407.600000" y2="72.000000"  style="stroke:black; stroke-linecap:round; stroke-width:0.25;"/>
<line x1="407.600000" y1="48.000000" x2="417.600000" y2="48.000000"  style="stroke:black; stroke-linecap:round; stroke-width:0.25;"/>
<line x1="407.600000" y1="56.000000" x2="417.600000" y2="56.000000"  style="stroke:black; stroke-linecap:round; stroke-width:0.25;"/>
<line x1="407.600000" y1="64.000000" x2="417.600000" y2="64.000000"  style="stroke:black; stroke-linecap:round; stroke-width:0.25;"/>
<line x1="407.600000" y1="72.000000" x2="417.600000" y2="72.000000"  style="stroke:black; stroke-linecap:round; stroke-width:0.25;"/>
</svg>
