<?xml version="1.0"?>
<svg xmlns="http://www.w3.org/2000/svg" xmlns:xlink="http://www.w3.org/1999/xlink" viewBox="0 0 412.300000 72.000000" width="206.150000mm" height="36.000000mm" version="1.1">
<a xlink:href="a3-0x600000cf9300.svg">
<rect x="1.000000" y="1.000000" width="411.300000" height="71.000000" rx="0" ry="0" style="stroke:none;fill:#cccccc;"/>
<rect x="0.000000" y="0.000000" width="411.300000" height="71.000000" rx="0" ry="0" style="stroke:none;fill:#ffffff;"/>
</a>
<text x="10.000000" y="7.000000" font-family="Arial" font-size="7"></text>
<rect x="25.000000" y="25.000000" width="309.600000" height="24.000000" rx="0" ry="0" style="stroke:none;fill:#cccccc;"/>
<rect x="24.000000" y="24.000000" width="309.600000" height="24.000000" rx="0" ry="0" style="stroke:none;fill:#477881;"/>
<text x="178.800000" y="38.000000" font-family="Arial" font-size="7" text-anchor="middle" fill="#FFFFFF">hslider(PITCH Rotation around Y-axis, 0.0f, -1.8e+02f, 1.8e+02f, 0.5f)</text>
<circle cx="26.000000" cy="26.000000" r="1"/>
<a xlink:href="deg2rad-0x600000ccaf80.svg">
<rect x="342.600000" y="25.000000" width="38.700000" height="24.000000" rx="0" ry="0" style="stroke:none;fill:#cccccc;"/>
<rect x="341.600000" y="24.000000" width="38.700000" height="24.000000" rx="0" ry="0" style="stroke:none;fill:#003366;"/>
</a>
<a xlink:href="deg2rad-0x600000ccaf80.svg">
<text x="360.950000" y="38.000000" font-family="Arial" font-size="7" text-anchor="middle" fill="#FFFFFF">deg2rad</text>
</a>
<circle cx="343.600000" cy="26.000000" r="1"/>
<line x1="338.600000" y1="35.000000" x2="341.600000" y2="36.000000"  transform="rotate(0.000000,341.600000,36.000000)" style="stroke: black; stroke-width:0.25;"/>
<line x1="338.600000" y1="37.000000" x2="341.600000" y2="36.000000"  transform="rotate(0.000000,341.600000,36.000000)" style="stroke: black; stroke-width:0.25;"/>
<line x1="15.000000" y1="15.000000" x2="15.000000" y2="57.000000"  style="stroke: black; stroke-linecap:round; stroke-width:0.25; stroke-dasharray:3,3;"/>
<line x1="15.000000" y1="57.000000" x2="397.300000" y2="57.000000"  style="stroke: black; stroke-linecap:round; stroke-width:0.25; stroke-dasharray:3,3;"/>
<line x1="397.300000" y1="57.000000" x2="397.300000" y2="15.000000"  style="stroke: black; stroke-linecap:round; stroke-width:0.25; stroke-dasharray:3,3;"/>
<line x1="15.000000" y1="15.000000" x2="20.000000" y2="15.000000"  style="stroke: black; stroke-linecap:round; stroke-width:0.25; stroke-dasharray:3,3;"/>
<line x1="42.575000" y1="15.000000" x2="397.300000" y2="15.000000"  style="stroke: black; stroke-linecap:round; stroke-width:0.25; stroke-dasharray:3,3;"/>
<text x="20.000000" y="17.000000" font-family="Arial" font-size="7">pitch</text>
<line x1="399.300000" y1="35.000000" x2="402.300000" y2="36.000000"  transform="rotate(0.000000,402.300000,36.000000)" style="stroke: black; stroke-width:0.25;"/>
<line x1="399.300000" y1="37.000000" x2="402.300000" y2="36.000000"  transform="rotate(0.000000,402.300000,36.000000)" style="stroke: black; stroke-width:0.25;"/>
<line x1="333.600000" y1="36.000000" x2="337.600000" y2="36.000000"  style="stroke:black; stroke-linecap:round; stroke-width:0.25;"/>
<line x1="337.600000" y1="36.000000" x2="337.600000" y2="36.000000"  style="stroke:black; stroke-linecap:round; stroke-width:0.25;"/>
<line x1="337.600000" y1="36.000000" x2="341.600000" y2="36.000000"  style="stroke:black; stroke-linecap:round; stroke-width:0.25;"/>
<line x1="380.300000" y1="36.000000" x2="384.300000" y2="36.000000"  style="stroke:black; stroke-linecap:round; stroke-width:0.25;"/>
<line x1="384.300000" y1="36.000000" x2="384.300000" y2="36.000000"  style="stroke:black; stroke-linecap:round; stroke-width:0.25;"/>
<line x1="384.300000" y1="36.000000" x2="388.300000" y2="36.000000"  style="stroke:black; stroke-linecap:round; stroke-width:0.25;"/>
<line x1="388.300000" y1="36.000000" x2="392.300000" y2="36.000000"  style="stroke:black; stroke-linecap:round; stroke-width:0.25;"/>
<line x1="392.300000" y1="36.000000" x2="402.300000" y2="36.000000"  style="stroke:black; stroke-linecap:round; stroke-width:0.25;"/>
</svg>
