<?xml version="1.0"?>
<svg xmlns="http://www.w3.org/2000/svg" xmlns:xlink="http://www.w3.org/1999/xlink" viewBox="0 0 227.600000 200.000000" width="113.800000mm" height="100.000000mm" version="1.1">
<a xlink:href="b2-0x6000009b7c00.svg">
<rect x="1.000000" y="1.000000" width="226.600000" height="199.000000" rx="0" ry="0" style="stroke:none;fill:#cccccc;"/>
<rect x="0.000000" y="0.000000" width="226.600000" height="199.000000" rx="0" ry="0" style="stroke:none;fill:#ffffff;"/>
</a>
<text x="10.000000" y="7.000000" font-family="Arial" font-size="7"></text>
<rect x="51.450000" y="25.000000" width="38.700000" height="24.000000" rx="0" ry="0" style="stroke:none;fill:#cccccc;"/>
<rect x="50.450000" y="24.000000" width="38.700000" height="24.000000" rx="0" ry="0" style="stroke:none;fill:#f44800;"/>
<text x="69.800000" y="38.000000" font-family="Arial" font-size="7" text-anchor="middle" fill="#FFFFFF">1.676083f</text>
<circle cx="52.450000" cy="26.000000" r="1"/>
<rect x="25.000000" y="57.000000" width="51.600000" height="24.000000" rx="0" ry="0" style="stroke:none;fill:#cccccc;"/>
<rect x="24.000000" y="56.000000" width="51.600000" height="24.000000" rx="0" ry="0" style="stroke:none;fill:#f44800;"/>
<text x="49.800000" y="70.000000" font-family="Arial" font-size="7" text-anchor="middle" fill="#FFFFFF">-0.32391703f</text>
<circle cx="26.000000" cy="58.000000" r="1"/>
<a xlink:href="cw-0x600000980380.svg">
<rect x="38.800000" y="89.000000" width="24.000000" height="24.000000" rx="0" ry="0" style="stroke:none;fill:#cccccc;"/>
<rect x="37.800000" y="88.000000" width="24.000000" height="24.000000" rx="0" ry="0" style="stroke:none;fill:#003366;"/>
</a>
<a xlink:href="cw-0x600000980380.svg">
<text x="49.800000" y="102.000000" font-family="Arial" font-size="7" text-anchor="middle" fill="#FFFFFF">cw</text>
</a>
<circle cx="39.800000" cy="90.000000" r="1"/>
<rect x="92.600000" y="73.000000" width="24.000000" height="24.000000" rx="0" ry="0" style="stroke:none;fill:#cccccc;"/>
<rect x="91.600000" y="72.000000" width="24.000000" height="24.000000" rx="0" ry="0" style="stroke:none;fill:#4B71A1;"/>
<text x="103.600000" y="86.000000" font-family="Arial" font-size="7" text-anchor="middle" fill="#FFFFFF">*</text>
<circle cx="93.600000" cy="74.000000" r="1"/>
<line x1="88.600000" y1="79.000000" x2="91.600000" y2="80.000000"  transform="rotate(0.000000,91.600000,80.000000)" style="stroke: black; stroke-width:0.25;"/>
<line x1="88.600000" y1="81.000000" x2="91.600000" y2="80.000000"  transform="rotate(0.000000,91.600000,80.000000)" style="stroke: black; stroke-width:0.25;"/>
<line x1="88.600000" y1="87.000000" x2="91.600000" y2="88.000000"  transform="rotate(0.000000,91.600000,88.000000)" style="stroke: black; stroke-width:0.25;"/>
<line x1="88.600000" y1="89.000000" x2="91.600000" y2="88.000000"  transform="rotate(0.000000,91.600000,88.000000)" style="stroke: black; stroke-width:0.25;"/>
<rect x="132.600000" y="57.000000" width="24.000000" height="24.000000" rx="0" ry="0" style="stroke:none;fill:#cccccc;"/>
<rect x="131.600000" y="56.000000" width="24.000000" height="24.000000" rx="0" ry="0" style="stroke:none;fill:#4B71A1;"/>
<text x="143.600000" y="70.000000" font-family="Arial" font-size="7" text-anchor="middle" fill="#FFFFFF">-</text>
<circle cx="133.600000" cy="58.000000" r="1"/>
<line x1="128.600000" y1="63.000000" x2="131.600000" y2="64.000000"  transform="rotate(0.000000,131.600000,64.000000)" style="stroke: black; stroke-width:0.25;"/>
<line x1="128.600000" y1="65.000000" x2="131.600000" y2="64.000000"  transform="rotate(0.000000,131.600000,64.000000)" style="stroke: black; stroke-width:0.25;"/>
<line x1="128.600000" y1="71.000000" x2="131.600000" y2="72.000000"  transform="rotate(0.000000,131.600000,72.000000)" style="stroke: black; stroke-width:0.25;"/>
<line x1="128.600000" y1="73.000000" x2="131.600000" y2="72.000000"  transform="rotate(0.000000,131.600000,72.000000)" style="stroke: black; stroke-width:0.25;"/>
<rect x="45.000000" y="121.000000" width="51.600000" height="24.000000" rx="0" ry="0" style="stroke:none;fill:#cccccc;"/>
<rect x="44.000000" y="120.000000" width="51.600000" height="24.000000" rx="0" ry="0" style="stroke:none;fill:#f44800;"/>
<text x="69.800000" y="134.000000" font-family="Arial" font-size="7" text-anchor="middle" fill="#FFFFFF">1.6444854f</text>
<circle cx="46.000000" cy="122.000000" r="1"/>
<a xlink:href="al-0x6000009beb00.svg">
<rect x="58.800000" y="153.000000" width="24.000000" height="24.000000" rx="0" ry="0" style="stroke:none;fill:#cccccc;"/>
<rect x="57.800000" y="152.000000" width="24.000000" height="24.000000" rx="0" ry="0" style="stroke:none;fill:#003366;"/>
</a>
<a xlink:href="al-0x6000009beb00.svg">
<text x="69.800000" y="166.000000" font-family="Arial" font-size="7" text-anchor="middle" fill="#FFFFFF">al</text>
</a>
<circle cx="59.800000" cy="154.000000" r="1"/>
<rect x="112.600000" y="137.000000" width="24.000000" height="24.000000" rx="0" ry="0" style="stroke:none;fill:#cccccc;"/>
<rect x="111.600000" y="136.000000" width="24.000000" height="24.000000" rx="0" ry="0" style="stroke:none;fill:#4B71A1;"/>
<text x="123.600000" y="150.000000" font-family="Arial" font-size="7" text-anchor="middle" fill="#FFFFFF">*</text>
<circle cx="113.600000" cy="138.000000" r="1"/>
<line x1="108.600000" y1="143.000000" x2="111.600000" y2="144.000000"  transform="rotate(0.000000,111.600000,144.000000)" style="stroke: black; stroke-width:0.25;"/>
<line x1="108.600000" y1="145.000000" x2="111.600000" y2="144.000000"  transform="rotate(0.000000,111.600000,144.000000)" style="stroke: black; stroke-width:0.25;"/>
<line x1="108.600000" y1="151.000000" x2="111.600000" y2="152.000000"  transform="rotate(0.000000,111.600000,152.000000)" style="stroke: black; stroke-width:0.25;"/>
<line x1="108.600000" y1="153.000000" x2="111.600000" y2="152.000000"  transform="rotate(0.000000,111.600000,152.000000)" style="stroke: black; stroke-width:0.25;"/>
<rect x="172.600000" y="89.000000" width="24.000000" height="24.000000" rx="0" ry="0" style="stroke:none;fill:#cccccc;"/>
<rect x="171.600000" y="88.000000" width="24.000000" height="24.000000" rx="0" ry="0" style="stroke:none;fill:#4B71A1;"/>
<text x="183.600000" y="102.000000" font-family="Arial" font-size="7" text-anchor="middle" fill="#FFFFFF">+</text>
<circle cx="173.600000" cy="90.000000" r="1"/>
<line x1="168.600000" y1="95.000000" x2="171.600000" y2="96.000000"  transform="rotate(0.000000,171.600000,96.000000)" style="stroke: black; stroke-width:0.25;"/>
<line x1="168.600000" y1="97.000000" x2="171.600000" y2="96.000000"  transform="rotate(0.000000,171.600000,96.000000)" style="stroke: black; stroke-width:0.25;"/>
<line x1="168.600000" y1="103.000000" x2="171.600000" y2="104.000000"  transform="rotate(0.000000,171.600000,104.000000)" style="stroke: black; stroke-width:0.25;"/>
<line x1="168.600000" y1="105.000000" x2="171.600000" y2="104.000000"  transform="rotate(0.000000,171.600000,104.000000)" style="stroke: black; stroke-width:0.25;"/>
<line x1="15.000000" y1="15.000000" x2="15.000000" y2="185.000000"  style="stroke: black; stroke-linecap:round; stroke-width:0.25; stroke-dasharray:3,3;"/>
<line x1="15.000000" y1="185.000000" x2="212.600000" y2="185.000000"  style="stroke: black; stroke-linecap:round; stroke-width:0.25; stroke-dasharray:3,3;"/>
<line x1="212.600000" y1="185.000000" x2="212.600000" y2="15.000000"  style="stroke: black; stroke-linecap:round; stroke-width:0.25; stroke-dasharray:3,3;"/>
<line x1="15.000000" y1="15.000000" x2="20.000000" y2="15.000000"  style="stroke: black; stroke-linecap:round; stroke-width:0.25; stroke-dasharray:3,3;"/>
<line x1="32.900000" y1="15.000000" x2="212.600000" y2="15.000000"  style="stroke: black; stroke-linecap:round; stroke-width:0.25; stroke-dasharray:3,3;"/>
<text x="20.000000" y="17.000000" font-family="Arial" font-size="7">a0</text>
<line x1="214.600000" y1="99.000000" x2="217.600000" y2="100.000000"  transform="rotate(0.000000,217.600000,100.000000)" style="stroke: black; stroke-width:0.25;"/>
<line x1="214.600000" y1="101.000000" x2="217.600000" y2="100.000000"  transform="rotate(0.000000,217.600000,100.000000)" style="stroke: black; stroke-width:0.25;"/>
<line x1="61.800000" y1="100.000000" x2="65.800000" y2="100.000000"  style="stroke:black; stroke-linecap:round; stroke-width:0.25;"/>
<line x1="65.800000" y1="100.000000" x2="79.600000" y2="100.000000"  style="stroke:black; stroke-linecap:round; stroke-width:0.25;"/>
<line x1="75.600000" y1="68.000000" x2="79.600000" y2="68.000000"  style="stroke:black; stroke-linecap:round; stroke-width:0.25;"/>
<line x1="79.600000" y1="68.000000" x2="87.600000" y2="68.000000"  style="stroke:black; stroke-linecap:round; stroke-width:0.25;"/>
<line x1="79.600000" y1="88.000000" x2="87.600000" y2="88.000000"  style="stroke:black; stroke-linecap:round; stroke-width:0.25;"/>
<line x1="79.600000" y1="100.000000" x2="79.600000" y2="88.000000"  style="stroke:black; stroke-linecap:round; stroke-width:0.25;"/>
<line x1="79.600000" y1="100.000000" x2="79.600000" y2="100.000000"  style="stroke:black; stroke-linecap:round; stroke-width:0.25;"/>
<line x1="81.800000" y1="164.000000" x2="85.800000" y2="164.000000"  style="stroke:black; stroke-linecap:round; stroke-width:0.25;"/>
<line x1="85.800000" y1="164.000000" x2="99.600000" y2="164.000000"  style="stroke:black; stroke-linecap:round; stroke-width:0.25;"/>
<line x1="87.600000" y1="68.000000" x2="87.600000" y2="80.000000"  style="stroke:black; stroke-linecap:round; stroke-width:0.25;"/>
<line x1="87.600000" y1="80.000000" x2="87.600000" y2="80.000000"  style="stroke:black; stroke-linecap:round; stroke-width:0.25;"/>
<line x1="87.600000" y1="80.000000" x2="91.600000" y2="80.000000"  style="stroke:black; stroke-linecap:round; stroke-width:0.25;"/>
<line x1="87.600000" y1="88.000000" x2="91.600000" y2="88.000000"  style="stroke:black; stroke-linecap:round; stroke-width:0.25;"/>
<line x1="89.150000" y1="36.000000" x2="93.150000" y2="36.000000"  style="stroke:black; stroke-linecap:round; stroke-width:0.25;"/>
<line x1="93.150000" y1="36.000000" x2="119.600000" y2="36.000000"  style="stroke:black; stroke-linecap:round; stroke-width:0.25;"/>
<line x1="95.600000" y1="132.000000" x2="99.600000" y2="132.000000"  style="stroke:black; stroke-linecap:round; stroke-width:0.25;"/>
<line x1="99.600000" y1="132.000000" x2="107.600000" y2="132.000000"  style="stroke:black; stroke-linecap:round; stroke-width:0.25;"/>
<line x1="99.600000" y1="152.000000" x2="107.600000" y2="152.000000"  style="stroke:black; stroke-linecap:round; stroke-width:0.25;"/>
<line x1="99.600000" y1="164.000000" x2="99.600000" y2="152.000000"  style="stroke:black; stroke-linecap:round; stroke-width:0.25;"/>
<line x1="99.600000" y1="164.000000" x2="99.600000" y2="164.000000"  style="stroke:black; stroke-linecap:round; stroke-width:0.25;"/>
<line x1="107.600000" y1="132.000000" x2="107.600000" y2="144.000000"  style="stroke:black; stroke-linecap:round; stroke-width:0.25;"/>
<line x1="107.600000" y1="144.000000" x2="107.600000" y2="144.000000"  style="stroke:black; stroke-linecap:round; stroke-width:0.25;"/>
<line x1="107.600000" y1="144.000000" x2="111.600000" y2="144.000000"  style="stroke:black; stroke-linecap:round; stroke-width:0.25;"/>
<line x1="107.600000" y1="152.000000" x2="111.600000" y2="152.000000"  style="stroke:black; stroke-linecap:round; stroke-width:0.25;"/>
<line x1="115.600000" y1="84.000000" x2="119.600000" y2="84.000000"  style="stroke:black; stroke-linecap:round; stroke-width:0.25;"/>
<line x1="119.600000" y1="72.000000" x2="127.600000" y2="72.000000"  style="stroke:black; stroke-linecap:round; stroke-width:0.25;"/>
<line x1="119.600000" y1="84.000000" x2="119.600000" y2="72.000000"  style="stroke:black; stroke-linecap:round; stroke-width:0.25;"/>
<line x1="119.600000" y1="84.000000" x2="119.600000" y2="84.000000"  style="stroke:black; stroke-linecap:round; stroke-width:0.25;"/>
<line x1="119.600000" y1="36.000000" x2="127.600000" y2="36.000000"  style="stroke:black; stroke-linecap:round; stroke-width:0.25;"/>
<line x1="127.600000" y1="64.000000" x2="131.600000" y2="64.000000"  style="stroke:black; stroke-linecap:round; stroke-width:0.25;"/>
<line x1="127.600000" y1="72.000000" x2="131.600000" y2="72.000000"  style="stroke:black; stroke-linecap:round; stroke-width:0.25;"/>
<line x1="127.600000" y1="36.000000" x2="127.600000" y2="64.000000"  style="stroke:black; stroke-linecap:round; stroke-width:0.25;"/>
<line x1="127.600000" y1="64.000000" x2="127.600000" y2="64.000000"  style="stroke:black; stroke-linecap:round; stroke-width:0.25;"/>
<line x1="135.600000" y1="148.000000" x2="139.600000" y2="148.000000"  style="stroke:black; stroke-linecap:round; stroke-width:0.25;"/>
<line x1="139.600000" y1="148.000000" x2="159.600000" y2="148.000000"  style="stroke:black; stroke-linecap:round; stroke-width:0.25;"/>
<line x1="155.600000" y1="68.000000" x2="159.600000" y2="68.000000"  style="stroke:black; stroke-linecap:round; stroke-width:0.25;"/>
<line x1="159.600000" y1="68.000000" x2="167.600000" y2="68.000000"  style="stroke:black; stroke-linecap:round; stroke-width:0.25;"/>
<line x1="159.600000" y1="104.000000" x2="167.600000" y2="104.000000"  style="stroke:black; stroke-linecap:round; stroke-width:0.25;"/>
<line x1="159.600000" y1="148.000000" x2="159.600000" y2="104.000000"  style="stroke:black; stroke-linecap:round; stroke-width:0.25;"/>
<line x1="159.600000" y1="148.000000" x2="159.600000" y2="148.000000"  style="stroke:black; stroke-linecap:round; stroke-width:0.25;"/>
<line x1="167.600000" y1="68.000000" x2="167.600000" y2="96.000000"  style="stroke:black; stroke-linecap:round; stroke-width:0.25;"/>
<line x1="167.600000" y1="96.000000" x2="167.600000" y2="96.000000"  style="stroke:black; stroke-linecap:round; stroke-width:0.25;"/>
<line x1="167.600000" y1="96.000000" x2="171.600000" y2="96.000000"  style="stroke:black; stroke-linecap:round; stroke-width:0.25;"/>
<line x1="167.600000" y1="104.000000" x2="171.600000" y2="104.000000"  style="stroke:black; stroke-linecap:round; stroke-width:0.25;"/>
<line x1="195.600000" y1="100.000000" x2="199.600000" y2="100.000000"  style="stroke:black; stroke-linecap:round; stroke-width:0.25;"/>
<line x1="199.600000" y1="100.000000" x2="199.600000" y2="100.000000"  style="stroke:black; stroke-linecap:round; stroke-width:0.25;"/>
<line x1="199.600000" y1="100.000000" x2="203.600000" y2="100.000000"  style="stroke:black; stroke-linecap:round; stroke-width:0.25;"/>
<line x1="203.600000" y1="100.000000" x2="207.600000" y2="100.000000"  style="stroke:black; stroke-linecap:round; stroke-width:0.25;"/>
<line x1="207.600000" y1="100.000000" x2="217.600000" y2="100.000000"  style="stroke:black; stroke-linecap:round; stroke-width:0.25;"/>
</svg>
