<?xml version="1.0"?>
<svg xmlns="http://www.w3.org/2000/svg" xmlns:xlink="http://www.w3.org/1999/xlink" viewBox="0 0 241.800000 200.000000" width="120.900000mm" height="100.000000mm" version="1.1">
<a xlink:href="process.svg">
<rect x="1.000000" y="1.000000" width="240.800000" height="199.000000" rx="0" ry="0" style="stroke:none;fill:#cccccc;"/>
<rect x="0.000000" y="0.000000" width="240.800000" height="199.000000" rx="0" ry="0" style="stroke:none;fill:#ffffff;"/>
</a>
<text x="10.000000" y="7.000000" font-family="Arial" font-size="7"></text>
<rect x="25.000000" y="25.000000" width="25.800000" height="24.000000" rx="0" ry="0" style="stroke:none;fill:#cccccc;"/>
<rect x="24.000000" y="24.000000" width="25.800000" height="24.000000" rx="0" ry="0" style="stroke:none;fill:#47945E;"/>
<text x="36.900000" y="38.000000" font-family="Arial" font-size="7" text-anchor="middle" fill="#FFFFFF">[1] a0</text>
<circle cx="26.000000" cy="26.000000" r="1"/>
<rect x="25.000000" y="57.000000" width="25.800000" height="24.000000" rx="0" ry="0" style="stroke:none;fill:#cccccc;"/>
<rect x="24.000000" y="56.000000" width="25.800000" height="24.000000" rx="0" ry="0" style="stroke:none;fill:#47945E;"/>
<text x="36.900000" y="70.000000" font-family="Arial" font-size="7" text-anchor="middle" fill="#FFFFFF">[2] a1</text>
<circle cx="26.000000" cy="58.000000" r="1"/>
<rect x="66.800000" y="41.000000" width="24.000000" height="24.000000" rx="0" ry="0" style="stroke:none;fill:#cccccc;"/>
<rect x="65.800000" y="40.000000" width="24.000000" height="24.000000" rx="0" ry="0" style="stroke:none;fill:#4B71A1;"/>
<text x="77.800000" y="54.000000" font-family="Arial" font-size="7" text-anchor="middle" fill="#FFFFFF">+</text>
<circle cx="67.800000" cy="42.000000" r="1"/>
<line x1="62.800000" y1="47.000000" x2="65.800000" y2="48.000000"  transform="rotate(0.000000,65.800000,48.000000)" style="stroke: black; stroke-width:0.25;"/>
<line x1="62.800000" y1="49.000000" x2="65.800000" y2="48.000000"  transform="rotate(0.000000,65.800000,48.000000)" style="stroke: black; stroke-width:0.25;"/>
<line x1="62.800000" y1="55.000000" x2="65.800000" y2="56.000000"  transform="rotate(0.000000,65.800000,56.000000)" style="stroke: black; stroke-width:0.25;"/>
<line x1="62.800000" y1="57.000000" x2="65.800000" y2="56.000000"  transform="rotate(0.000000,65.800000,56.000000)" style="stroke: black; stroke-width:0.25;"/>
<rect x="45.000000" y="89.000000" width="25.800000" height="24.000000" rx="0" ry="0" style="stroke:none;fill:#cccccc;"/>
<rect x="44.000000" y="88.000000" width="25.800000" height="24.000000" rx="0" ry="0" style="stroke:none;fill:#47945E;"/>
<text x="56.900000" y="102.000000" font-family="Arial" font-size="7" text-anchor="middle" fill="#FFFFFF">[3] a2</text>
<circle cx="46.000000" cy="90.000000" r="1"/>
<rect x="106.800000" y="57.000000" width="24.000000" height="24.000000" rx="0" ry="0" style="stroke:none;fill:#cccccc;"/>
<rect x="105.800000" y="56.000000" width="24.000000" height="24.000000" rx="0" ry="0" style="stroke:none;fill:#4B71A1;"/>
<text x="117.800000" y="70.000000" font-family="Arial" font-size="7" text-anchor="middle" fill="#FFFFFF">-</text>
<circle cx="107.800000" cy="58.000000" r="1"/>
<line x1="102.800000" y1="63.000000" x2="105.800000" y2="64.000000"  transform="rotate(0.000000,105.800000,64.000000)" style="stroke: black; stroke-width:0.25;"/>
<line x1="102.800000" y1="65.000000" x2="105.800000" y2="64.000000"  transform="rotate(0.000000,105.800000,64.000000)" style="stroke: black; stroke-width:0.25;"/>
<line x1="102.800000" y1="71.000000" x2="105.800000" y2="72.000000"  transform="rotate(0.000000,105.800000,72.000000)" style="stroke: black; stroke-width:0.25;"/>
<line x1="102.800000" y1="73.000000" x2="105.800000" y2="72.000000"  transform="rotate(0.000000,105.800000,72.000000)" style="stroke: black; stroke-width:0.25;"/>
<rect x="65.000000" y="121.000000" width="25.800000" height="24.000000" rx="0" ry="0" style="stroke:none;fill:#cccccc;"/>
<rect x="64.000000" y="120.000000" width="25.800000" height="24.000000" rx="0" ry="0" style="stroke:none;fill:#47945E;"/>
<text x="76.900000" y="134.000000" font-family="Arial" font-size="7" text-anchor="middle" fill="#FFFFFF">[4] a3</text>
<circle cx="66.000000" cy="122.000000" r="1"/>
<rect x="146.800000" y="73.000000" width="24.000000" height="24.000000" rx="0" ry="0" style="stroke:none;fill:#cccccc;"/>
<rect x="145.800000" y="72.000000" width="24.000000" height="24.000000" rx="0" ry="0" style="stroke:none;fill:#4B71A1;"/>
<text x="157.800000" y="86.000000" font-family="Arial" font-size="7" text-anchor="middle" fill="#FFFFFF">-</text>
<circle cx="147.800000" cy="74.000000" r="1"/>
<line x1="142.800000" y1="79.000000" x2="145.800000" y2="80.000000"  transform="rotate(0.000000,145.800000,80.000000)" style="stroke: black; stroke-width:0.25;"/>
<line x1="142.800000" y1="81.000000" x2="145.800000" y2="80.000000"  transform="rotate(0.000000,145.800000,80.000000)" style="stroke: black; stroke-width:0.25;"/>
<line x1="142.800000" y1="87.000000" x2="145.800000" y2="88.000000"  transform="rotate(0.000000,145.800000,88.000000)" style="stroke: black; stroke-width:0.25;"/>
<line x1="142.800000" y1="89.000000" x2="145.800000" y2="88.000000"  transform="rotate(0.000000,145.800000,88.000000)" style="stroke: black; stroke-width:0.25;"/>
<rect x="85.900000" y="153.000000" width="24.000000" height="24.000000" rx="0" ry="0" style="stroke:none;fill:#cccccc;"/>
<rect x="84.900000" y="152.000000" width="24.000000" height="24.000000" rx="0" ry="0" style="stroke:none;fill:#f44800;"/>
<text x="96.900000" y="166.000000" font-family="Arial" font-size="7" text-anchor="middle" fill="#FFFFFF">2</text>
<circle cx="86.900000" cy="154.000000" r="1"/>
<rect x="186.800000" y="89.000000" width="24.000000" height="24.000000" rx="0" ry="0" style="stroke:none;fill:#cccccc;"/>
<rect x="185.800000" y="88.000000" width="24.000000" height="24.000000" rx="0" ry="0" style="stroke:none;fill:#4B71A1;"/>
<text x="197.800000" y="102.000000" font-family="Arial" font-size="7" text-anchor="middle" fill="#FFFFFF">/</text>
<circle cx="187.800000" cy="90.000000" r="1"/>
<line x1="182.800000" y1="95.000000" x2="185.800000" y2="96.000000"  transform="rotate(0.000000,185.800000,96.000000)" style="stroke: black; stroke-width:0.25;"/>
<line x1="182.800000" y1="97.000000" x2="185.800000" y2="96.000000"  transform="rotate(0.000000,185.800000,96.000000)" style="stroke: black; stroke-width:0.25;"/>
<line x1="182.800000" y1="103.000000" x2="185.800000" y2="104.000000"  transform="rotate(0.000000,185.800000,104.000000)" style="stroke: black; stroke-width:0.25;"/>
<line x1="182.800000" y1="105.000000" x2="185.800000" y2="104.000000"  transform="rotate(0.000000,185.800000,104.000000)" style="stroke: black; stroke-width:0.25;"/>
<line x1="15.000000" y1="15.000000" x2="15.000000" y2="185.000000"  style="stroke: black; stroke-linecap:round; stroke-width:0.25; stroke-dasharray:3,3;"/>
<line x1="15.000000" y1="185.000000" x2="226.800000" y2="185.000000"  style="stroke: black; stroke-linecap:round; stroke-width:0.25; stroke-dasharray:3,3;"/>
<line x1="226.800000" y1="185.000000" x2="226.800000" y2="15.000000"  style="stroke: black; stroke-linecap:round; stroke-width:0.25; stroke-dasharray:3,3;"/>
<line x1="15.000000" y1="15.000000" x2="20.000000" y2="15.000000"  style="stroke: black; stroke-linecap:round; stroke-width:0.25; stroke-dasharray:3,3;"/>
<line x1="36.125000" y1="15.000000" x2="226.800000" y2="15.000000"  style="stroke: black; stroke-linecap:round; stroke-width:0.25; stroke-dasharray:3,3;"/>
<text x="20.000000" y="17.000000" font-family="Arial" font-size="7">lbd</text>
<line x1="228.800000" y1="99.000000" x2="231.800000" y2="100.000000"  transform="rotate(0.000000,231.800000,100.000000)" style="stroke: black; stroke-width:0.25;"/>
<line x1="228.800000" y1="101.000000" x2="231.800000" y2="100.000000"  transform="rotate(0.000000,231.800000,100.000000)" style="stroke: black; stroke-width:0.25;"/>
<line x1="49.800000" y1="36.000000" x2="53.800000" y2="36.000000"  style="stroke:black; stroke-linecap:round; stroke-width:0.25;"/>
<line x1="49.800000" y1="68.000000" x2="53.800000" y2="68.000000"  style="stroke:black; stroke-linecap:round; stroke-width:0.25;"/>
<line x1="53.800000" y1="36.000000" x2="61.800000" y2="36.000000"  style="stroke:black; stroke-linecap:round; stroke-width:0.25;"/>
<line x1="53.800000" y1="56.000000" x2="61.800000" y2="56.000000"  style="stroke:black; stroke-linecap:round; stroke-width:0.25;"/>
<line x1="53.800000" y1="68.000000" x2="53.800000" y2="56.000000"  style="stroke:black; stroke-linecap:round; stroke-width:0.25;"/>
<line x1="53.800000" y1="68.000000" x2="53.800000" y2="68.000000"  style="stroke:black; stroke-linecap:round; stroke-width:0.25;"/>
<line x1="61.800000" y1="36.000000" x2="61.800000" y2="48.000000"  style="stroke:black; stroke-linecap:round; stroke-width:0.25;"/>
<line x1="61.800000" y1="48.000000" x2="61.800000" y2="48.000000"  style="stroke:black; stroke-linecap:round; stroke-width:0.25;"/>
<line x1="61.800000" y1="48.000000" x2="65.800000" y2="48.000000"  style="stroke:black; stroke-linecap:round; stroke-width:0.25;"/>
<line x1="61.800000" y1="56.000000" x2="65.800000" y2="56.000000"  style="stroke:black; stroke-linecap:round; stroke-width:0.25;"/>
<line x1="69.800000" y1="100.000000" x2="73.800000" y2="100.000000"  style="stroke:black; stroke-linecap:round; stroke-width:0.25;"/>
<line x1="73.800000" y1="100.000000" x2="93.800000" y2="100.000000"  style="stroke:black; stroke-linecap:round; stroke-width:0.25;"/>
<line x1="89.800000" y1="52.000000" x2="93.800000" y2="52.000000"  style="stroke:black; stroke-linecap:round; stroke-width:0.25;"/>
<line x1="89.800000" y1="132.000000" x2="93.800000" y2="132.000000"  style="stroke:black; stroke-linecap:round; stroke-width:0.25;"/>
<line x1="93.800000" y1="52.000000" x2="101.800000" y2="52.000000"  style="stroke:black; stroke-linecap:round; stroke-width:0.25;"/>
<line x1="93.800000" y1="72.000000" x2="101.800000" y2="72.000000"  style="stroke:black; stroke-linecap:round; stroke-width:0.25;"/>
<line x1="93.800000" y1="100.000000" x2="93.800000" y2="72.000000"  style="stroke:black; stroke-linecap:round; stroke-width:0.25;"/>
<line x1="93.800000" y1="100.000000" x2="93.800000" y2="100.000000"  style="stroke:black; stroke-linecap:round; stroke-width:0.25;"/>
<line x1="93.800000" y1="132.000000" x2="133.800000" y2="132.000000"  style="stroke:black; stroke-linecap:round; stroke-width:0.25;"/>
<line x1="101.800000" y1="52.000000" x2="101.800000" y2="64.000000"  style="stroke:black; stroke-linecap:round; stroke-width:0.25;"/>
<line x1="101.800000" y1="64.000000" x2="101.800000" y2="64.000000"  style="stroke:black; stroke-linecap:round; stroke-width:0.25;"/>
<line x1="101.800000" y1="64.000000" x2="105.800000" y2="64.000000"  style="stroke:black; stroke-linecap:round; stroke-width:0.25;"/>
<line x1="101.800000" y1="72.000000" x2="105.800000" y2="72.000000"  style="stroke:black; stroke-linecap:round; stroke-width:0.25;"/>
<line x1="108.900000" y1="164.000000" x2="112.900000" y2="164.000000"  style="stroke:black; stroke-linecap:round; stroke-width:0.25;"/>
<line x1="112.900000" y1="164.000000" x2="173.800000" y2="164.000000"  style="stroke:black; stroke-linecap:round; stroke-width:0.25;"/>
<line x1="129.800000" y1="68.000000" x2="133.800000" y2="68.000000"  style="stroke:black; stroke-linecap:round; stroke-width:0.25;"/>
<line x1="133.800000" y1="68.000000" x2="141.800000" y2="68.000000"  style="stroke:black; stroke-linecap:round; stroke-width:0.25;"/>
<line x1="133.800000" y1="88.000000" x2="141.800000" y2="88.000000"  style="stroke:black; stroke-linecap:round; stroke-width:0.25;"/>
<line x1="133.800000" y1="132.000000" x2="133.800000" y2="88.000000"  style="stroke:black; stroke-linecap:round; stroke-width:0.25;"/>
<line x1="133.800000" y1="132.000000" x2="133.800000" y2="132.000000"  style="stroke:black; stroke-linecap:round; stroke-width:0.25;"/>
<line x1="141.800000" y1="68.000000" x2="141.800000" y2="80.000000"  style="stroke:black; stroke-linecap:round; stroke-width:0.25;"/>
<line x1="141.800000" y1="80.000000" x2="141.800000" y2="80.000000"  style="stroke:black; stroke-linecap:round; stroke-width:0.25;"/>
<line x1="141.800000" y1="80.000000" x2="145.800000" y2="80.000000"  style="stroke:black; stroke-linecap:round; stroke-width:0.25;"/>
<line x1="141.800000" y1="88.000000" x2="145.800000" y2="88.000000"  style="stroke:black; stroke-linecap:round; stroke-width:0.25;"/>
<line x1="169.800000" y1="84.000000" x2="173.800000" y2="84.000000"  style="stroke:black; stroke-linecap:round; stroke-width:0.25;"/>
<line x1="173.800000" y1="84.000000" x2="181.800000" y2="84.000000"  style="stroke:black; stroke-linecap:round; stroke-width:0.25;"/>
<line x1="173.800000" y1="104.000000" x2="181.800000" y2="104.000000"  style="stroke:black; stroke-linecap:round; stroke-width:0.25;"/>
<line x1="173.800000" y1="164.000000" x2="173.800000" y2="104.000000"  style="stroke:black; stroke-linecap:round; stroke-width:0.25;"/>
<line x1="173.800000" y1="164.000000" x2="173.800000" y2="164.000000"  style="stroke:black; stroke-linecap:round; stroke-width:0.25;"/>
<line x1="181.800000" y1="84.000000" x2="181.800000" y2="96.000000"  style="stroke:black; stroke-linecap:round; stroke-width:0.25;"/>
<line x1="181.800000" y1="96.000000" x2="181.800000" y2="96.000000"  style="stroke:black; stroke-linecap:round; stroke-width:0.25;"/>
<line x1="181.800000" y1="96.000000" x2="185.800000" y2="96.000000"  style="stroke:black; stroke-linecap:round; stroke-width:0.25;"/>
<line x1="181.800000" y1="104.000000" x2="185.800000" y2="104.000000"  style="stroke:black; stroke-linecap:round; stroke-width:0.25;"/>
<line x1="209.800000" y1="100.000000" x2="213.800000" y2="100.000000"  style="stroke:black; stroke-linecap:round; stroke-width:0.25;"/>
<line x1="213.800000" y1="100.000000" x2="213.800000" y2="100.000000"  style="stroke:black; stroke-linecap:round; stroke-width:0.25;"/>
<line x1="213.800000" y1="100.000000" x2="217.800000" y2="100.000000"  style="stroke:black; stroke-linecap:round; stroke-width:0.25;"/>
<line x1="217.800000" y1="100.000000" x2="221.800000" y2="100.000000"  style="stroke:black; stroke-linecap:round; stroke-width:0.25;"/>
<line x1="221.800000" y1="100.000000" x2="231.800000" y2="100.000000"  style="stroke:black; stroke-linecap:round; stroke-width:0.25;"/>
</svg>
